<svg id="Layer_1" data-name="Layer 1" xmlns="http://www.w3.org/2000/svg" viewBox="0 0 80 86"><title>beverage</title><circle cx="39.96" cy="46.14" r="39.47" fill="#fee4d2"/><rect x="23.34" y="24.23" width="35.64" height="5.11" fill="#fff"/><path d="M57.84,35.88a2.83,2.83,0,0,0-2.85-3H28.88a2.8,2.8,0,0,0-2.82,3L28.71,81.2a3.23,3.23,0,0,0,3.18,3H52.38a3.2,3.2,0,0,0,3.15-3Z" fill="#d0593f"/><path d="M56.67,30.75H23.33a4.22,4.22,0,0,1-4.21-4.21V24.85a4.22,4.22,0,0,1,4.21-4.21H56.67a4.22,4.22,0,0,1,4.21,4.21v1.69A4.22,4.22,0,0,1,56.67,30.75Zm-33.34-7.3a1.41,1.41,0,0,0-1.4,1.4v1.69a1.41,1.41,0,0,0,1.4,1.4H56.67a1.41,1.41,0,0,0,1.4-1.4V24.85a1.41,1.41,0,0,0-1.4-1.4Z" fill="#402e21"/><path d="M52.74,85.6H27.65a4.43,4.43,0,0,1-4.37-4.13L20.59,32.23a4,4,0,0,1,4.06-4.29h30.7a4.06,4.06,0,0,1,4.08,4.28L57.08,81.46A4.4,4.4,0,0,1,52.74,85.6ZM24.65,30.75a1.23,1.23,0,0,0-1.25,1.32l2.69,49.24a1.6,1.6,0,0,0,1.56,1.48H52.74a1.58,1.58,0,0,0,1.54-1.47l2.35-49.24a1.25,1.25,0,0,0-1.27-1.33Z" fill="#402e21"/><path d="M40.79,22.47a1.43,1.43,0,0,1-.36,0,1.4,1.4,0,0,1-1-1.72l3.8-14.21L54.42.75a1.4,1.4,0,0,1,1.28,2.5L45.63,8.42l-3.48,13A1.41,1.41,0,0,1,40.79,22.47Z" fill="#402e21"/><rect x="31.98" y="41.5" width="15.32" height="15.32" rx="6.18" ry="6.18" transform="translate(-19.27 26.4) rotate(-30)" fill="#ffd54b"/></svg>