<svg id="Layer_1" data-name="Layer 1" xmlns="http://www.w3.org/2000/svg" xmlns:xlink="http://www.w3.org/1999/xlink" viewBox="0 0 80 86"><defs><style>.cls-1{fill:none;}.cls-2{clip-path:url(#clip-path);}.cls-3{fill:#fee4d2;}.cls-4{fill:#fff;}.cls-5{fill:#d0593f;}.cls-6{fill:#402e21;}.cls-7{fill:#ffd54b;}</style><clipPath id="clip-path"><path class="cls-1" d="M79.51-14.76H.49S.57,44.79.57,46.14a39.47,39.47,0,1,0,78.93,0Z"/></clipPath></defs><title>beverage</title><g class="cls-2"><circle class="cls-3" cx="39.96" cy="46.14" r="39.47"/><rect class="cls-4" x="21.44" y="26.93" width="39.7" height="5.7"/><path class="cls-5" d="M59.89,39.56a2.83,2.83,0,0,0-2.85-3H27.27a2.8,2.8,0,0,0-2.82,3l3,51.17a3.23,3.23,0,0,0,3.18,3H54.13a3.2,3.2,0,0,0,3.15-3Z"/><path class="cls-6" d="M58.57,34.19H21.43a4.7,4.7,0,0,1-4.69-4.69V27.62a4.7,4.7,0,0,1,4.69-4.69H58.57a4.7,4.7,0,0,1,4.69,4.69v1.88A4.7,4.7,0,0,1,58.57,34.19ZM21.43,26.05a1.57,1.57,0,0,0-1.56,1.56v1.88a1.57,1.57,0,0,0,1.56,1.56H58.57a1.57,1.57,0,0,0,1.56-1.56V27.62a1.57,1.57,0,0,0-1.56-1.56Z"/><path class="cls-6" d="M54.19,95.28H26.25a4.93,4.93,0,0,1-4.86-4.6l-3-54.85a4.5,4.5,0,0,1,4.52-4.77H57.1a4.53,4.53,0,0,1,4.54,4.76L59,90.67A4.9,4.9,0,0,1,54.19,95.28ZM22.9,34.19a1.37,1.37,0,0,0-1.4,1.47l3,54.85a1.78,1.78,0,0,0,1.74,1.65H54.19a1.76,1.76,0,0,0,1.72-1.64l2.61-54.85a1.4,1.4,0,0,0-1.42-1.49Z"/><path class="cls-6" d="M40.88,25a1.59,1.59,0,0,1-.41-.05A1.56,1.56,0,0,1,39.37,23L43.6,7.16,56.07.76A1.56,1.56,0,0,1,57.5,3.55L46.27,9.31,42.39,23.8A1.57,1.57,0,0,1,40.88,25Z"/><rect class="cls-7" x="31.06" y="46.16" width="17.06" height="17.06" rx="6.18" ry="6.18" transform="translate(-22.04 27.12) rotate(-30)"/></g></svg>