<svg id="Layer_1" data-name="Layer 1" xmlns="http://www.w3.org/2000/svg" xmlns:xlink="http://www.w3.org/1999/xlink" viewBox="0 0 80 86"><defs><clipPath id="clip-path"><path d="M79.51-14.76H.49S.57,44.79.57,46.14a39.47,39.47,0,1,0,78.93,0Z" fill="none"/></clipPath></defs><title>burger</title><g clip-path="url(#clip-path)"><circle cx="39.96" cy="46.14" r="39.47" fill="#fee4d2"/><path d="M40,27.14a1.57,1.57,0,1,0-1.11-.46A1.58,1.58,0,0,0,40,27.14Z" fill="#402e21"/><path d="M53.13,31.48A1.57,1.57,0,1,0,52,31,1.58,1.58,0,0,0,53.13,31.48Z" fill="#402e21"/><path d="M26.87,31.48A1.57,1.57,0,1,0,25.75,31,1.58,1.58,0,0,0,26.87,31.48Z" fill="#402e21"/><path d="M67,44H16.11a1.35,1.35,0,0,0,0,2.69H67A1.35,1.35,0,0,0,67,44Z" fill="#ef8926"/><path d="M59.76,52l.75-.41Z" fill="#d0593f"/><path d="M61.23,51.2c.6-.29,1.47-.67,2.91-1.24A26.08,26.08,0,0,0,61.23,51.2Z" fill="#d0593f"/><path d="M68.37,53.68a2.79,2.79,0,0,0,.08-.29A2.86,2.86,0,0,1,68.37,53.68Z" fill="#d0593f"/><path d="M65.63,52.09h-6c-2,.9-3.77,2.69-5.35,3.58H65.63a2.84,2.84,0,0,0,2.67-1.8A2.85,2.85,0,0,0,65.63,52.09Z" fill="#d0593f"/><path d="M12.05,54.53l-.12-.19Z" fill="#d0593f"/><path d="M11.78,54.07l-.09-.19Z" fill="#d0593f"/><path d="M12.24,54.75l.16.17Z" fill="#d0593f"/><path d="M11.59,53.55c0-.06,0-.11,0-.17S11.58,53.49,11.59,53.55Z" fill="#d0593f"/><path d="M13.46,55.56l-.33-.13Z" fill="#d0593f"/><path d="M12.8,55.24l-.19-.14Z" fill="#d0593f"/><path d="M28.24,51.56,27,51.15Z" fill="#d0593f"/><path d="M29.64,52s0,.05,0,.05H16.46a2.87,2.87,0,0,0-2.88,2.86,2.61,2.61,0,0,0,.09.66,2.84,2.84,0,0,0,.69.06H38.2A40.81,40.81,0,0,0,29.64,52Z" fill="#d0593f"/><path d="M57.52,50.16l-21.29-.54A52.91,52.91,0,0,1,49,56.82,50.52,50.52,0,0,1,57.52,50.16Z" fill="#ffd54b"/><path d="M47,58.11l.32-.33Z" fill="#ffd54b"/><path d="M67.22,27.07q-.45-.45-.94-.88Q66.77,26.62,67.22,27.07Z" fill="#ffd54b"/><path d="M65.25,25.34q.43.34.83.68Q65.68,25.68,65.25,25.34Z" fill="#ffd54b"/><path d="M64.09,24.49l.81.59Z" fill="#ffd54b"/><path d="M67.38,27.24q.36.37.69.74Q67.74,27.61,67.38,27.24Z" fill="#ffd54b"/><path d="M69,29.19a14,14,0,0,1,1.19,2A14,14,0,0,0,69,29.19Z" fill="#ffd54b"/><path d="M8.6,36.71a5,5,0,0,1,0-.58A5,5,0,0,0,8.6,36.71Z" fill="#ffd54b"/><path d="M68.29,28.24q.31.37.59.74Q68.59,28.61,68.29,28.24Z" fill="#ffd54b"/><path d="M62.53,23.48c.42.25.82.51,1.21.77C63.35,24,62.95,23.73,62.53,23.48Z" fill="#ffd54b"/><path d="M9.93,39.56l.29.28Z" fill="#ffd54b"/><path d="M10.74,40.26a5,5,0,0,1-.41-.31A5,5,0,0,0,10.74,40.26Z" fill="#ffd54b"/><path d="M9.81,39.43l-.26-.32Z" fill="#ffd54b"/><path d="M70.25,31.22a23,23,0,0,0-5.63-4.6C58.63,23,50.63,21,42.1,21s-16.54,2-22.53,5.58c-5.74,3.44-8.9,7.94-8.9,12.65a6,6,0,0,0,.1,1.1,5.08,5.08,0,0,0,2.83,1H66.4a5.11,5.11,0,0,0,5-5.12A11.5,11.5,0,0,0,70.25,31.22ZM28,31a1.57,1.57,0,1,1,.46-1.11A1.58,1.58,0,0,1,28,31Zm13.13-4.34a1.57,1.57,0,1,1,.46-1.11A1.58,1.58,0,0,1,41.11,26.68ZM54.25,31a1.57,1.57,0,1,1,.46-1.11A1.58,1.58,0,0,1,54.25,31Z" fill="#ffd54b"/><path d="M9.16,38.49A5,5,0,0,1,8.94,38,5,5,0,0,0,9.16,38.49Z" fill="#ffd54b"/><path d="M8.88,37.85c0-.12-.09-.25-.12-.37C8.79,37.6,8.83,37.73,8.88,37.85Z" fill="#ffd54b"/><path d="M9.47,39a5,5,0,0,1-.29-.47A5,5,0,0,0,9.47,39Z" fill="#ffd54b"/><path d="M8.71,37.28c0-.13-.05-.26-.07-.39C8.65,37,8.68,37.16,8.71,37.28Z" fill="#ffd54b"/><path d="M67.87,58.35H50.71c-1.57,2.69-2.5,2.79-2.53,2.82a1.82,1.82,0,0,1-1.2.76h0a1.79,1.79,0,0,1-1.21-.81c-.7-.9-1.59-1-2.61-2.77H14.22c-3.31,0-3.56,1.14-3.56,2.55,0,2.42,1.6,4.61,3.56,4.61H67.87c2,0,3.56-2.19,3.56-4.61C71.43,59.5,71.18,58.35,67.87,58.35Z" fill="#ffd54b"/><path d="M70.74,56A6,6,0,0,0,70,48.73a4.38,4.38,0,0,0,.61-5.6,8.18,8.18,0,0,0,3.95-7c0-5.86-3.7-11.31-10.43-15.35-6.47-3.88-15-6-24.15-6s-17.67,2.14-24.15,6c-6.73,4-10.43,9.49-10.43,15.35a8.18,8.18,0,0,0,3.95,7,4.38,4.38,0,0,0,.61,5.6A6,6,0,0,0,9.26,56c-1.88.49-3.83,1.77-3.83,5.18,0,4.15,3,7.53,6.7,7.53H67.87c3.7,0,6.7-3.38,6.7-7.53C74.58,57.78,72.62,56.5,70.74,56Zm-2.87,9.57H12.13c-2,0-3.56-2-3.56-4.39,0-1.41.25-2.33,3.56-2.33h31a15.55,15.55,0,0,1,2.61,2.57A1.57,1.57,0,0,0,47,62h0a1.57,1.57,0,0,0,1.2-.55s1-1.11,2.53-2.62H67.87c3.31,0,3.56.92,3.56,2.33C71.43,63.61,69.84,65.58,67.87,65.58Zm-20.34-8-.52.54-.56-.54C43,54.32,37.69,51.76,33.09,50H57A51.19,51.19,0,0,0,47.53,57.57Zm18.1-1.86H54.29A34.89,34.89,0,0,1,64.15,50h1.49a2.88,2.88,0,1,1,0,5.75ZM67,46.82H13a1.26,1.26,0,1,1,0-2.52H67a1.26,1.26,0,0,1,0,2.52ZM14.37,50H23A78.31,78.31,0,0,1,38.2,55.72H14.37a2.88,2.88,0,1,1,0-5.75ZM8.57,36.13c0-4.72,3.16-9.21,8.9-12.65,6-3.6,14-5.58,22.53-5.58s16.54,2,22.53,5.58c5.74,3.44,8.9,7.94,8.9,12.65a5,5,0,0,1-5,5H13.6A5,5,0,0,1,8.57,36.13Z" fill="#402e21"/></g></svg>