<svg id="Layer_1" data-name="Layer 1" xmlns="http://www.w3.org/2000/svg" xmlns:xlink="http://www.w3.org/1999/xlink" viewBox="0 0 80 86"><defs><style>.cls-1{fill:none;}.cls-2{clip-path:url(#clip-path);}.cls-3{fill:#fee4d2;}.cls-4{fill:#ffd54b;}.cls-5{fill:#ef8926;}.cls-6{fill:#402e21;}</style><clipPath id="clip-path"><path class="cls-1" d="M79.51-14.76H.49S.57,44.79.57,46.14a39.47,39.47,0,1,0,78.93,0Z"/></clipPath></defs><title>chicken</title><g class="cls-2"><circle class="cls-3" cx="39.96" cy="46.14" r="39.47"/><path class="cls-4" d="M34.63,67.41a1.76,1.76,0,0,1-.76-2.24L38.74,54l-4.31-1.89L29.55,63.27a1.76,1.76,0,0,1-2.17,1,3.6,3.6,0,1,0,0,6.82,1.76,1.76,0,0,1,2.18,1,3.59,3.59,0,0,0,1.85,1.85h0a3.6,3.6,0,0,0,3.18-6.46Z"/><path class="cls-5" d="M55.39,2.31A20.47,20.47,0,0,0,38.18,5.78,20.47,20.47,0,0,1,55.39,2.31Z"/><path class="cls-5" d="M32.92,47.66c.44-6.13-2.66-16.92-3.07-18.33a22.11,22.11,0,0,1,.8-13.68,22.1,22.1,0,0,0-.8,13.68c.41,1.41,3.52,12.2,3.07,18.33Z"/><path class="cls-5" d="M34.41,9.31q.68-.8,1.42-1.53Q35.09,8.51,34.41,9.31Z"/><path class="cls-5" d="M35.83,7.78q.74-.73,1.54-1.37Q36.57,7.06,35.83,7.78Z"/><path class="cls-5" d="M61.07,4.77c-.36-.23-.74-.44-1.12-.65C60.33,4.32,60.71,4.54,61.07,4.77Z"/><path class="cls-5" d="M63.46,6.55c-.33-.29-.68-.56-1-.83C62.79,6,63.13,6.26,63.46,6.55Z"/><path class="cls-5" d="M64.47,7.5c-.32-.33-.66-.64-1-.94C63.81,6.86,64.15,7.18,64.47,7.5Z"/><path class="cls-5" d="M69.14,14.9a20.66,20.66,0,0,0-2.63-5c.27.38.53.76.78,1.16a19.18,19.18,0,0,0-2.53-1.83,19.55,19.55,0,0,0-4-2.19l-.11,0c-10.32-4.52-22.51.47-27.27,11.3a21.56,21.56,0,0,0-1.08,14.36A152.61,152.61,0,0,1,35,49.3l7.73,3.39c3.89-3.75,14.61-10.2,15.92-10.85a22,22,0,0,0,9.89-10.66A21.72,21.72,0,0,0,69.14,14.9ZM58.52,18.7a1.75,1.75,0,1,1,1-.93A1.76,1.76,0,0,1,58.52,18.7ZM62.63,13a1.76,1.76,0,1,1,1-.93A1.77,1.77,0,0,1,62.63,13Zm2.77,7.1a1.76,1.76,0,1,1,1-.93A1.77,1.77,0,0,1,65.4,20.11Z"/><path class="cls-5" d="M64.63,7.66a19.77,19.77,0,0,1,1.79,2.12A19.74,19.74,0,0,0,64.63,7.66Z"/><path class="cls-5" d="M61.1,4.79c.38.24.75.5,1.11.76C61.84,5.28,61.48,5,61.1,4.79Z"/><path class="cls-5" d="M59.66,4c-.4-.21-.8-.4-1.21-.59C58.86,3.56,59.26,3.75,59.66,4Z"/><path class="cls-6" d="M62.69,9.77a1.75,1.75,0,1,0,.93,1A1.77,1.77,0,0,0,62.69,9.77Z"/><path class="cls-6" d="M65.47,16.87a1.75,1.75,0,1,0,.93,1A1.78,1.78,0,0,0,65.47,16.87Z"/><path class="cls-6" d="M58.59,15.46a1.76,1.76,0,1,0,.93,1A1.77,1.77,0,0,0,58.59,15.46Z"/><path class="cls-6" d="M72.44,13.69A23.3,23.3,0,0,0,59.86.16l-.11,0c-12.09-5.3-26.43.65-32,13.26a25.66,25.66,0,0,0-1.33,16.89v0c1.07,3.63,3.67,14,2.82,18.08a1.76,1.76,0,0,0,1,2l.91.4-4.3,9.81a7.12,7.12,0,1,0,.2,14.15A7.09,7.09,0,0,0,30,77.08h0a7.12,7.12,0,0,0,7.62-11.81L42,55.46l.91.4A1.75,1.75,0,0,0,45,55.27c2.46-3.42,11.81-8.51,15.21-10.18l0,0A25.66,25.66,0,0,0,71.76,32.65,25.37,25.37,0,0,0,72.44,13.69ZM58.63,42c-1.31.65-11.35,5.68-15.56,10.16L32.92,47.66c.44-6.13-2.66-16.92-3.07-18.33A22.14,22.14,0,0,1,31,14.78C35.76,3.94,48-1.2,58.34,3.33l.11,0A19.82,19.82,0,0,1,69.14,14.9a21.87,21.87,0,0,1-.6,16.34A22.14,22.14,0,0,1,58.63,42ZM31.45,73.86h0A3.59,3.59,0,0,1,29.59,72a1.76,1.76,0,0,0-2.18-1,3.6,3.6,0,1,1,0-6.82,1.76,1.76,0,0,0,2.17-1l4.87-11.12L38.74,54,33.87,65.16a1.76,1.76,0,0,0,.76,2.24,3.6,3.6,0,0,1-3.18,6.46Z"/></g></svg>