<svg id="Layer_1" data-name="Layer 1" xmlns="http://www.w3.org/2000/svg" viewBox="0 0 80 86"><title>chicken</title><circle cx="39.96" cy="46.14" r="39.47" fill="#fee4d2"/><path d="M28,74.58a1.87,1.87,0,0,1-.81-2.39l5.19-11.85-4.6-2L22.56,70.18a1.87,1.87,0,0,1-2.31,1,3.84,3.84,0,1,0,0,7.27,1.87,1.87,0,0,1,2.32,1,3.83,3.83,0,0,0,2,2h0A3.84,3.84,0,0,0,28,74.58Z" fill="#ffd54b"/><path d="M50.1,5.2A21.82,21.82,0,0,0,31.76,8.91,21.82,21.82,0,0,1,50.1,5.2Z" fill="#ef8926"/><path d="M26.15,53.54c.47-6.54-2.83-18-3.28-19.53a23.56,23.56,0,0,1,.85-14.58A23.56,23.56,0,0,0,22.87,34c.44,1.5,3.75,13,3.28,19.53Z" fill="#ef8926"/><path d="M27.74,12.66q.72-.86,1.52-1.63Q28.46,11.81,27.74,12.66Z" fill="#ef8926"/><path d="M29.25,11q.79-.77,1.64-1.46Q30,10.26,29.25,11Z" fill="#ef8926"/><path d="M56.15,7.82c-.39-.25-.79-.47-1.19-.69C55.37,7.35,55.76,7.58,56.15,7.82Z" fill="#ef8926"/><path d="M58.7,9.72c-.35-.31-.72-.6-1.1-.88C58,9.12,58.35,9.41,58.7,9.72Z" fill="#ef8926"/><path d="M59.78,10.74c-.35-.35-.7-.69-1.07-1C59.08,10.05,59.43,10.39,59.78,10.74Z" fill="#ef8926"/><path d="M64.76,18.62A22,22,0,0,0,62,13.31c.29.4.57.81.83,1.24a20.44,20.44,0,0,0-2.7-2,20.83,20.83,0,0,0-4.31-2.33l-.12-.05c-11-4.82-24,.5-29.06,12a23,23,0,0,0-1.15,15.31A162.65,162.65,0,0,1,28.4,55.28l8.24,3.61c4.15-4,15.57-10.88,17-11.57A23.4,23.4,0,0,0,64.15,36,23.15,23.15,0,0,0,64.76,18.62ZM53.44,22.68a1.87,1.87,0,1,1,1-1A1.88,1.88,0,0,1,53.44,22.68Zm4.37-6.07a1.88,1.88,0,1,1,1-1A1.89,1.89,0,0,1,57.81,16.61Zm3,7.57a1.87,1.87,0,1,1,1-1A1.88,1.88,0,0,1,60.77,24.18Z" fill="#ef8926"/><path d="M59.94,10.9a21.07,21.07,0,0,1,1.91,2.26A21,21,0,0,0,59.94,10.9Z" fill="#ef8926"/><path d="M56.18,7.84c.4.26.8.53,1.18.81C57,8.37,56.59,8.1,56.18,7.84Z" fill="#ef8926"/><path d="M54.65,7c-.42-.22-.85-.43-1.29-.62C53.8,6.53,54.22,6.74,54.65,7Z" fill="#ef8926"/><path d="M57.88,13.15a1.86,1.86,0,1,0,1,1A1.89,1.89,0,0,0,57.88,13.15Z" fill="#402e21"/><path d="M60.84,20.72a1.87,1.87,0,1,0,1,1A1.89,1.89,0,0,0,60.84,20.72Z" fill="#402e21"/><path d="M53.51,19.22a1.87,1.87,0,1,0,1,1A1.88,1.88,0,0,0,53.51,19.22Z" fill="#402e21"/><path d="M68.27,17.34A24.83,24.83,0,0,0,54.86,2.91l-.12-.05C41.86-2.79,26.58,3.55,20.68,17a27.35,27.35,0,0,0-1.42,18v0c1.14,3.87,3.91,14.87,3,19.27a1.87,1.87,0,0,0,1.08,2.09l1,.42L19.75,67.29A7.58,7.58,0,1,0,20,82.37a7.56,7.56,0,0,0,3.12,2.52h0a7.59,7.59,0,0,0,8.12-12.59l4.58-10.46,1,.42A1.87,1.87,0,0,0,39,61.65C41.64,58,51.61,52.58,55.23,50.8l0,0A27.35,27.35,0,0,0,67.55,37.53,27,27,0,0,0,68.27,17.34ZM53.55,47.45c-1.4.69-12.1,6.05-16.59,10.83L26.15,53.54c.47-6.54-2.83-18-3.28-19.53a23.6,23.6,0,0,1,1.24-15.51c5.06-11.55,18.13-17,29.13-12.21l.12.05a21.12,21.12,0,0,1,11.4,12.28A23.31,23.31,0,0,1,64.12,36,23.6,23.6,0,0,1,53.55,47.45Zm-29,34h0a3.83,3.83,0,0,1-2-2,1.87,1.87,0,0,0-2.32-1,3.84,3.84,0,1,1,0-7.27,1.87,1.87,0,0,0,2.31-1l5.19-11.85,4.6,2L27.16,72.19A1.87,1.87,0,0,0,28,74.58a3.84,3.84,0,0,1-3.39,6.88Z" fill="#402e21"/></svg>