<svg id="Layer_1" data-name="Layer 1" xmlns="http://www.w3.org/2000/svg" viewBox="0 0 104.42 104.42"><title>cubs</title><path d="M.13,52.21a52.08,52.08,0,1,1,52.08,52.08A52.08,52.08,0,0,1,.13,52.21Z" fill="#fff" fill-rule="evenodd"/><path d="M0,52.21A52.21,52.21,0,0,1,52.21,0h0a52.21,52.21,0,0,1,52.21,52.21h0a52.21,52.21,0,0,1-52.21,52.21h0A52.21,52.21,0,0,1,0,52.21Zm.26,0A51.78,51.78,0,0,0,15.48,88.94h0a51.79,51.79,0,0,0,36.73,15.22h0A51.79,51.79,0,0,0,88.95,88.94h0a51.8,51.8,0,0,0,15.21-36.73h0A51.79,51.79,0,0,0,88.95,15.48h0A51.79,51.79,0,0,0,52.21.26h0A51.78,51.78,0,0,0,15.48,15.48h0A51.78,51.78,0,0,0,.26,52.21Z" fill="#fff" fill-rule="evenodd"/><path d="M54.35,60.59V43.91h8.94c3.36,0,4.8.8,4.8,4.7,0,2-.39,3.12-1.56,3.7,1.56.88,1.56,2.53,1.56,4,0,3.7-1.64,4.29-4.8,4.29Z" fill="#e73538" fill-rule="evenodd"/><path d="M3.6,52.21a48.61,48.61,0,1,1,48.61,48.61A48.61,48.61,0,0,1,3.6,52.21ZM52.21,88.12A35.91,35.91,0,1,0,16.3,52.21,35.91,35.91,0,0,0,52.21,88.12Z" fill="#0072b3" fill-rule="evenodd"/><path d="M68,62.36a18.78,18.78,0,1,1,.3-19.81l9.24-9a31.49,31.49,0,1,0-.19,37.6L68,62.36Z" fill="#e73538" fill-rule="evenodd"/><path d="M46.66,55.33V43.91h5.65V55.47c0,4.15-1,5.13-4.27,5.13H42.16c-2.71,0-3.59-1.75-3.59-5.42V43.91h5.65V55.33a1.22,1.22,0,0,0,2.44,0Z" fill="#e73538" fill-rule="evenodd"/><path d="M62.71,48.46c0-.68-.66-.64-2.41-.64v2.34c1,0,2.41.1,2.41-.78v-.92Z" fill="#fff" fill-rule="evenodd"/><path d="M62.66,55.25c-.3-.8-.47-.7-2.37-.7v2.34c1.22,0,2.37.1,2.37-.78a4.18,4.18,0,0,0,0-.86Z" fill="#fff" fill-rule="evenodd"/><path d="M79.38,60.59c3,0,4.62-.83,4.62-3.52,0-.33,0-3.4,0-3.74a3.11,3.11,0,0,0-3.35-3.22H76.56c-1.1,0-.86-1.61-.86-2.1,0-.78,2.3-1,2.3.24V49h6c0-3.9-.7-5.13-4.62-5.13-.91,0-4.24,0-5.27,0-2.51,0-3.88,1-4,3.9a20.05,20.05,0,0,0,0,2.73c0,1.07-.17,3.46,3.11,3.46H77.4c1.17,0,.94,1.36.94,1.36v.88c0,1-2,1-2.42.21a2.5,2.5,0,0,1-.14-1.38H70.14c0,1.17-.63,5.51,2.77,5.51Z" fill="#e73538" fill-rule="evenodd"/><path d="M76.82,63.69h-1v2.64H75.2V63.69h-1v-.57h2.59v.57Zm4.39,2.64h-.66V63.78h0l-.93,2.55H79l-.9-2.55h0v2.55H77.4V63.12h1.13l.75,2.09h0l.78-2.09H81.2v3.21Z" fill="#0072b3" fill-rule="evenodd"/></svg>