<svg id="Layer_1" data-name="Layer 1" xmlns="http://www.w3.org/2000/svg" xmlns:xlink="http://www.w3.org/1999/xlink" viewBox="0 0 80 86"><defs><clipPath id="clip-path"><path d="M79.51-14.76H.49S.57,44.79.57,46.14a39.47,39.47,0,1,0,78.93,0Z" fill="none"/></clipPath><clipPath id="clip-path-2"><rect x="12.89" y="0.25" width="57.51" height="95.13" fill="none"/></clipPath></defs><title>dessert</title><g clip-path="url(#clip-path)"><circle cx="39.96" cy="46.14" r="39.47" fill="#fee4d2"/><path d="M51.67,88.69H31.91L28.16,55.54H55.42Zm4.15,0" fill="#e56a77"/><g clip-path="url(#clip-path-2)"><path d="M61.15,40.66c2-1.46,1.62-3.15,1.62-5.86,0-4.47-4-8.75-8.43-8.75,0,0,2.43-19-11.89-21.34,0,0,5.16,6.33.94,12s-18.37.49-18.31,16l0,0a8,8,0,0,0-3.21,13.69,8,8,0,0,0-.78,3.42c0,4.46,2.56,5.71,7,5.71,2.6,0,5.94,1.12,7.42-.78,2,1.92,5.17.63,8.73.63s6.61,1.33,8.63-.53c1.48,1.84,3.07-.28,5.62-.28,4.47,0,4.05-2.4,4.05-6.86,0-2.72,3.34-3,1.3-4.46Zm2.76,2.6" fill="#eec951"/></g><path d="M65.26,34.45a10.27,10.27,0,0,0-8-10C57.45,16.15,53.83,2.77,38.6.33a2.16,2.16,0,0,0-2,3.5s4.05,5.07.88,9.29c-1,1.36-3.38,1.92-5.88,2.51C26.36,16.87,19.31,18.53,18.75,29a10.17,10.17,0,0,0-3.54,15.67,9.88,9.88,0,0,0-.44,2.93A10.27,10.27,0,0,0,22,57.37l3.56,31.48a2.17,2.17,0,0,0,2.15,1.92h23.9a2.16,2.16,0,0,0,2.15-1.92L57.3,57.56A10.22,10.22,0,0,0,62.86,41,10.2,10.2,0,0,0,65.26,34.45Zm-15.57,52h-20L26.4,57.72l.64-.11H37.47a16.55,16.55,0,0,0,5.27,0h10.2Zm8.76-43.67a5.86,5.86,0,0,1,2.49,4.81A5.93,5.93,0,0,1,56,53.41a2.17,2.17,0,0,0-.65-.11H53.53a6,6,0,0,1-3.11-2,2.15,2.15,0,0,0-1.52-.8h-.16a2.18,2.18,0,0,0-1.46.57,9.78,9.78,0,0,1-4.9,2.27H37.88a9.87,9.87,0,0,1-5-2.35,2.16,2.16,0,0,0-3.2.24,6,6,0,0,1-3.16,2.11H24a2.18,2.18,0,0,0-.33,0,5.92,5.92,0,0,1-4.54-5.75,5.84,5.84,0,0,1,.58-2.51,2.16,2.16,0,0,0-.5-2.51,5.85,5.85,0,0,1-2-4.36,5.94,5.94,0,0,1,4.31-5.67,2.17,2.17,0,0,0,1.54-2,2.25,2.25,0,0,0,0-.43c.06-8.08,4.25-9.06,9.54-10.32,3.14-.75,6.39-1.51,8.35-4.12a10.67,10.67,0,0,0,1.49-9.87c11.87,4.9,10.52,19.61,10.45,20.3a2.12,2.12,0,0,0,.54,1.68,2.15,2.15,0,0,0,1.61.72,5.91,5.91,0,0,1,3.43,10.73,2.15,2.15,0,0,0-.9,1.75A2.18,2.18,0,0,0,58.45,42.77Z"/><path d="M44.46,79.52a1.89,1.89,0,0,1-.39,0A2.16,2.16,0,0,1,42.34,77L45,62.85a2.16,2.16,0,1,1,4.25.8l-2.63,14.1a2.17,2.17,0,0,1-2.13,1.77Zm0,0"/><path d="M35.15,83.39a2.36,2.36,0,0,1-.49-.06,2.16,2.16,0,0,1-1.61-2.6l2.63-11.24a2.16,2.16,0,1,1,4.21,1L37.26,81.71a2.16,2.16,0,0,1-2.1,1.68Zm0,0"/><path d="M47.09,32.9a2.16,2.16,0,0,1-1.47-3.74c1.71-1.6.69-6.95-.54-10.06a2.16,2.16,0,0,1,4-1.59c.42,1.07,4,10.58-.54,14.81a2.17,2.17,0,0,1-1.48.58Zm0,0"/><path d="M32.06,47.72c-4.69,0-7.78-1.29-9.2-3.84-2.19-3.92.79-8.76,1.13-9.3a2.16,2.16,0,1,1,3.64,2.33c-.64,1-1.73,3.55-1,4.86.61,1.08,2.71,1.65,5.83,1.61a2.16,2.16,0,1,1,.08,4.33Zm0,0"/></g></svg>