<svg id="Layer_1" data-name="Layer 1" xmlns="http://www.w3.org/2000/svg" viewBox="0 0 80 86"><title>dessert</title><circle cx="39.96" cy="46.14" r="39.47" fill="#fee4d2"/><path d="M51.13,83.64H32.5L29,52.39h25.7Zm3.91,0" fill="#e56a77"/><path d="M60.07,38.35c1.93-1.38,1.53-3,1.53-5.52,0-4.22-3.73-8.25-7.95-8.25,0,0,2.29-17.88-11.21-20.12,0,0,4.87,6,.88,11.27S26,16.19,26.06,30.84l0,0a7.56,7.56,0,0,0-3,12.91A7.58,7.58,0,0,0,22.33,47c0,4.21,2.42,5.39,6.63,5.39,2.45,0,5.6,1.06,7-.74,1.9,1.81,4.88.59,8.23.59s6.23,1.25,8.14-.5c1.39,1.74,2.9-.26,5.3-.26,4.21,0,3.82-2.26,3.82-6.47,0-2.56,3.15-2.82,1.22-4.21Zm2.6,2.46" fill="#eec951"/><path d="M63.95,32.5a9.68,9.68,0,0,0-7.51-9.42C56.58,15.24,53.17,2.62,38.81.32a2,2,0,0,0-1.91,3.3s3.82,4.78.83,8.76c-1,1.28-3.19,1.81-5.55,2.37-4.92,1.17-11.57,2.74-12.1,12.59a9.59,9.59,0,0,0-3.34,14.78,9.32,9.32,0,0,0-.42,2.76,9.69,9.69,0,0,0,6.82,9.23l3.36,29.68a2,2,0,0,0,2,1.81H51.08a2,2,0,0,0,2-1.81l3.34-29.5a9.64,9.64,0,0,0,5.24-15.6A9.61,9.61,0,0,0,63.95,32.5Zm-14.69,49H30.36L27.3,54.44l.61-.1h9.84a15.61,15.61,0,0,0,5,0h9.62Zm8.26-41.18a5.52,5.52,0,0,1,2.35,4.53,5.59,5.59,0,0,1-4.64,5.49,2,2,0,0,0-.61-.11H52.88A5.64,5.64,0,0,1,50,48.35a2,2,0,0,0-1.43-.76h-.15a2.05,2.05,0,0,0-1.38.54,9.22,9.22,0,0,1-4.62,2.14H38.13A9.31,9.31,0,0,1,33.4,48a2,2,0,0,0-3,.23,5.62,5.62,0,0,1-3,2H25a2.05,2.05,0,0,0-.31,0,5.58,5.58,0,0,1-4.28-5.42A5.5,5.5,0,0,1,21,42.51a2,2,0,0,0-.47-2.37A5.52,5.52,0,0,1,18.64,36,5.6,5.6,0,0,1,22.7,30.7a2,2,0,0,0,1.45-1.85,2.12,2.12,0,0,0,0-.4c.06-7.62,4-8.55,9-9.73,3-.7,6-1.43,7.87-3.89a10.06,10.06,0,0,0,1.41-9.31C53.6,10.14,52.33,24,52.26,24.66a2,2,0,0,0,.51,1.58,2,2,0,0,0,1.51.68A5.57,5.57,0,0,1,57.52,37a2,2,0,0,0-.85,1.65A2.06,2.06,0,0,0,57.52,40.35Z"/><path d="M44.34,75A1.78,1.78,0,0,1,44,75a2,2,0,0,1-1.63-2.38l2.48-13.3a2,2,0,1,1,4,.75l-2.48,13.3a2,2,0,0,1-2,1.66Zm0,0"/><path d="M35.56,78.64a2.22,2.22,0,0,1-.46-.05,2,2,0,0,1-1.52-2.45l2.48-10.6a2,2,0,1,1,4,.93L37.54,77.06a2,2,0,0,1-2,1.58Zm0,0"/><path d="M46.81,31a2,2,0,0,1-1.39-3.53C47,26,46.08,21,44.92,18a2,2,0,0,1,3.79-1.5c.4,1,3.77,10-.5,14a2.05,2.05,0,0,1-1.39.55Zm0,0"/><path d="M32.65,45c-4.42,0-7.33-1.21-8.67-3.62-2.06-3.7.74-8.26,1.07-8.77a2,2,0,1,1,3.43,2.2c-.6,1-1.63,3.35-.94,4.59.57,1,2.56,1.55,5.49,1.52A2,2,0,1,1,33.1,45Zm0,0"/></svg>