<svg id="Layer_1" data-name="Layer 1" xmlns="http://www.w3.org/2000/svg" xmlns:xlink="http://www.w3.org/1999/xlink" viewBox="0 0 80 86"><defs><style>.cls-1{fill:none;}.cls-2{clip-path:url(#clip-path);}.cls-3{fill:#fee4d2;}.cls-4{fill:#d0593f;}.cls-5{fill:#ffd54b;}.cls-6{fill:#402e21;}.cls-7{fill:#ef8926;}</style><clipPath id="clip-path"><path class="cls-1" d="M79.51-14.76H.49S.57,44.79.57,46.14a39.47,39.47,0,1,0,78.93,0Z"/></clipPath></defs><title>fried</title><g class="cls-2"><circle class="cls-3" cx="40" cy="46.14" r="39.47"/><polygon class="cls-4" points="13.95 31.54 13.94 31.54 15.22 37.77 13.95 31.54"/><path class="cls-4" d="M56.26,34.54c-3,4-9.19,6.75-16.19,6.75-8,0-16.41-6.75-16-6.75H17.45l7.32,36H58.12l7.37-36ZM50.16,63a17.69,17.69,0,0,1-10.08,3A17.69,17.69,0,0,1,30,63c-2.91-2-4.51-4.8-4.51-7.79s1.6-5.76,4.51-7.79a17.69,17.69,0,0,1,10.08-3,17.69,17.69,0,0,1,10.08,3c2.91,2,4.51,4.8,4.51,7.79S53.06,61,50.16,63Z"/><path class="cls-5" d="M22.29,27.54h1c1.11,0,2.29.76,2.29,1.73s-.34,2.18,1.66,3.2V9.54h-5Z"/><path class="cls-5" d="M49.29-.54V2.54h-3V37c1-.42,3-1,3-1.69V-.54Z"/><path class="cls-5" d="M58.29,7.19v3.34h-6V32.46a4.75,4.75,0,0,0,1.65-3.2c0-1,1.19-1.73,2.26-1.73h2.08V7.19Z"/><path class="cls-5" d="M43.29,11.11v3.43h-6V11.11h0V37.69a29.43,29.43,0,0,0,3,.1c.86,0,2,0,3-.1V11.11Z"/><path class="cls-5" d="M34.29,3V5.54h-4V35.36c1,.69,4,1.27,4,1.69V3Z"/><path class="cls-4" d="M61.13,17.53v9.95h5.65c.14-2,.08-5.59-1.7-7.88A5.55,5.55,0,0,0,61.13,17.53Z"/><path class="cls-6" d="M67.85,17.45A9.1,9.1,0,0,0,61.13,14V5.44a1.76,1.76,0,0,0-1.76-1.76h-6v-6A1.76,1.76,0,0,0,51.65-4H43.93a1.76,1.76,0,0,0-1.76,1.76V7.6H38V1.2A1.76,1.76,0,0,0,36.21-.56H28.49A1.76,1.76,0,0,0,26.74,1.2v2h-6A1.76,1.76,0,0,0,19,4.95V14a9.1,9.1,0,0,0-6.72,3.45C8.77,22,10,29.24,10.07,29.54l8.8,43.24a1.76,1.76,0,0,0,1.72,1.41h39a1.76,1.76,0,0,0,1.72-1.41l8.8-43.24C70.13,29.24,71.37,22,67.85,17.45ZM22,70.68,13.94,31h8.28c1.32,5.74,9,10.31,17.85,10.31S56.6,36.73,57.92,31H66.2L58.12,70.68ZM19,17.53v9.95H13.36c-.15-2.2,0-5.71,1.71-7.87A5.55,5.55,0,0,1,19,17.53ZM22.53,6.7h4.21V32.46a5.35,5.35,0,0,1-1.2-3.22,1.76,1.76,0,0,0-1.76-1.76H22.53ZM57.62,27.48H56.36a1.75,1.75,0,0,0-1.76,1.76,5.35,5.35,0,0,1-1.2,3.22V7.19h4.21ZM45.69-.54H49.9V35.36A18.63,18.63,0,0,1,45.69,37ZM42.18,37.69c-.69.07-1.4.1-2.1.1s-1.41,0-2.1-.1V11.11h4.21ZM30.25,3h4.21V37a18.62,18.62,0,0,1-4.21-1.69ZM66.78,27.48H61.13V17.53a5.55,5.55,0,0,1,3.95,2.07C66.86,21.89,66.91,25.49,66.78,27.48Z"/><path class="cls-6" d="M50.16,47.46a17.69,17.69,0,0,0-10.08-2.95A17.69,17.69,0,0,0,30,47.46c-2.91,2-4.51,4.8-4.51,7.79S27.08,61,30,63A17.69,17.69,0,0,0,40.07,66,17.69,17.69,0,0,0,50.16,63c2.91-2,4.51-4.8,4.51-7.79S53.06,49.5,50.16,47.46Zm-10.08,15c-6,0-11.08-3.31-11.08-7.23S34.06,48,40.07,48s11.08,3.31,11.08,7.23S46.08,62.49,40.07,62.49Z"/><polygon class="cls-4" points="57.92 30.99 57.92 30.99 57.92 30.99 57.92 30.99"/><path class="cls-4" d="M13.89,21.95a15.53,15.53,0,0,0-.56,5.1A15.53,15.53,0,0,1,13.89,21.95Z"/><path class="cls-4" d="M19.29,17.53V21c-3,.7-2.88,5.51-3.09,6.51h3.09v-10Z"/><path class="cls-7" d="M41.08,48.06l.44,0Z"/><path class="cls-7" d="M41.89,48.13c-5.16.6-9.22,3.62-9.22,7.12s4.06,6.52,9.22,7.12c5.18-.59,9.27-3.61,9.27-7.12S47.06,48.72,41.89,48.13Z"/><path class="cls-7" d="M41.52,62.42l-.44,0Z"/></g></svg>