<svg id="Layer_1" data-name="Layer 1" xmlns="http://www.w3.org/2000/svg" viewBox="0 0 80 86"><title>fried</title><circle cx="40" cy="46.14" r="39.47" fill="#fee4d2"/><polygon points="13.7 36.93 13.69 36.93 14.99 43.22 13.7 36.93" fill="#d0593f"/><path d="M56.42,40c-3,4-9.28,6.82-16.35,6.82C32,46.78,23.51,40,23.95,40H17.24l9.66,40.62,28.72,1.93L65.73,40ZM50.25,68.74a17.86,17.86,0,0,1-10.18,3,17.86,17.86,0,0,1-10.18-3c-2.94-2.05-4.55-4.85-4.55-7.87S27,55.06,29.89,53a17.86,17.86,0,0,1,10.18-3,17.86,17.86,0,0,1,10.18,3c2.94,2.05,4.55,4.85,4.55,7.87S53.19,66.68,50.25,68.74Z" fill="#d0593f"/><path d="M22.12,32.89h1.06c1.12,0,2.31.76,2.31,1.74,0,1.13-.34,2.2,1.68,3.23V14.72h-5Z" fill="#ffd54b"/><path d="M49.38,4.55v3.1h-3V42.49c1-.42,3-1,3-1.7V4.55Z" fill="#ffd54b"/><path d="M58.46,12.35v3.38H52.41V37.86a4.8,4.8,0,0,0,1.67-3.23c0-1,1.2-1.74,2.29-1.74h2.1V12.35Z" fill="#ffd54b"/><path d="M43.32,16.31v3.46H37.26V16.31h0V43.14a29.71,29.71,0,0,0,3,.1c.87,0,2,0,3-.1V16.31Z" fill="#ffd54b"/><path d="M34.24,8.07v2.61h-4v30.1c1,.7,4,1.28,4,1.7V8.07Z" fill="#ffd54b"/><path d="M61.33,22.79v10H67c.14-2,.08-5.64-1.72-8A5.6,5.6,0,0,0,61.33,22.79Z" fill="#d0593f"/><path d="M68.11,22.71a9.18,9.18,0,0,0-6.79-3.48V10.58a1.77,1.77,0,0,0-1.77-1.77h-6v-6A1.77,1.77,0,0,0,51.76,1H44A1.77,1.77,0,0,0,42.2,2.78v10H37.95V6.3a1.77,1.77,0,0,0-1.77-1.77H28.38A1.77,1.77,0,0,0,26.61,6.3v2h-6a1.77,1.77,0,0,0-1.77,1.77v9.15A9.19,9.19,0,0,0,12,22.71c-3.56,4.57-2.3,11.89-2.25,12.2l8.89,43.65A1.77,1.77,0,0,0,20.4,80H59.74a1.77,1.77,0,0,0,1.74-1.42l8.89-43.65C70.42,34.61,71.67,27.28,68.11,22.71ZM23.29,83.53l-9.6-47.15h8.36c1.33,5.8,9,10.41,18,10.41s16.69-4.61,18-10.41h8.36L56.7,84.26ZM18.82,22.79v10H13.1c-.15-2.22,0-5.76,1.72-7.95A5.6,5.6,0,0,1,18.82,22.79Zm3.54-10.93h4.25v26a5.4,5.4,0,0,1-1.21-3.25,1.77,1.77,0,0,0-1.77-1.77H22.36Zm35.42,21H56.52a1.77,1.77,0,0,0-1.77,1.77,5.4,5.4,0,0,1-1.21,3.26V12.35h4.25Zm-12-28.28H50V40.79a18.8,18.8,0,0,1-4.25,1.7ZM42.2,43.14c-.7.07-1.41.1-2.12.1s-1.43,0-2.12-.1V16.31H42.2Zm-12-35.06H34.4V42.49a18.79,18.79,0,0,1-4.25-1.7ZM67,32.83H61.33v-10a5.6,5.6,0,0,1,4,2.09C67.12,27.19,67.17,30.82,67,32.83Z" fill="#402e21"/><path d="M50.25,53a17.86,17.86,0,0,0-10.18-3,17.86,17.86,0,0,0-10.18,3c-2.94,2.05-4.55,4.85-4.55,7.87s1.62,5.81,4.55,7.87a17.86,17.86,0,0,0,10.18,3,17.86,17.86,0,0,0,10.18-3c2.94-2.05,4.55-4.85,4.55-7.87S53.19,55.06,50.25,53ZM40.07,68.17c-6.06,0-11.19-3.34-11.19-7.3s5.12-7.3,11.19-7.3,11.19,3.34,11.19,7.3S46.14,68.17,40.07,68.17Z" fill="#402e21"/><polygon points="58.09 36.38 58.09 36.38 58.09 36.38 58.09 36.38" fill="#d0593f"/><path d="M13.64,27.25a15.68,15.68,0,0,0-.57,5.15A15.68,15.68,0,0,1,13.64,27.25Z" fill="#d0593f"/><path d="M19.09,22.79v3.53c-3,.71-2.91,5.56-3.12,6.57h3.12V22.79Z" fill="#d0593f"/><path d="M41.09,53.61l.45,0Z" fill="#ef8926"/><path d="M41.9,53.68c-5.21.6-9.31,3.65-9.31,7.19s4.1,6.59,9.31,7.19c5.23-.59,9.36-3.64,9.36-7.19S47.13,54.27,41.9,53.68Z" fill="#ef8926"/><path d="M41.54,68.1l-.45,0Z" fill="#ef8926"/></svg>