<svg id="Layer_1" data-name="Layer 1" xmlns="http://www.w3.org/2000/svg" xmlns:xlink="http://www.w3.org/1999/xlink" viewBox="0 0 80 86"><defs><clipPath id="clip-path"><path d="M79.51-14.76H.49S.57,44.79.57,46.14a39.47,39.47,0,1,0,78.93,0Z" fill="none"/></clipPath></defs><title>fried</title><g clip-path="url(#clip-path)"><circle cx="40" cy="46.14" r="39.47" fill="#fee4d2"/><polygon points="11.3 40.2 11.29 40.2 12.7 47.07 11.3 40.2" fill="#d0593f"/><path d="M57.91,43.51C54.63,47.92,47.78,51,40.07,51,31.23,51,22,43.51,22.48,43.51H15.15L25.69,95.34,57,97.45l11-53.94ZM51.18,74.92a19.49,19.49,0,0,1-11.11,3.25A19.49,19.49,0,0,1,29,74.92c-3.2-2.24-5-5.29-5-8.58s1.76-6.34,5-8.58A19.49,19.49,0,0,1,40.07,54.5a19.49,19.49,0,0,1,11.11,3.25c3.2,2.24,5,5.29,5,8.58S54.38,72.67,51.18,74.92Z" fill="#d0593f"/><path d="M20.48,35.8h1.15c1.22,0,2.53.83,2.53,1.9,0,1.23-.37,2.41,1.83,3.52V16H20.48Z" fill="#ffd54b"/><path d="M50.23,4.88V8.26h-3.3v38c1.1-.46,3.3-1.09,3.3-1.86V4.88Z" fill="#ffd54b"/><path d="M60.14,13.39v3.68H53.53V41.22a5.23,5.23,0,0,0,1.82-3.52c0-1.07,1.31-1.9,2.49-1.9h2.3V13.39Z" fill="#ffd54b"/><path d="M43.62,17.7v3.78H37V17.7h0V47a32.42,32.42,0,0,0,3.3.11c.94,0,2.2,0,3.3-.11V17.7Z" fill="#ffd54b"/><path d="M33.7,8.72v2.85H29.3V44.41c1.1.76,4.41,1.4,4.41,1.86V8.72Z" fill="#ffd54b"/><path d="M63.26,24.78v11h6.23c.15-2.19.09-6.16-1.88-8.68A6.12,6.12,0,0,0,63.26,24.78Z" fill="#d0593f"/><path d="M70.67,24.69a10,10,0,0,0-7.41-3.8V11.45a1.93,1.93,0,0,0-1.93-1.93H54.76V2.94A1.93,1.93,0,0,0,52.83,1h-8.5a1.93,1.93,0,0,0-1.93,1.93V13.84H37.75V6.78a1.93,1.93,0,0,0-1.93-1.93h-8.5a1.93,1.93,0,0,0-1.93,1.93V9H18.81a1.93,1.93,0,0,0-1.93,1.93v10a10,10,0,0,0-7.41,3.8C5.59,29.68,7,37.67,7,38l9.7,47.63a1.93,1.93,0,0,0,1.89,1.55H61.53a1.93,1.93,0,0,0,1.89-1.55L73.12,38C73.18,37.67,74.55,29.68,70.67,24.69ZM21.76,91.05,11.29,39.6h9.12C21.86,45.93,30.28,51,40.07,51s18.21-5,19.66-11.36h9.12L58.22,91.85ZM16.88,24.78v11H10.64c-.16-2.43,0-6.29,1.88-8.67A6.12,6.12,0,0,1,16.88,24.78Zm3.87-11.93h4.64V41.22a5.89,5.89,0,0,1-1.32-3.55,1.93,1.93,0,0,0-1.93-1.93H20.74ZM59.4,35.74H58a1.93,1.93,0,0,0-1.93,1.93,5.89,5.89,0,0,1-1.32,3.55V13.39H59.4ZM46.26,4.88h4.64V44.41a20.52,20.52,0,0,1-4.64,1.86ZM42.39,47c-.76.07-1.54.11-2.32.11s-1.56,0-2.32-.11V17.7h4.64ZM29.25,8.72h4.64V46.27a20.51,20.51,0,0,1-4.64-1.86Zm40.24,27H63.26v-11a6.12,6.12,0,0,1,4.35,2.28C69.58,29.58,69.64,33.54,69.49,35.74Z" fill="#402e21"/><path d="M51.18,57.75A19.49,19.49,0,0,0,40.07,54.5,19.49,19.49,0,0,0,29,57.75C25.76,60,24,63,24,66.33s1.76,6.34,5,8.58a19.49,19.49,0,0,0,11.11,3.25,19.49,19.49,0,0,0,11.11-3.25c3.2-2.24,5-5.29,5-8.58S54.38,60,51.18,57.75ZM40.07,74.3c-6.62,0-12.21-3.65-12.21-8s5.59-8,12.21-8,12.21,3.65,12.21,8S46.69,74.3,40.07,74.3Z" fill="#402e21"/><polygon points="59.73 39.6 59.73 39.6 59.73 39.6 59.73 39.6" fill="#d0593f"/><path d="M11.23,29.64a17.11,17.11,0,0,0-.62,5.62A17.11,17.11,0,0,1,11.23,29.64Z" fill="#d0593f"/><path d="M17.18,24.78v3.85c-3.3.77-3.17,6.07-3.4,7.17h3.4v-11Z" fill="#d0593f"/><path d="M41.18,58.4l.49,0Z" fill="#ef8926"/><path d="M42.07,58.49c-5.68.66-10.15,4-10.15,7.85s4.47,7.19,10.15,7.85c5.71-.64,10.21-4,10.21-7.85S47.78,59.13,42.07,58.49Z" fill="#ef8926"/><path d="M41.67,74.22l-.49,0Z" fill="#ef8926"/></g></svg>