<svg id="Layer_1" data-name="Layer 1" xmlns="http://www.w3.org/2000/svg" xmlns:xlink="http://www.w3.org/1999/xlink" viewBox="0 0 80 86"><defs><clipPath id="clip-path"><path d="M79.27-14.76H.25S.33,44.79.33,46.14a39.47,39.47,0,1,0,78.93,0Z" fill="none"/></clipPath></defs><title>pizza</title><g clip-path="url(#clip-path)"><circle cx="39.76" cy="46.14" r="39.47" fill="#fee4d2"/><path d="M15.17,35.14c0-.2.08-.4.14-.6C15.25,34.74,15.21,34.94,15.17,35.14Z" fill="#ffd54b"/><path d="M15.51,33.94c.06-.17.12-.35.19-.52C15.62,33.59,15.57,33.77,15.51,33.94Z" fill="#ffd54b"/><path d="M15,36.41c0-.24,0-.49.08-.73C15,35.93,15,36.17,15,36.41Z" fill="#ffd54b"/><path d="M14.94,38a10,10,0,0,1,0-1.19A10,10,0,0,0,14.94,38Z" fill="#ffd54b"/><path d="M15.45,38.63v0Z" fill="#ffd54b"/><path d="M18.43,29.46l-.24.26c.18-.18.35-.37.54-.55a16.5,16.5,0,0,1,9.87-4.09A16.5,16.5,0,0,1,39,27.61a10.83,10.83,0,0,1,5.11,8.18,5.5,5.5,0,0,1-1.25,4.34,5.69,5.69,0,0,1-3.18,1.62,24.41,24.41,0,0,1-4.66.3,10.89,10.89,0,0,0,1.72,3.82c.69.83,3.82,4.85,2.35,8.45-.8,1.94-2.71,3.06-5.61,3.81a17.91,17.91,0,0,1-2.37.31c-4.2.31-7-.65-8.35-2.86-2-3.32.46-7.78,1-8.71a10.91,10.91,0,0,0,1.11-4c-3.26.51-6.08.86-8-.69a4.6,4.6,0,0,1-1.31-1.68h0L10.89,58.15A7.66,7.66,0,1,1,8.54,67v0L5.21,79.76,64.56,53.84C63.2,46.22,56.37,36.26,46.73,28c-8.12-6.95-17.17-11.76-24.45-13.19Zm34.66,9.19A2,2,0,0,1,55.2,40a17.64,17.64,0,0,1-4.69,18.61A2,2,0,0,1,48,58.8l-5.68-4a2,2,0,0,1-.23-3A9.12,9.12,0,0,0,44.56,42a2,2,0,0,1,1.65-2.57Z" fill="#ffd54b"/><path d="M8.21,66l0,.11Z" fill="#ffd54b"/><path d="M16.87,31.3c-.09.14-.18.27-.27.41C16.69,31.58,16.77,31.44,16.87,31.3Z" fill="#ffd54b"/><path d="M16,32.8c.07-.15.14-.31.23-.46C16.13,32.49,16.07,32.65,16,32.8Z" fill="#ffd54b"/><path d="M17.65,30.31l-.31.38Z" fill="#ffd54b"/><path d="M10.36,58.61l0,0Z" fill="#ffd54b"/><path d="M21.58,14.69l.43.08Z" fill="#ffd54b"/><path d="M20,14.48l.29,0Z" fill="#ffd54b"/><path d="M8.06,65.16,8,65Z" fill="#ffd54b"/><path d="M9.24,60l-.14.23Z" fill="#ffd54b"/><path d="M8.27,62.11l0-.19Z" fill="#ffd54b"/><path d="M8.64,61l.09-.18Z" fill="#ffd54b"/><path d="M8.06,63.08c0-.07,0-.15,0-.22S8.07,63,8.06,63.08Z" fill="#ffd54b"/><path d="M32.16,6.43q.71.27,1.45.57Q32.87,6.69,32.16,6.43Z" fill="#ffd54b"/><path d="M29.4,5.52q1.26.35,2.66.87Q30.66,5.88,29.4,5.52Z" fill="#ffd54b"/><path d="M28,5.17c.39.09.79.19,1.2.3C28.82,5.36,28.42,5.26,28,5.17Z" fill="#ffd54b"/><path d="M45.68,13.73C43.81,12.44,42,11.3,40.25,10.3,42,11.3,43.81,12.44,45.68,13.73Z" fill="#ffd54b"/><path d="M26.92,5c.35.06.71.13,1.08.21C27.63,5.09,27.27,5,26.92,5Z" fill="#ffd54b"/><path d="M36.85,8.48q1.64.81,3.37,1.8Q38.49,9.29,36.85,8.48Z" fill="#ffd54b"/><path d="M22.86,4.88a7.25,7.25,0,0,1,.75-.1A7.25,7.25,0,0,0,22.86,4.88Z" fill="#ffd54b"/><path d="M33.65,7q1.52.63,3.15,1.44Q35.17,7.65,33.65,7Z" fill="#ffd54b"/><path d="M19.76,10.5c.48,0,1,.09,1.47.16C20.73,10.59,20.24,10.53,19.76,10.5Z" fill="#ffd54b"/><path d="M22.77,10.9l-1-.18Z" fill="#ffd54b"/><path d="M70.36,39C66.86,32.87,61,26.12,53.8,20a96.47,96.47,0,0,0-8.12-6.25c-8-4.7-14.63-6.61-18.19-5.89a4,4,0,0,0-1.85.83l-.71,2.71h0C32.5,13.3,41.26,18.13,49.3,25c10.07,8.62,17.09,18.78,19,27.21L73,50.18C74.22,48.16,73.27,44,70.36,39Z" fill="#ffd54b"/><path d="M25.74,4.8q.48,0,1,.13Q26.23,4.85,25.74,4.8Z" fill="#ffd54b"/><path d="M23.32,11l1.15.26Z" fill="#ffd54b"/><path d="M24.74,4.74l.85,0Z" fill="#ffd54b"/><path d="M23.79,4.76c.26,0,.54,0,.83,0C24.33,4.73,24.05,4.74,23.79,4.76Z" fill="#ffd54b"/><path d="M14.89,60.53a3.54,3.54,0,0,1,.51-.06A3.77,3.77,0,0,0,14.89,60.53Z" fill="#d0593f"/><path d="M15.44,60.46a4,4,0,0,1,.49,0A3.72,3.72,0,0,0,15.44,60.46Z" fill="#d0593f"/><path d="M17.15,67.51l-.25.11Z" fill="#d0593f"/><path d="M18,61.34a3.67,3.67,0,0,0-2.1-.87,3.69,3.69,0,0,0,1.41,6.95A3.69,3.69,0,0,0,18,61.34Z" fill="#d0593f"/><path d="M19.52,39.17l-.08,0Z" fill="#ef8926"/><path d="M37.47,31.38a13.18,13.18,0,0,0-6.17-.95,12.55,12.55,0,0,0-7.51,3.07,7,7,0,0,0-2.52,5.66v.15H21a34.34,34.34,0,0,0,3.81-.46l1.44-.22a2,2,0,0,1,2.09,1.17c1,2.28.66,5.24-1,8.81a2,2,0,0,1-.12.23c-.8,1.28-1.68,3.66-1.06,4.69.48.79,2.26,1.15,4.75,1s4.19-.82,4.54-1.68c.46-1.12-.78-3.33-1.77-4.47l-.16-.21c-2.16-3.28-2.94-6.16-2.32-8.56a2,2,0,0,1,1.87-1.48h1.47c2.26,0,4.82,0,5.43-.66a2.14,2.14,0,0,0,.21-1.36A6.73,6.73,0,0,0,37.47,31.38Z" fill="#ef8926"/><path d="M19.75,39.24l-.12,0Z" fill="#ef8926"/><path d="M20.93,39.32h0Z" fill="#ef8926"/><path d="M20.6,39.33h0Z" fill="#ef8926"/><path d="M20,39.29l-.16,0Z" fill="#ef8926"/><path d="M20.29,39.31l-.2,0Z" fill="#ef8926"/><path d="M52.1,44.24l-1.8.21A12.93,12.93,0,0,1,48,54l-1.59-1.11,2.48,1.73a13.41,13.41,0,0,0,3-11.82A14.51,14.51,0,0,1,52.1,44.24Z" fill="#85bf95"/><path d="M56.37,17C43.42,5.9,29.64-.52,22.08,1a7.49,7.49,0,0,0-4.34,2.41,2,2,0,0,0-.41.78L-3.79,84.51a2,2,0,0,0,.63,2,2,2,0,0,0,1.68.44,2,2,0,0,0,.4-.13L75,53.59a2,2,0,0,0,.71-.53C82,45.75,70.42,29,56.37,17Zm-37.63-2.6c7.72.29,18.5,5.5,28,13.63S63.2,46.22,64.56,53.84L1.07,81.57ZM73,50.18l-4.7,2.05C66.39,43.8,59.37,33.63,49.3,25s-21-13.88-29.54-14.52L21,5.71a4,4,0,0,1,1.85-.83C28.21,3.8,40.55,8.63,53.8,20,61,26.12,66.86,32.87,70.36,39,73.27,44,74.22,48.16,73,50.18Z" fill="#402e21"/><path d="M14.1,56.66a7.57,7.57,0,0,0-4.28,2.52,7.65,7.65,0,0,0,7.33,12.47,7.65,7.65,0,0,0-3-15Zm5.21,7.21A3.7,3.7,0,1,1,18,61.34,3.67,3.67,0,0,1,19.31,63.86Z" fill="#402e21"/><path d="M35,42.05a24.42,24.42,0,0,0,4.66-.3,5.69,5.69,0,0,0,3.18-1.62,5.5,5.5,0,0,0,1.25-4.34A10.83,10.83,0,0,0,39,27.61a16.5,16.5,0,0,0-10.39-2.52,16.5,16.5,0,0,0-9.87,4.09A10.83,10.83,0,0,0,14.94,38a5.5,5.5,0,0,0,1.91,4.1c2,1.55,4.78,1.2,8,.69a10.9,10.9,0,0,1-1.11,4c-.56.93-3,5.39-1,8.71,1.34,2.21,4.15,3.17,8.35,2.86a17.91,17.91,0,0,0,2.37-.31c2.89-.75,4.81-1.87,5.61-3.81,1.48-3.59-1.65-7.62-2.35-8.45A10.89,10.89,0,0,1,35,42.05Zm.42,10.77c-.36.86-2.05,1.49-4.54,1.68s-4.27-.17-4.75-1c-.63-1,.26-3.41,1.06-4.69a2,2,0,0,0,.12-.23c1.63-3.57,2-6.54,1-8.81a2,2,0,0,0-2.09-1.17l-1.44.22c-2.23.35-4.76.74-5.47.19a2.14,2.14,0,0,1-.42-1.31,7,7,0,0,1,2.52-5.66A12.55,12.55,0,0,1,28.91,29a12.54,12.54,0,0,1,7.9,1.88,7,7,0,0,1,3.36,5.2A2.14,2.14,0,0,1,40,37.45c-.61.66-3.17.66-5.43.66H33.05a2,2,0,0,0-1.87,1.48c-.62,2.4.16,5.28,2.32,8.56l.16.21C34.65,49.5,35.89,51.71,35.43,52.83Z" fill="#402e21"/><path d="M53.09,38.65l-6.88.81A2,2,0,0,0,44.56,42a9.12,9.12,0,0,1-2.45,9.74,2,2,0,0,0,.23,3l5.68,4a2,2,0,0,0,2.49-.19A17.64,17.64,0,0,0,55.2,40,2,2,0,0,0,53.09,38.65Zm-4.2,15.94-2.48-1.73a12.94,12.94,0,0,0,2.45-9.73l3-.35A13.41,13.41,0,0,1,48.89,54.59Z" fill="#402e21"/></g></svg>