<svg id="Layer_1" data-name="Layer 1" xmlns="http://www.w3.org/2000/svg" viewBox="0 0 80 86"><title>pizza</title><circle cx="39.76" cy="46.14" r="39.47" fill="#fee4d2"/><path d="M19.44,33.17c0-.19.08-.39.13-.58C19.52,32.78,19.49,33,19.44,33.17Z" fill="#ffd54b"/><path d="M19.78,32c.06-.17.11-.33.18-.5C19.89,31.68,19.84,31.85,19.78,32Z" fill="#ffd54b"/><path d="M19.25,34.4c0-.24,0-.47.07-.7C19.29,33.93,19.27,34.17,19.25,34.4Z" fill="#ffd54b"/><path d="M19.23,36a9.62,9.62,0,0,1,0-1.15A9.62,9.62,0,0,0,19.23,36Z" fill="#ffd54b"/><path d="M19.72,36.55v0Z" fill="#ffd54b"/><path d="M22.6,27.69l-.24.25c.17-.18.34-.36.52-.53a16,16,0,0,1,9.54-4,16,16,0,0,1,10,2.44,10.47,10.47,0,0,1,4.94,7.91A5.32,5.32,0,0,1,46.2,38a5.5,5.5,0,0,1-3.07,1.57,23.59,23.59,0,0,1-4.5.29,10.53,10.53,0,0,0,1.66,3.69c.67.8,3.7,4.69,2.27,8.17-.77,1.87-2.62,3-5.42,3.68a17.31,17.31,0,0,1-2.29.3c-4.06.3-6.78-.63-8.07-2.76-1.94-3.21.45-7.52,1-8.42a10.54,10.54,0,0,0,1.07-3.9c-3.15.49-5.87.83-7.77-.67a4.44,4.44,0,0,1-1.27-1.62h0L15.31,55.41A7.4,7.4,0,1,1,13,64v0L9.82,76.3,67.18,51.25c-1.31-7.37-7.91-17-17.23-25-7.84-6.72-16.59-11.36-23.63-12.74ZM56.1,36.57a1.91,1.91,0,0,1,2,1.3,17,17,0,0,1-4.53,18,1.91,1.91,0,0,1-2.41.18l-5.49-3.84a1.91,1.91,0,0,1-.22-2.94,8.82,8.82,0,0,0,2.37-9.42,1.91,1.91,0,0,1,1.59-2.49Z" fill="#ffd54b"/><path d="M12.72,63l0,.11Z" fill="#ffd54b"/><path d="M21.09,29.46c-.09.13-.17.27-.26.4C20.92,29.73,21,29.59,21.09,29.46Z" fill="#ffd54b"/><path d="M20.24,30.91c.07-.15.14-.3.22-.44C20.38,30.61,20.31,30.76,20.24,30.91Z" fill="#ffd54b"/><path d="M21.84,28.5l-.3.37Z" fill="#ffd54b"/><path d="M14.8,55.86l0,0Z" fill="#ffd54b"/><path d="M25.64,13.41l.42.07Z" fill="#ffd54b"/><path d="M24.16,13.21l.28,0Z" fill="#ffd54b"/><path d="M12.58,62.18l0-.19Z" fill="#ffd54b"/><path d="M13.71,57.16l-.14.22Z" fill="#ffd54b"/><path d="M12.78,59.23l0-.18Z" fill="#ffd54b"/><path d="M13.14,58.21l.08-.17Z" fill="#ffd54b"/><path d="M12.58,60.18c0-.07,0-.14,0-.22S12.59,60.11,12.58,60.18Z" fill="#ffd54b"/><path d="M35.87,5.43q.69.26,1.41.55Z" fill="#ffd54b"/><path d="M33.2,4.55q1.22.34,2.57.84Q34.42,4.89,33.2,4.55Z" fill="#ffd54b"/><path d="M31.87,4.21c.38.08.76.18,1.16.29C32.64,4.4,32.25,4.3,31.87,4.21Z" fill="#ffd54b"/><path d="M48.93,12.48c-1.8-1.24-3.56-2.34-5.25-3.31C45.37,10.14,47.13,11.24,48.93,12.48Z" fill="#ffd54b"/><path d="M30.81,4c.34.06.69.12,1,.2C31.49,4.13,31.14,4.06,30.81,4Z" fill="#ffd54b"/><path d="M40.4,7.41Q42,8.2,43.66,9.15,42,8.19,40.4,7.41Z" fill="#ffd54b"/><path d="M26.89,3.93a7,7,0,0,1,.73-.1A7,7,0,0,0,26.89,3.93Z" fill="#ffd54b"/><path d="M37.3,6q1.47.61,3,1.39Q38.77,6.6,37.3,6Z" fill="#ffd54b"/><path d="M23.88,9.36c.47,0,.94.09,1.42.15C24.83,9.45,24.35,9.39,23.88,9.36Z" fill="#ffd54b"/><path d="M26.79,9.75l-1-.17Z" fill="#ffd54b"/><path d="M72.79,36.87c-3.39-5.89-9.07-12.41-16-18.35a93.23,93.23,0,0,0-7.85-6C41.24,7.93,34.8,6.09,31.36,6.79a3.85,3.85,0,0,0-1.79.8l-.69,2.62h0c7.34,1.87,15.81,6.53,23.58,13.19C62.16,31.72,69,41.54,70.75,49.69l4.54-2C76.51,45.76,75.6,41.77,72.79,36.87Z" fill="#ffd54b"/><path d="M29.67,3.85q.47,0,1,.13Q30.13,3.9,29.67,3.85Z" fill="#ffd54b"/><path d="M27.33,9.85l1.11.25Z" fill="#ffd54b"/><path d="M28.7,3.79l.82,0Z" fill="#ffd54b"/><path d="M27.78,3.81c.25,0,.52,0,.8,0C28.3,3.79,28,3.8,27.78,3.81Z" fill="#ffd54b"/><path d="M19.18,57.71a3.42,3.42,0,0,1,.49-.06A3.64,3.64,0,0,0,19.18,57.71Z" fill="#d0593f"/><path d="M19.71,57.64a3.86,3.86,0,0,1,.47,0A3.59,3.59,0,0,0,19.71,57.64Z" fill="#d0593f"/><path d="M21.37,64.45l-.24.11Z" fill="#d0593f"/><path d="M22.21,58.49a3.55,3.55,0,0,0-2-.84,3.57,3.57,0,0,0,1.36,6.71,3.57,3.57,0,0,0,.66-5.87Z" fill="#d0593f"/><path d="M23.66,37.07l-.07,0Z" fill="#ef8926"/><path d="M41,29.54a12.74,12.74,0,0,0-6-.92,12.13,12.13,0,0,0-7.26,3,6.74,6.74,0,0,0-2.43,5.47v.15H25a33.19,33.19,0,0,0,3.68-.44l1.39-.21a1.91,1.91,0,0,1,2,1.13c1,2.2.64,5.07-.94,8.52a2,2,0,0,1-.12.22C30.3,47.67,29.44,50,30,51c.47.77,2.18,1.11,4.59.93s4-.79,4.39-1.62c.45-1.08-.76-3.22-1.71-4.32l-.15-.2c-2.09-3.17-2.85-6-2.24-8.27A1.91,1.91,0,0,1,36.73,36h1.42c2.18,0,4.66,0,5.25-.64a2.07,2.07,0,0,0,.21-1.31A6.5,6.5,0,0,0,41,29.54Z" fill="#ef8926"/><path d="M23.87,37.14l-.11,0Z" fill="#ef8926"/><path d="M25,37.22h0Z" fill="#ef8926"/><path d="M24.7,37.22h0Z" fill="#ef8926"/><path d="M24.12,37.18l-.15,0Z" fill="#ef8926"/><path d="M24.4,37.21l-.19,0Z" fill="#ef8926"/><path d="M55.14,42l-1.74.21a12.49,12.49,0,0,1-2.22,9.19l-1.54-1.08L52,52a13,13,0,0,0,2.88-11.42A14,14,0,0,1,55.14,42Z" fill="#85bf95"/><path d="M59.26,16.37C46.75,5.66,33.44-.54,26.13.94a7.24,7.24,0,0,0-4.19,2.33,1.91,1.91,0,0,0-.4.76L1.13,81.63a1.91,1.91,0,0,0,2.61,2.23L77.28,51.75a1.91,1.91,0,0,0,.69-.51C84,44.17,72.85,28,59.26,16.37ZM22.9,13.87C30.36,14.14,40.78,19.18,50,27S65.87,44.63,67.18,52L5.82,78.79ZM75.29,48.45l-4.54,2c-1.8-8.15-8.59-18-18.32-26.3s-20.26-13.41-28.55-14L25.1,5.48a3.85,3.85,0,0,1,1.79-.8C32,3.63,44,8.31,56.78,19.27c6.93,5.94,12.62,12.45,16,18.35C75.6,42.52,76.51,46.51,75.29,48.45Z" fill="#402e21"/><path d="M18.42,54a7.32,7.32,0,0,0-4.14,2.44,7.39,7.39,0,0,0,7.09,12A7.39,7.39,0,0,0,18.42,54Zm5,7a3.57,3.57,0,1,1-1.24-2.44A3.55,3.55,0,0,1,23.45,60.93Z" fill="#402e21"/><path d="M38.63,39.86a23.6,23.6,0,0,0,4.5-.29A5.5,5.5,0,0,0,46.2,38a5.32,5.32,0,0,0,1.21-4.2,10.47,10.47,0,0,0-4.94-7.91,16,16,0,0,0-10-2.44,16,16,0,0,0-9.54,4A10.47,10.47,0,0,0,19.23,36a5.32,5.32,0,0,0,1.84,4c1.9,1.5,4.62,1.16,7.77.67a10.54,10.54,0,0,1-1.07,3.9c-.54.89-2.93,5.21-1,8.42,1.29,2.13,4,3.06,8.07,2.76a17.31,17.31,0,0,0,2.29-.3c2.8-.72,4.65-1.81,5.42-3.68,1.43-3.47-1.6-7.36-2.27-8.17A10.53,10.53,0,0,1,38.63,39.86ZM39,50.27c-.34.83-2,1.44-4.39,1.62S30.52,51.73,30,51c-.61-1,.25-3.3,1-4.53a2,2,0,0,0,.12-.22c1.58-3.45,1.9-6.32.94-8.52a1.91,1.91,0,0,0-2-1.13l-1.39.21c-2.16.34-4.6.72-5.28.18A2.07,2.07,0,0,1,23,35.69a6.74,6.74,0,0,1,2.43-5.47,12.13,12.13,0,0,1,7.26-3,12.12,12.12,0,0,1,7.63,1.81,6.74,6.74,0,0,1,3.25,5,2.07,2.07,0,0,1-.21,1.31c-.59.64-3.06.64-5.25.64H36.73a1.91,1.91,0,0,0-1.81,1.43c-.6,2.32.15,5.1,2.24,8.27l.15.2C38.27,47,39.47,49.19,39,50.27Z" fill="#402e21"/><path d="M56.1,36.57l-6.65.78a1.91,1.91,0,0,0-1.59,2.49,8.82,8.82,0,0,1-2.37,9.42,1.91,1.91,0,0,0,.22,2.94L51.19,56a1.91,1.91,0,0,0,2.41-.18,17,17,0,0,0,4.53-18A1.91,1.91,0,0,0,56.1,36.57ZM52,52l-2.39-1.67A12.5,12.5,0,0,0,52,40.89l2.9-.34A13,13,0,0,1,52,52Z" fill="#402e21"/></svg>