<svg id="Layer_1" data-name="Layer 1" xmlns="http://www.w3.org/2000/svg" xmlns:xlink="http://www.w3.org/1999/xlink" viewBox="0 0 80 86"><defs><style>.cls-1{fill:none;}.cls-2{clip-path:url(#clip-path);}.cls-3{fill:#fee4d2;}.cls-4{fill:#ffd54b;}.cls-5{fill:#402e21;}.cls-6{fill:#85bf95;}.cls-7{fill:#d0593f;}.cls-8{fill:#ef8926;}</style><clipPath id="clip-path"><path class="cls-1" d="M79.51-14.76H.49S.57,44.79.57,46.14a39.47,39.47,0,1,0,78.93,0Z"/></clipPath></defs><title>sandwich</title><g class="cls-2"><circle class="cls-3" cx="39.96" cy="46.14" r="39.47"/><path class="cls-4" d="M70,24.92c-1.83-1-5.64-1.46-12.06-.18q-1.59.32-3.27.75L52,34.35a4.45,4.45,0,0,1-8.71-.9A4.48,4.48,0,0,1,41.62,30h0q-1.55.65-3.13,1.36L34.83,43.54a4.46,4.46,0,0,1-8.7-.9,4.47,4.47,0,0,1-1.65-4h0q-1.62,1-3.18,2L17.67,52.73a4.46,4.46,0,0,1-5.56,3,4.48,4.48,0,0,1-3-4,3.91,3.91,0,0,1-1-1.05l-.1.16c-.45.45-1,1-1.52,1.48-4.63,4.63-6.38,8-6.53,10.13a4.34,4.34,0,0,0,4.85.45l62.78-34a4.43,4.43,0,0,0,2.37-4.47C69.92,24.53,70,24.76,70,24.92Z"/><path class="cls-4" d="M69.66,23.36a4.48,4.48,0,0,0-.21-.46A4.44,4.44,0,0,1,69.66,23.36Z"/><path class="cls-4" d="M69.92,24.37q0-.21-.08-.41C69.88,24.09,69.91,24.23,69.92,24.37Z"/><path class="cls-4" d="M69.82,23.85c0-.13-.07-.25-.12-.37C69.74,23.6,69.79,23.72,69.82,23.85Z"/><path class="cls-4" d="M45.8,30.88A1,1,0,0,0,47,30.25l2-6.71q-1.07.33-2.16.71L45.17,29.7A1,1,0,0,0,45.8,30.88Z"/><path class="cls-4" d="M11.47,49.25a1,1,0,0,0,1.18-.63L15,40.67q-1.3.93-2.53,1.86l-1.68,5.54A1,1,0,0,0,11.47,49.25Z"/><path class="cls-4" d="M28.64,40.06a1,1,0,0,0,1.18-.63l2.75-9.18-2.31,1.17L28,38.88A1,1,0,0,0,28.64,40.06Z"/><path class="cls-5" d="M77.72,38.33a4.64,4.64,0,0,0-6.06-4,5.57,5.57,0,0,0-1.49-2.79,8,8,0,0,0,2.37-10.26c-2-3.79-7.9-4.84-17-3-8.29,1.65-18.38,5.52-28.41,10.89S8.3,40.71,2.33,46.69c-6.54,6.55-8.93,12-6.9,15.8a8,8,0,0,0,9.85,3.72A5.58,5.58,0,0,0,6.77,69a4.65,4.65,0,0,0-1.21,5.84,4.6,4.6,0,0,0,1.22,1.45,6,6,0,0,0,7.81,8.61l66-35.29a6,6,0,0,0-2.82-11.28Zm1.17,8.18-66,35.29a2.48,2.48,0,0,1-2.34-4.38l66-35.29a2.48,2.48,0,0,1,2.34,4.38ZM15,40.67l-2.39,7.95a.95.95,0,0,1-1.81-.55l1.68-5.54Q13.74,41.6,15,40.67ZM7.64,46.52,7.48,47A4.46,4.46,0,0,0,16,49.63l3.64-12.07c2-1.28,4.07-2.53,6.22-3.75l-1.23,4.06a4.46,4.46,0,0,0,8.53,2.58l3.66-12.22c2-.9,3.94-1.72,5.86-2.47l-.89,2.92a4.46,4.46,0,1,0,8.53,2.58L53,22.4q1.68-.43,3.27-.75C64.6,20,68.54,21.2,69.44,22.89A4.5,4.5,0,0,1,67.6,29L4.6,62.68a4.5,4.5,0,0,1-6.08-1.84c-.91-1.69.27-5.65,6.29-11.67Q6.13,47.85,7.64,46.52ZM32.57,30.25l-2.75,9.18A.95.95,0,1,1,28,38.88l2.26-7.46ZM49,23.54l-2,6.71a.95.95,0,0,1-1.81-.55l1.65-5.45Q47.91,23.87,49,23.54ZM9,64.3l16-8.57c.38-.2,1.11.14,1.52.89s.28,1.55-.1,1.76L10.44,67c-.38.2-1.11-.14-1.52-.89S8.64,64.5,9,64.3ZM47.29,45.53c.41.76.28,1.55-.1,1.76l-16,8.57c-.38.2-1.11-.14-1.52-.89s-.28-1.56.1-1.76l16-8.57C46.15,44.43,46.88,44.77,47.29,45.53ZM67.92,36.2l-16,8.57c-.38.2-1.11-.14-1.52-.89s-.28-1.56.1-1.76l16-8.57c.38-.2,1.11.14,1.52.89S68.3,36,67.92,36.2ZM9.12,71.64,72.55,37.7a1.14,1.14,0,1,1,1.08,2L10.2,73.65a1.14,1.14,0,0,1-1.08-2Z"/><path class="cls-4" d="M76.8,42.6,13.85,76.28a2.5,2.5,0,0,0,2.36,4.41L79.16,47A2.5,2.5,0,0,0,76.8,42.6Z"/><path class="cls-6" d="M72.7,38,12.28,70.32c-.55.3-.59,1.31-.3,1.86s1.16,1.08,1.71.78L74.12,40.63c.55-.3.59-1.31.3-1.86S73.26,37.69,72.7,38Z"/><path class="cls-7" d="M25,55.59,12,62.54c-.38.2-.27,1.44.14,2.2s1.37,1.54,1.75,1.33l13-6.95c.38-.2.27-1.44-.14-2.2S25.35,55.39,25,55.59Z"/><path class="cls-8" d="M30,55.46a1.09,1.09,0,0,0,1.16.41h0A1.09,1.09,0,0,1,30,55.46Z"/><path class="cls-8" d="M29.75,53.21h0a1.09,1.09,0,0,0-.31,1.19A1.09,1.09,0,0,1,29.75,53.21Z"/><path class="cls-8" d="M45.7,44.5l-13,6.95c-.38.2-.27,1.44.14,2.2S34.22,55.17,34.6,55l13-6.95c.38-.2.27-1.44-.14-2.2S46.08,44.29,45.7,44.5Z"/><path class="cls-7" d="M66.43,33.4l-13,6.95c-.38.2-.27,1.44.14,2.2s1.37,1.54,1.75,1.33l13-6.95c.38-.2.27-1.44-.14-2.2S66.81,33.2,66.43,33.4Z"/></g></svg>