<svg id="Layer_1" data-name="Layer 1" xmlns="http://www.w3.org/2000/svg" viewBox="0 0 80 86"><title>sandwich</title><circle cx="39.96" cy="46.14" r="39.47" fill="#fee4d2"/><path d="M68.08,21.79c-1.65-.93-5.07-1.31-10.84-.16q-1.43.28-2.94.67l-2.37,8a4,4,0,0,1-7.82-.81,4,4,0,0,1-1.51-3.14h0q-1.4.59-2.81,1.22l-3.29,11a4,4,0,0,1-7.82-.81,4,4,0,0,1-1.48-3.56h0q-1.46.88-2.85,1.77L21.07,46.78a3.93,3.93,0,0,1-7.7-.92,3.51,3.51,0,0,1-.94-.94l-.09.14c-.4.41-.92.88-1.36,1.33-4.16,4.16-5.73,7.22-5.87,9.1a3.9,3.9,0,0,0,4.36.4L65.89,25.31a4,4,0,0,0,2.13-4C68,21.43,68.08,21.64,68.08,21.79Z" fill="#ffd54b"/><path d="M67.8,20.38a4,4,0,0,0-.19-.42A4,4,0,0,1,67.8,20.38Z" fill="#ffd54b"/><path d="M68,21.29q0-.19-.07-.37C68,21,68,21.16,68,21.29Z" fill="#ffd54b"/><path d="M67.95,20.82c0-.11-.07-.22-.11-.33C67.88,20.6,67.92,20.71,67.95,20.82Z" fill="#ffd54b"/><path d="M46.36,27.14a.85.85,0,0,0,1.06-.57l1.79-6-1.94.63-1.48,4.9A.85.85,0,0,0,46.36,27.14Z" fill="#ffd54b"/><path d="M15.5,43.65a.85.85,0,0,0,1.06-.57l2.15-7.14q-1.17.83-2.27,1.67l-1.51,5A.85.85,0,0,0,15.5,43.65Z" fill="#ffd54b"/><path d="M30.93,35.4A.85.85,0,0,0,32,34.83l2.47-8.25-2.07,1.05-2,6.7A.85.85,0,0,0,30.93,35.4Z" fill="#ffd54b"/><path d="M75,33.84A4.17,4.17,0,0,0,69.6,30.2a5,5,0,0,0-1.34-2.51,7.2,7.2,0,0,0,2.13-9.22c-1.82-3.41-7.1-4.35-15.26-2.72-7.45,1.49-16.52,5-25.54,9.79S12.65,36,7.28,41.35c-5.88,5.88-8,10.8-6.2,14.21A7.2,7.2,0,0,0,9.94,58.9a5,5,0,0,0,1.34,2.51,4.18,4.18,0,0,0-1.09,5.24A4.13,4.13,0,0,0,11.28,68a5.39,5.39,0,0,0,7,7.74L77.59,44A5.39,5.39,0,0,0,75,33.84Zm1,7.36L16.82,72.91A2.23,2.23,0,0,1,14.71,69L74,37.25a2.23,2.23,0,0,1,2.11,3.94ZM18.72,35.94l-2.15,7.14a.85.85,0,0,1-1.63-.49l1.51-5Q17.55,36.77,18.72,35.94Zm-6.66,5.25-.15.48A4,4,0,0,0,19.58,44l3.27-10.85c1.79-1.15,3.66-2.28,5.59-3.37l-1.1,3.65A4,4,0,0,0,35,35.74l3.29-11c1.78-.8,3.54-1.55,5.27-2.22l-.8,2.63a4,4,0,1,0,7.67,2.32l2.37-8q1.51-.39,2.94-.67c7.5-1.5,11-.4,11.86,1.12A4,4,0,0,1,66,25.43L9.33,55.72a4,4,0,0,1-5.46-1.65c-.81-1.52.24-5.08,5.65-10.49Q10.7,42.4,12.06,41.19ZM34.47,26.58,32,34.83a.85.85,0,1,1-1.63-.49l2-6.7Zm14.75-6-1.79,6a.85.85,0,0,1-1.63-.49l1.48-4.9ZM13.3,57.18l14.4-7.71c.34-.18,1,.12,1.36.8s.25,1.4-.09,1.58l-14.4,7.71c-.34.18-1-.12-1.36-.8S13,57.36,13.3,57.18ZM47.7,40.31c.37.68.25,1.4-.09,1.58l-14.4,7.71c-.34.18-1-.12-1.36-.8s-.26-1.4.09-1.58l14.4-7.71C46.67,39.32,47.33,39.63,47.7,40.31Zm18.55-8.39-14.4,7.71c-.34.18-1-.12-1.36-.8s-.26-1.4.09-1.58L65,29.53c.34-.18,1,.12,1.36.8S66.58,31.74,66.24,31.92ZM13.39,63.78l57-30.51a1,1,0,1,1,1,1.81l-57,30.51a1,1,0,0,1-1-1.81Z" fill="#402e21"/><path d="M74.22,37.68,17.64,68a2.25,2.25,0,0,0,2.12,4L76.34,41.64a2.25,2.25,0,0,0-2.12-4Z" fill="#ffd54b"/><path d="M70.54,33.53,16.23,62.59c-.5.27-.53,1.17-.27,1.67s1,1,1.54.71L71.81,35.91c.5-.27.53-1.17.27-1.67S71,33.26,70.54,33.53Z" fill="#85bf95"/><path d="M27.63,49.35,16,55.59c-.34.18-.24,1.29.12,2s1.23,1.38,1.57,1.2l11.67-6.24c.34-.18.24-1.29-.12-2S28,49.17,27.63,49.35Z" fill="#d0593f"/><path d="M32.16,49.23a1,1,0,0,0,1,.36h0A1,1,0,0,1,32.16,49.23Z" fill="#ef8926"/><path d="M31.93,47.21h0a1,1,0,0,0-.28,1.07A1,1,0,0,1,31.93,47.21Z" fill="#ef8926"/><path d="M46.27,39.38,34.6,45.62c-.34.18-.24,1.29.12,2S36,49,36.29,48.79L48,42.55c.34-.18.24-1.29-.12-2S46.61,39.2,46.27,39.38Z" fill="#ef8926"/><path d="M64.9,29.41,53.23,35.65c-.34.18-.24,1.29.12,2s1.23,1.38,1.57,1.2L66.6,32.58c.34-.18.24-1.29-.12-2S65.24,29.23,64.9,29.41Z" fill="#d0593f"/></svg>