<svg id="Layer_1" data-name="Layer 1" xmlns="http://www.w3.org/2000/svg" viewBox="0 0 80 86"><title>sausage</title><circle cx="39.96" cy="46.14" r="39.47" fill="#fee4d2"/><path d="M69.53,17a19.49,19.49,0,0,1-1.16,3.82L72,17.16l0,0a3.42,3.42,0,0,0-.41-5.19A11.78,11.78,0,0,0,69.53,17Z" fill="#d0593f"/><path d="M56.92,29.75a12.17,12.17,0,0,0-9.83,9.93,19.49,19.49,0,0,1-1.16,3.82l14.8-15A19.48,19.48,0,0,1,56.92,29.75Z" fill="#d0593f"/><path d="M23.49,66.18l14.8-15a19.49,19.49,0,0,1-3.81,1.2A11.36,11.36,0,0,0,28,55.84a11.35,11.35,0,0,0-3.35,6.52A19.49,19.49,0,0,1,23.49,66.18Z" fill="#d0593f"/><path d="M11.59,69.11l.15-.07Z" fill="#d0593f"/><path d="M12.17,68.87l.17-.07Z" fill="#d0593f"/><path d="M12.86,68.62l.16,0Z" fill="#d0593f"/><path d="M14.75,68.05c-.52.12-1,.22-1.54.36a3.42,3.42,0,0,0,4.23-.53L18.5,66.8C16.76,67,15.93,67.77,14.75,68.05Z" fill="#d0593f"/><path d="M10.93,69.46,11,69.4Z" fill="#d0593f"/><path d="M10.3,69.85l.16-.11Z" fill="#d0593f"/><path d="M30.71,49.63c-.29.11-.59.23-.9.37C30.12,49.86,30.42,49.74,30.71,49.63Z" fill="#d0593f"/><path d="M43.85,37.85,32.61,49.21c-.13.13-.49.05-.71.11.62-.18,1.18-.36,1.76-.49a11.36,11.36,0,0,0,6.47-3.43,11.36,11.36,0,0,0,3.34-6.53c.13-.58.33-1.12.5-1.74C43.9,37.36,44,37.71,43.85,37.85Z" fill="#d0593f"/><path d="M44.26,35.94c.11-.3.22-.59.36-.9C44.48,35.35,44.36,35.65,44.26,35.94Z" fill="#d0593f"/><path d="M43.95,36.9q.1-.34.22-.7Q44,36.55,43.95,36.9Z" fill="#d0593f"/><path d="M31.66,49.31l-.7.23Z" fill="#d0593f"/><path d="M53.15,27c-.29.11-.59.23-.89.37C52.56,27.18,52.86,27.07,53.15,27Z" fill="#d0593f"/><path d="M66.29,15.17,55,26.53c-.13.13-.49.05-.71.11.62-.18,1.18-.36,1.76-.49a11.36,11.36,0,0,0,6.47-3.43A11.36,11.36,0,0,0,65.9,16.2c.13-.58.33-1.12.5-1.74C66.34,14.68,66.42,15,66.29,15.17Z" fill="#d0593f"/><path d="M54.1,26.63l-.7.23Z" fill="#d0593f"/><path d="M66.7,13.27c.11-.3.22-.59.36-.9C66.92,12.67,66.8,13,66.7,13.27Z" fill="#d0593f"/><path d="M66.38,14.23q.1-.35.22-.71Q66.49,13.88,66.38,14.23Z" fill="#d0593f"/><path d="M60.12,12.31a13.9,13.9,0,0,0-4.88,3.44L15.74,55.66c-2.21,2.24-4.24,4.28-4.11,7.17L61.39,12.56C61.27,12.68,60.62,12.39,60.12,12.31Z" fill="#ffd54b"/><path d="M20.68,74.87c3.14,1.37,7.6-.12,11-3.55L68.55,34.06c3.39-3.43,4.83-7.91,3.43-11Z" fill="#ffd54b"/><path d="M64.48,9.66l-.24.24c-4.51-2.84-11.49-1.45-16.48,3.59L8.26,53.41c-5,5-6.31,12-3.42,16.52l-.24.24a7.18,7.18,0,1,0,10.2,10.1L15,80c4.52,2.84,11.49,1.45,16.48-3.59L71,36.51c5-5,6.31-12,3.42-16.52l.21-.22,0,0a7.18,7.18,0,0,0-10.2-10.1ZM72,17.13l0,0-3.63,3.67A19.49,19.49,0,0,0,69.53,17a11.78,11.78,0,0,1,2.09-5.07A3.42,3.42,0,0,1,72,17.13ZM28.87,73.8c-3.39,3.43-8,4.76-11.09,3.45L71.71,22.76c1.33,3.06.06,7.69-3.34,11.12ZM7.28,77.66A3.42,3.42,0,0,1,7,77.28,11.75,11.75,0,0,1,12,75.1a19.47,19.47,0,0,0,3.81-1.2l-3.7,3.74A3.45,3.45,0,0,1,7.28,77.66ZM50.42,16.12c3.39-3.43,8-4.76,11.09-3.45L7.58,67.16C6.25,64.1,7.53,59.47,10.92,56ZM47.09,39.69a12.17,12.17,0,0,1,9.83-9.93,19.48,19.48,0,0,0,3.81-1.2l-14.8,15A19.49,19.49,0,0,0,47.09,39.69Zm-7,5.7a11.36,11.36,0,0,1-6.48,3.41A19.49,19.49,0,0,0,29.82,50l14.8-15a19.49,19.49,0,0,0-1.16,3.82A11.36,11.36,0,0,1,40.11,45.38Zm-5.62,7a19.49,19.49,0,0,0,3.81-1.2l-14.8,15a19.49,19.49,0,0,0,1.16-3.82A11.35,11.35,0,0,1,28,55.84,11.36,11.36,0,0,1,34.48,52.43ZM62.54,22.71a11.36,11.36,0,0,1-6.48,3.41,19.48,19.48,0,0,0-3.81,1.2l14.8-15a19.44,19.44,0,0,0-1.17,3.82A11.36,11.36,0,0,1,62.54,22.71Zm-40.37,35A19.48,19.48,0,0,0,21,61.54a11.36,11.36,0,0,1-3.35,6.52,11.36,11.36,0,0,1-6.48,3.41,19.43,19.43,0,0,0-3.81,1.21Z" fill="#402e21"/><path d="M11.24,71.52a11.36,11.36,0,0,0,6.46-3.44A11.35,11.35,0,0,0,21,61.55C21.16,61,10.66,71.66,11.24,71.52Z" fill="#d0593f"/><path d="M12,65l-.71.23Z" fill="#d0593f"/><path d="M11,65.31c-.3.11-.59.23-.9.37C10.43,65.54,10.73,65.42,11,65.31Z" fill="#d0593f"/><path d="M21.51,59.58q.1-.35.22-.7Q21.61,59.23,21.51,59.58Z" fill="#d0593f"/></svg>