<svg id="Layer_1" data-name="Layer 1" xmlns="http://www.w3.org/2000/svg" xmlns:xlink="http://www.w3.org/1999/xlink" viewBox="0 0 80 86"><defs><style>.cls-1{fill:none;}.cls-2{clip-path:url(#clip-path);}.cls-3{fill:#fee4d2;}.cls-4{fill:#d0593f;}.cls-5{fill:#ffd54b;}.cls-6{fill:#402e21;}</style><clipPath id="clip-path"><path class="cls-1" d="M79.51-14.76H.49S.57,44.79.57,46.14a39.47,39.47,0,1,0,78.93,0Z"/></clipPath></defs><title>sausage</title><g class="cls-2"><circle class="cls-3" cx="39.96" cy="46.14" r="39.47"/><path class="cls-4" d="M72.28,10a19.49,19.49,0,0,1-1.16,3.82l3.63-3.67,0,0a3.42,3.42,0,0,0-.41-5.19A11.78,11.78,0,0,0,72.28,10Z"/><path class="cls-4" d="M59.67,22.75a11.36,11.36,0,0,0-6.48,3.41,11.36,11.36,0,0,0-3.35,6.52,19.49,19.49,0,0,1-1.16,3.82l14.8-15A19.48,19.48,0,0,1,59.67,22.75Z"/><path class="cls-4" d="M26.24,59.18l14.8-15a19.49,19.49,0,0,1-3.81,1.2,12.16,12.16,0,0,0-9.83,9.93A19.49,19.49,0,0,1,26.24,59.18Z"/><path class="cls-4" d="M11.59,69.11l.15-.07Z"/><path class="cls-4" d="M12.17,68.87l.17-.07Z"/><path class="cls-4" d="M12.86,68.62l.16,0Z"/><path class="cls-4" d="M14.75,68.05c-.52.12-1,.22-1.54.36a3.42,3.42,0,0,0,4.23-.53L18.5,66.8C16.76,67,15.93,67.77,14.75,68.05Z"/><path class="cls-4" d="M10.93,69.46,11,69.4Z"/><path class="cls-4" d="M10.3,69.85l.16-.11Z"/><path class="cls-4" d="M33.46,42.63c-.29.11-.59.23-.9.37C32.87,42.86,33.17,42.74,33.46,42.63Z"/><path class="cls-4" d="M46.6,30.85,35.36,42.21c-.13.13-.49.05-.71.11.62-.18,1.18-.36,1.76-.49a11.36,11.36,0,0,0,6.47-3.43,11.36,11.36,0,0,0,3.34-6.53c.13-.58.33-1.12.5-1.74C46.65,30.36,46.73,30.71,46.6,30.85Z"/><path class="cls-4" d="M47,28.94c.11-.3.22-.59.36-.9C47.23,28.35,47.11,28.65,47,28.94Z"/><path class="cls-4" d="M46.7,29.9q.1-.34.22-.7Q46.8,29.55,46.7,29.9Z"/><path class="cls-4" d="M34.41,42.31l-.7.23Z"/><path class="cls-4" d="M55.9,20c-.29.11-.59.23-.89.37C55.31,20.18,55.61,20.07,55.9,20Z"/><path class="cls-4" d="M69,8.17,57.8,19.53c-.13.13-.49.05-.71.11.62-.18,1.18-.36,1.76-.49a11.36,11.36,0,0,0,6.47-3.43A11.36,11.36,0,0,0,68.65,9.2c.13-.58.33-1.12.5-1.74C69.09,7.68,69.17,8,69,8.17Z"/><path class="cls-4" d="M56.85,19.63l-.7.23Z"/><path class="cls-4" d="M69.45,6.27c.11-.3.22-.59.36-.9C69.67,5.67,69.55,6,69.45,6.27Z"/><path class="cls-4" d="M69.13,7.23q.1-.35.22-.71Q69.24,6.88,69.13,7.23Z"/><path class="cls-5" d="M62.87,5.31A13.9,13.9,0,0,0,58,8.75L18.49,48.66c-2.21,2.24-4.24,4.28-4.11,7.17L64.14,5.56C64,5.68,63.37,5.39,62.87,5.31Z"/><path class="cls-5" d="M23.43,67.87c3.14,1.37,7.6-.12,11-3.55L71.3,27.06c3.39-3.43,4.83-7.91,3.43-11Z"/><path class="cls-6" d="M67.23,2.66,67,2.9C62.48.06,55.5,1.46,50.51,6.49L11,46.41c-5,5-6.31,12-3.42,16.52l-.24.24a7.18,7.18,0,1,0,10.2,10.1L17.8,73c4.52,2.84,11.49,1.45,16.48-3.59l39.5-39.92c5-5,6.31-12,3.42-16.52l.21-.22,0,0a7.18,7.18,0,0,0-10.2-10.1Zm7.55,7.47,0,0-3.63,3.67A19.49,19.49,0,0,0,72.28,10a11.78,11.78,0,0,1,2.09-5.07,3.42,3.42,0,0,1,.41,5.19ZM31.62,66.8c-3.39,3.43-8,4.76-11.09,3.45L74.46,15.76c1.33,3.06.06,7.69-3.34,11.12ZM10,70.66a3.42,3.42,0,0,1-.33-.38A11.75,11.75,0,0,1,14.8,68.1a19.47,19.47,0,0,0,3.81-1.2l-3.7,3.74A3.45,3.45,0,0,1,10,70.66ZM53.17,9.12c3.39-3.43,8-4.76,11.09-3.45L10.33,60.16C9,57.1,10.28,52.47,13.67,49ZM49.84,32.69a11.36,11.36,0,0,1,3.35-6.52,11.36,11.36,0,0,1,6.48-3.41,19.48,19.48,0,0,0,3.81-1.2l-14.8,15A19.49,19.49,0,0,0,49.84,32.69Zm-7,5.7a11.36,11.36,0,0,1-6.48,3.41A19.49,19.49,0,0,0,32.57,43l14.8-15a19.49,19.49,0,0,0-1.16,3.82A11.36,11.36,0,0,1,42.86,38.38Zm-5.62,7A19.49,19.49,0,0,0,41,44.23l-14.8,15a19.49,19.49,0,0,0,1.16-3.82,12.16,12.16,0,0,1,9.83-9.93ZM65.29,15.71a11.36,11.36,0,0,1-6.48,3.41A19.48,19.48,0,0,0,55,20.32l14.8-15a19.44,19.44,0,0,0-1.17,3.82A11.36,11.36,0,0,1,65.29,15.71Zm-40.37,35a19.48,19.48,0,0,0-1.16,3.82,11.36,11.36,0,0,1-3.35,6.52,11.36,11.36,0,0,1-6.48,3.41,19.43,19.43,0,0,0-3.81,1.21Z"/><path class="cls-4" d="M14,64.52a11.36,11.36,0,0,0,6.46-3.44,11.35,11.35,0,0,0,3.33-6.53C23.91,54,13.41,64.66,14,64.52Z"/><path class="cls-4" d="M12,65l-.71.23Z"/><path class="cls-4" d="M11,65.31c-.3.11-.59.23-.9.37C10.43,65.54,10.73,65.42,11,65.31Z"/><path class="cls-4" d="M24.26,52.58q.1-.35.22-.7Q24.36,52.23,24.26,52.58Z"/></g></svg>