<svg id="Layer_1" data-name="Layer 1" xmlns="http://www.w3.org/2000/svg" xmlns:xlink="http://www.w3.org/1999/xlink" viewBox="0 0 80 86"><defs><clipPath id="clip-path"><path d="M79.76-14.76H.74S.82,44.79.82,46.14a39.47,39.47,0,1,0,78.93,0Z" fill="none"/></clipPath><clipPath id="clip-path-2"><rect x="6.85" y="0.73" width="68.91" height="90.81" fill="none"/></clipPath></defs><title>snack</title><g clip-path="url(#clip-path)"><circle cx="40.25" cy="46.14" r="39.47" fill="#fee4d2"/><path d="M29.36,86.95h4.56l-.66-15.56a21.89,21.89,0,0,1-6.1-2.94Zm0,0" fill="#ee8826"/><path d="M37.57,72.32l.62,14.63h6l.62-14.63a27.58,27.58,0,0,1-7.2,0Zm0,0" fill="#cf5a3f"/><path d="M55.16,68.45a21.91,21.91,0,0,1-6.1,2.94l-.66,15.56H53l0-.15Zm0,0" fill="#ee8826"/><path d="M14.69,33.72,24.36,81,22.25,63.09a11.85,11.85,0,0,1-1.39-5.54,11.66,11.66,0,0,1,.39-3l-2.83-23.8.34,2.93h-4Zm0,0" fill="#cf5a3f"/><path d="M54.76,51.85l-.25-.25.25.25Zm0,0" fill="#85bd94"/><path d="M53.69,50.84l.27.23-.27-.23Zm0,0" fill="#85bd94"/><path d="M55.36,52.54a20.59,20.59,0,0,0-11-2.94A20.22,20.22,0,0,0,32.76,53c-2.86,2-4.43,4.65-4.43,7.39a8,8,0,0,0,1.84,5,20.54,20.54,0,0,0,11,3A20.21,20.21,0,0,0,52.8,64.92c2.86-2,4.43-4.65,4.43-7.39a8,8,0,0,0-1.87-5Zm0,0" fill="#85bd94"/><path d="M31.55,30.78l.11,2.93H23l1.78,15a18,18,0,0,1,2.26-2,21.32,21.32,0,0,1,5-2.59Zm0,0" fill="#ee8826"/><path d="M35.93,33.72l.4,9.31a27.63,27.63,0,0,1,4.84-.47A27.64,27.64,0,0,1,46,43l.4-9.33Zm0,0" fill="#cf5a3f"/><path d="M63.59,33.72l-2.49,21a11.18,11.18,0,0,1,.39,2.91,12.13,12.13,0,0,1-1.39,5.61l-2.83,24h2l10.9-53.47Zm0,0" fill="#cf5a3f"/><path d="M50.66,33.72l.12-2.93-.56,13.33a21.35,21.35,0,0,1,5,2.59,18.14,18.14,0,0,1,2.26,2l1.79-15H50.66Zm0,0" fill="#ee8826"/><path d="M19.73,14.41a2.37,2.37,0,0,1-.53-.15,2.41,2.41,0,0,0,.53.15Zm0,0" fill="#fdd44b"/><path d="M25.83,8.78l-.32,0a2.37,2.37,0,0,0-.43,0l-.07,0a2.13,2.13,0,0,1-2.06-.66,2.35,2.35,0,0,0-1.75-.79,2.39,2.39,0,0,0-.47,0,2.34,2.34,0,0,0-1.28,3.86,2.13,2.13,0,0,1,.43,2.09,2.32,2.32,0,0,0-.09,1.07,2.17,2.17,0,0,0,.33,0,2.31,2.31,0,0,0,.47,0,2.35,2.35,0,0,0,1.75-1.56A2.13,2.13,0,0,1,24,11.41H24a2.35,2.35,0,0,0,1.79-2.63Zm0,0" fill="#fdd44b"/><path d="M31.81,18,32,18,31.81,18Zm0,0" fill="#fdd44b"/><path d="M32.19,18.16l.17.12-.17-.12Zm0,0" fill="#fdd44b"/><path d="M26.45,24.72s0-.1,0-.15,0,.1,0,.15Zm0,0" fill="#fdd44b"/><path d="M31.39,17.84l.15,0-.15,0Zm0,0" fill="#fdd44b"/><path d="M33.18,19.51a2.15,2.15,0,0,1,.06.25,2.22,2.22,0,0,0-.06-.25Zm0,0" fill="#fdd44b"/><path d="M33,19.1a2.23,2.23,0,0,1,.1.22,2.1,2.1,0,0,0-.1-.22Zm0,0" fill="#fdd44b"/><path d="M32.81,18.74l.13.19-.13-.19Zm0,0" fill="#fdd44b"/><path d="M32.68,18.58l-.15-.16.15.16Zm0,0" fill="#fdd44b"/><path d="M26.62,25.16c0-.06-.06-.11-.08-.17s.06.11.08.17Zm0,0" fill="#fdd44b"/><path d="M33.25,19.8l-.33,0a2.32,2.32,0,0,0-1.17.32,2.13,2.13,0,0,1-2.13,0,2.3,2.3,0,0,0-1.17-.32,2.34,2.34,0,0,0-1.17,4.38A2.12,2.12,0,0,1,28.34,26s0,0,0,.07a2.56,2.56,0,0,0,0,.28,2.28,2.28,0,0,0,.34,0A2.35,2.35,0,0,0,31,24.13s0,0,0,0a2.12,2.12,0,0,1,1.06-1.91,2.37,2.37,0,0,0,.85-.85l.15-.3a2.32,2.32,0,0,0,.18-.88,2.69,2.69,0,0,0,0-.34Zm0,0" fill="#fdd44b"/><path d="M27.89,26.28l-.22-.1.22.1Zm0,0" fill="#fdd44b"/><path d="M28.31,26.39l-.24-.06.24.06Zm0,0" fill="#fdd44b"/><path d="M26.86,25.53l-.12-.16.12.16Zm0,0" fill="#fdd44b"/><path d="M27.5,26.09,27.31,26l.19.13Zm0,0" fill="#fdd44b"/><path d="M27,25.69l.16.15L27,25.69Zm0,0" fill="#fdd44b"/><path d="M65.09,6.43a2.26,2.26,0,0,1,.23.44,2.26,2.26,0,0,0-.23-.44Zm0,0" fill="#fdd44b"/><path d="M65.35,7a2.58,2.58,0,0,1,.1.38,2.41,2.41,0,0,0-.1-.38Zm0,0" fill="#fdd44b"/><path d="M65.45,7.39a2.35,2.35,0,0,0-2.09.76,2.13,2.13,0,0,1-2.07.66l-.06,0a2.34,2.34,0,0,0-2.74,2.65l-.13,0A2.13,2.13,0,0,1,60,12.84a2.35,2.35,0,0,0,1.75,1.56,2.32,2.32,0,0,0,.48,0,2.29,2.29,0,0,0,.9-.19l.26-.12a2.36,2.36,0,0,0,1.14-1.57,2.31,2.31,0,0,0-.08-1.21,2.13,2.13,0,0,1,.43-2.09,2.29,2.29,0,0,0,.56-1.89Zm0,0" fill="#fdd44b"/><path d="M11.87,25.12,11.79,25l.08.17Zm0,0" fill="#fdd44b"/><path d="M12.11,25.5,12,25.34l.12.16Zm0,0" fill="#fdd44b"/><path d="M11.7,24.68s0-.1,0-.15,0,.1,0,.15Zm0,0" fill="#fdd44b"/><path d="M12.93,26.18l.22.1-.22-.1Zm0,0" fill="#fdd44b"/><path d="M17.36,18.1a2.43,2.43,0,0,1,.39.29,2.43,2.43,0,0,0-.39-.29Zm0,0" fill="#fdd44b"/><path d="M17.8,18.43a2.31,2.31,0,0,1,.31.36,2.31,2.31,0,0,0-.31-.36Zm0,0" fill="#fdd44b"/><path d="M19.61,22.05a2.13,2.13,0,0,1-1.06-1.89s0-.05,0-.08a2.35,2.35,0,0,0-.16-.78,2.3,2.3,0,0,1,.13.5l-.34,0a2.35,2.35,0,0,0-2.35,2.3s0,0,0,.07A2.13,2.13,0,0,1,14.78,24a2.3,2.3,0,0,0-1.15,2.36,2.44,2.44,0,0,0,.34,0,2.32,2.32,0,0,0,1.17-.32,2.12,2.12,0,0,1,2.13,0,2.31,2.31,0,0,0,1.17.32,2.34,2.34,0,0,0,1.17-4.38Zm0,0" fill="#fdd44b"/><path d="M12.25,25.68l.16.15-.16-.15Zm0,0" fill="#fdd44b"/><path d="M18.15,18.84a2.27,2.27,0,0,1,.23.42,2.36,2.36,0,0,0-.23-.42Zm0,0" fill="#fdd44b"/><path d="M13.57,26.39l-.24-.06.24.06Zm0,0" fill="#fdd44b"/><path d="M12.57,26l.19.13L12.57,26Zm0,0" fill="#fdd44b"/><path d="M40.71,17.84l.26,0-.26,0Zm0,0" fill="#fdd44b"/><path d="M40.28,18h0Zm0,0" fill="#fdd44b"/><path d="M39.88,18.18l.07,0-.07,0Zm0,0" fill="#fdd44b"/><path d="M38.85,20s0,.08,0,.12,0-.08,0-.12Zm0,0" fill="#fdd44b"/><path d="M39.64,18.38l-.1.08.1-.08Zm0,0" fill="#fdd44b"/><path d="M43.35,19.25a2.33,2.33,0,0,0-.57-.82,2.35,2.35,0,0,1,.57.82Zm0,0" fill="#fdd44b"/><path d="M39,19.2c0-.05.05-.1.08-.14s-.06.09-.08.14Zm0,0" fill="#fdd44b"/><path d="M43.38,19.36a2.49,2.49,0,0,1,.1.38,2.49,2.49,0,0,0-.1-.38Zm0,0" fill="#fdd44b"/><path d="M41.67,17.85a2.39,2.39,0,0,0-.49-.05,2.32,2.32,0,0,1,.49.05Zm0,0" fill="#fdd44b"/><path d="M41.76,17.87a2.23,2.23,0,0,1,.37.12,2.19,2.19,0,0,0-.37-.12Zm0,0" fill="#fdd44b"/><path d="M42.38,18.13a2.26,2.26,0,0,1,.32.23,2.26,2.26,0,0,0-.32-.23Zm0,0" fill="#fdd44b"/><path d="M39.25,18.8l.1-.12-.1.12Zm0,0" fill="#fdd44b"/><path d="M37.23,25.68l.16.15-.16-.15Zm0,0" fill="#fdd44b"/><path d="M37.09,25.5,37,25.34l.12.16Zm0,0" fill="#fdd44b"/><path d="M38.89,19.63s0-.09,0-.14,0,.09,0,.14Zm0,0" fill="#fdd44b"/><path d="M45.63,23.33c-.1-.18-.19-.36-.27-.55a2.36,2.36,0,0,0-.78-.73,2.13,2.13,0,0,1-1.06-1.89s0,0,0-.07a2.4,2.4,0,0,0,0-.29l-.33,0a2.35,2.35,0,0,0-2.35,2.3s0,0,0,.07A2.13,2.13,0,0,1,39.76,24a2.31,2.31,0,0,0-1.15,2.36,2.47,2.47,0,0,0,.34,0,2.32,2.32,0,0,0,1.17-.32,2.12,2.12,0,0,1,2.13,0,2.32,2.32,0,0,0,1.17.32,2.35,2.35,0,0,0,2.35-2.35,2.28,2.28,0,0,0-.13-.75Zm0,0" fill="#fdd44b"/><path d="M38.55,26.39l-.24-.06.24.06Zm0,0" fill="#fdd44b"/><path d="M37.55,26l.19.13L37.55,26Zm0,0" fill="#fdd44b"/><path d="M37.91,26.18l.22.1-.22-.1Zm0,0" fill="#fdd44b"/><path d="M36.64,24.54c0,.05,0,.1,0,.15s0-.1,0-.15Zm0,0" fill="#fdd44b"/><path d="M36.77,23.2h0Zm0,0" fill="#fdd44b"/><path d="M36.64,23.68l0-.09,0,.09Zm0,0" fill="#fdd44b"/><path d="M36.77,25l.08.17L36.77,25Zm0,0" fill="#fdd44b"/><path d="M65.55,17.87l.09,0-.09,0Zm0,0" fill="#fdd44b"/><path d="M65.19,18h0l-.19.1-.08,0,.29-.15Zm0,0" fill="#fdd44b"/><path d="M64.24,18.76a2.36,2.36,0,0,1,.21-.24,2.36,2.36,0,0,0-.21.24Zm0,0" fill="#fdd44b"/><path d="M64.51,18.45a2.38,2.38,0,0,1,.28-.22,2.38,2.38,0,0,0-.28.22Zm0,0" fill="#fdd44b"/><path d="M63.84,19.68a2.26,2.26,0,0,0,0,.41h0a2.29,2.29,0,0,1,0-.41Zm0,0" fill="#fdd44b"/><path d="M68.34,19.37a2.26,2.26,0,0,1,.1.37,2.26,2.26,0,0,0-.1-.37Zm0,0" fill="#fdd44b"/><path d="M66.13,17.79a2.34,2.34,0,0,1,.49.05,2.35,2.35,0,0,0-.49-.05Zm0,0" fill="#fdd44b"/><path d="M68.3,19.25a2.36,2.36,0,0,0-.57-.82,2.35,2.35,0,0,1,.57.82Zm0,0" fill="#fdd44b"/><path d="M66.72,17.88a2.27,2.27,0,0,1,.36.12,2.27,2.27,0,0,0-.36-.12Zm0,0" fill="#fdd44b"/><path d="M67.34,18.13a2.37,2.37,0,0,1,.31.23,2.37,2.37,0,0,0-.31-.23Zm0,0" fill="#fdd44b"/><path d="M66.13,17.79h0Zm0,0" fill="#fdd44b"/><path d="M62.5,26l.19.13L62.5,26Zm0,0" fill="#fdd44b"/><path d="M64,19.19a2.32,2.32,0,0,1,.19-.34,2.4,2.4,0,0,0-.19.34Zm0,0" fill="#fdd44b"/><path d="M62,25.5l-.12-.16.12.16Zm0,0" fill="#fdd44b"/><path d="M69.54,22.05a2.13,2.13,0,0,1-1.06-1.89s0,0,0-.07a2.2,2.2,0,0,0,0-.29l-.33,0a2.35,2.35,0,0,0-2.35,2.3s0,0,0,.07A2.13,2.13,0,0,1,64.71,24a2.3,2.3,0,0,0-1.15,2.36,2.44,2.44,0,0,0,.34,0,2.31,2.31,0,0,0,1.17-.32,2.12,2.12,0,0,1,2.13,0,2.31,2.31,0,0,0,1.17.32,2.34,2.34,0,0,0,1.17-4.38Zm0,0" fill="#fdd44b"/><path d="M63.51,26.39l-.24-.06.24.06Zm0,0" fill="#fdd44b"/><path d="M62.18,25.68l.15.15-.15-.15Zm0,0" fill="#fdd44b"/><path d="M62.86,26.18l.22.1-.22-.1Zm0,0" fill="#fdd44b"/><path d="M63.86,19.58a2.47,2.47,0,0,1,.12-.36,2.47,2.47,0,0,0-.12.36Zm0,0" fill="#fdd44b"/><path d="M61.8,25.12c0-.06-.06-.11-.08-.16s.05.11.08.16Zm0,0" fill="#fdd44b"/><path d="M61.64,24.68s0-.1,0-.15,0,.1,0,.15Zm0,0" fill="#fdd44b"/><path d="M35,5.08a2.35,2.35,0,0,1,.37.12A2.35,2.35,0,0,0,35,5.08Zm0,0" fill="#fdd44b"/><path d="M33.52,5.19a2.35,2.35,0,0,0-1.36,1.64,2.35,2.35,0,0,1,1.36-1.64Zm0,0" fill="#fdd44b"/><path d="M34.46,5A2.35,2.35,0,0,0,34,5a2.35,2.35,0,0,1,.47,0Zm0,0" fill="#fdd44b"/><path d="M33.55,5.17a2.36,2.36,0,0,1,.34-.11,2.36,2.36,0,0,0-.34.11Zm0,0" fill="#fdd44b"/><path d="M35.66,5.33a2.46,2.46,0,0,1,.32.23,2.46,2.46,0,0,0-.32-.23Zm0,0" fill="#fdd44b"/><path d="M36.66,6.57a2.42,2.42,0,0,1,.1.37,2.42,2.42,0,0,0-.1-.37Zm0,0" fill="#fdd44b"/><path d="M36.62,6.45a2.34,2.34,0,0,0-.57-.82,2.35,2.35,0,0,1,.57.82Zm0,0" fill="#fdd44b"/><path d="M34.46,5a2.31,2.31,0,0,1,.49.05A2.4,2.4,0,0,0,34.46,5Zm0,0" fill="#fdd44b"/><path d="M32.16,6.91a2.29,2.29,0,0,0,0,.38h0a2.33,2.33,0,0,1,0-.38Zm0,0" fill="#fdd44b"/><path d="M31.83,13.59l-.24-.06.24.06Zm0,0" fill="#fdd44b"/><path d="M30.82,13.16l.19.13-.19-.13Zm0,0" fill="#fdd44b"/><path d="M30.51,12.88l.15.15-.15-.15Zm0,0" fill="#fdd44b"/><path d="M30.36,12.7l-.12-.16.12.16Zm0,0" fill="#fdd44b"/><path d="M37.86,9.25A2.13,2.13,0,0,1,36.8,7.34s0,0,0,0a2.22,2.22,0,0,0,0-.29l-.33,0a2.35,2.35,0,0,0-2.35,2.3s0,0,0,.07A2.12,2.12,0,0,1,33,11.24a2.36,2.36,0,0,0-1.18,2,2.33,2.33,0,0,0,0,.33,2.14,2.14,0,0,0,1.51-.28,2.13,2.13,0,0,1,2.13,0,2.32,2.32,0,0,0,1.17.32,2.34,2.34,0,0,0,1.17-4.38Zm0,0" fill="#fdd44b"/><path d="M30,11.88s0-.09,0-.14,0,.1,0,.14Zm0,0" fill="#fdd44b"/><path d="M30.56,9.63a2.35,2.35,0,0,0-.69,1.65,2.35,2.35,0,0,1,.69-1.65Zm0,0" fill="#fdd44b"/><path d="M31.19,13.38l.22.1-.22-.1Zm0,0" fill="#fdd44b"/><path d="M30.13,12.32c0-.06-.06-.11-.08-.16s.05.11.08.16Zm0,0" fill="#fdd44b"/><path d="M48.46,5.08a2.3,2.3,0,0,1,.36.12,2.3,2.3,0,0,0-.36-.12Zm0,0" fill="#fdd44b"/><path d="M46.57,5.39a2.56,2.56,0,0,0-.34.27,2.56,2.56,0,0,1,.34-.27Zm0,0" fill="#fdd44b"/><path d="M47,5.17a2.22,2.22,0,0,1,.36-.11,2.27,2.27,0,0,0-.36.11Zm0,0" fill="#fdd44b"/><path d="M45.57,7a2.26,2.26,0,0,0,0,.32h0a2.28,2.28,0,0,1,0-.33Zm0,0" fill="#fdd44b"/><path d="M45.95,6a2.34,2.34,0,0,1,.26-.31,2.34,2.34,0,0,0-.26.31Zm0,0" fill="#fdd44b"/><path d="M46.58,5.38a2.31,2.31,0,0,1,.3-.16,2.31,2.31,0,0,0-.3.16Zm0,0" fill="#fdd44b"/><path d="M50,6.45a2.32,2.32,0,0,0-.57-.82,2.35,2.35,0,0,1,.57.82Zm0,0" fill="#fdd44b"/><path d="M47.88,5a2.36,2.36,0,0,0-.47,0,2.37,2.37,0,0,1,.47,0Zm0,0" fill="#fdd44b"/><path d="M50.08,6.57a2.38,2.38,0,0,1,.1.37,2.34,2.34,0,0,0-.1-.37Zm0,0" fill="#fdd44b"/><path d="M47.88,5a2.28,2.28,0,0,1,.49.05A2.37,2.37,0,0,0,47.88,5Zm0,0" fill="#fdd44b"/><path d="M49.08,5.33a2.49,2.49,0,0,1,.31.23,2.49,2.49,0,0,0-.31-.23Zm0,0" fill="#fdd44b"/><path d="M45.73,6.4A2.36,2.36,0,0,1,45.94,6a2.36,2.36,0,0,0-.22.39Zm0,0" fill="#fdd44b"/><path d="M43.93,12.88l.16.15-.16-.15Zm0,0" fill="#fdd44b"/><path d="M43.78,12.7l-.12-.16.12.16Zm0,0" fill="#fdd44b"/><path d="M44.24,13.16l.19.13-.19-.13Zm0,0" fill="#fdd44b"/><path d="M51.28,9.25a2.12,2.12,0,0,1-1.06-1.89s0,0,0-.07a2.2,2.2,0,0,0,0-.29l-.33,0a2.35,2.35,0,0,0-2.35,2.3s0,0,0,.07a2.12,2.12,0,0,1-1.06,1.89,2.36,2.36,0,0,0-1.18,2,2.33,2.33,0,0,0,0,.33,2.27,2.27,0,0,0,.34,0,2.31,2.31,0,0,0,1.17-.32,2.13,2.13,0,0,1,2.13,0,2.31,2.31,0,0,0,1.17.32,2.34,2.34,0,0,0,1.17-4.38Zm0,0" fill="#fdd44b"/><path d="M45.25,13.59,45,13.53l.24.06Zm0,0" fill="#fdd44b"/><path d="M45.59,6.83a2.29,2.29,0,0,1,.12-.36,2.29,2.29,0,0,0-.12.36Zm0,0" fill="#fdd44b"/><path d="M44.47,9.25a2.11,2.11,0,0,0,1-1.74,2.12,2.12,0,0,1-1,1.75,2.36,2.36,0,0,0-1.18,2,2.36,2.36,0,0,1,1.18-2Zm0,0" fill="#fdd44b"/><path d="M44.61,13.38l.22.1-.22-.1Zm0,0" fill="#fdd44b"/><path d="M43.55,12.32l-.08-.17.08.17Zm0,0" fill="#fdd44b"/><path d="M43.38,11.88s0-.1,0-.14,0,.1,0,.14Zm0,0" fill="#fdd44b"/><path d="M54.7,18.11a2.32,2.32,0,0,1,1.17-.32,2.3,2.3,0,0,0-1.17.32,2.07,2.07,0,0,1-.42.17,2.07,2.07,0,0,0,.42-.17Zm0,0" fill="#fdd44b"/><path d="M56.75,18l.17.08L56.75,18Zm0,0" fill="#fdd44b"/><path d="M56.33,17.84l.14,0-.14,0Zm0,0" fill="#fdd44b"/><path d="M54.15,18.33h0Zm0,0" fill="#fdd44b"/><path d="M51.4,17.87a2.35,2.35,0,0,0-2.16,1.43,2.35,2.35,0,0,1,2.16-1.43Zm0,0" fill="#fdd44b"/><path d="M57.13,18.16l.16.12-.16-.12Zm0,0" fill="#fdd44b"/><path d="M57.62,18.58l-.15-.16.15.16Zm0,0" fill="#fdd44b"/><path d="M58.12,19.51a2.49,2.49,0,0,1,.06.25,2.49,2.49,0,0,0-.06-.25Zm0,0" fill="#fdd44b"/><path d="M57.75,18.74l.13.19-.13-.19Zm0,0" fill="#fdd44b"/><path d="M49.09,20.51v0Zm0,0" fill="#fdd44b"/><path d="M58,19.1a2.41,2.41,0,0,1,.1.22,2.41,2.41,0,0,0-.1-.22Zm0,0" fill="#fdd44b"/><path d="M52.83,26.28l-.22-.1.22.1Zm0,0" fill="#fdd44b"/><path d="M51.8,25.53l-.13-.17.13.17Zm0,0" fill="#fdd44b"/><path d="M52.45,26.1,52.25,26l.19.13Zm0,0" fill="#fdd44b"/><path d="M58.19,19.8l-.33,0a2.32,2.32,0,0,0-1.17.32,2.13,2.13,0,0,1-2.13,0,2.3,2.3,0,0,0-1.17-.32,2.34,2.34,0,0,0-1.17,4.38A2.13,2.13,0,0,1,53.28,26s0,0,0,.07a2.07,2.07,0,0,0,0,.28,2.24,2.24,0,0,0,.34,0A2.35,2.35,0,0,0,56,24.13s0,0,0-.07A2.13,2.13,0,0,1,57,22.17a2.36,2.36,0,0,0,1.18-2,2.24,2.24,0,0,0,0-.34Zm0,0" fill="#fdd44b"/><path d="M53.25,26.39,53,26.33l.24.06Zm0,0" fill="#fdd44b"/><path d="M51.94,25.69l.16.15-.16-.15Zm0,0" fill="#fdd44b"/><path d="M51.56,25.16,51.47,25l.09.17Zm0,0" fill="#fdd44b"/><path d="M51.3,24.17s0,0,0,0,0,0,0-.07a2.12,2.12,0,0,0-1.06-1.89h0a2.13,2.13,0,0,1,1.06,1.89v.08s0,0,0,0Zm0,0" fill="#fdd44b"/><path d="M49.79,21.84l0,0,0,0Zm0,0" fill="#fdd44b"/><g clip-path="url(#clip-path-2)"><path d="M51.39,24.74c0-.05,0-.11,0-.16s0,.11,0,.16Zm0,0" fill="#fdd44b"/><path d="M75,27.21a2.15,2.15,0,0,0-.59-.5,6.59,6.59,0,0,0-1.78-7.65A6.62,6.62,0,0,0,68.55,14c.06-.19.11-.38.14-.57a6.57,6.57,0,0,0,.07-2.27,6.6,6.6,0,0,0-9.69-8.64h-.26A6.6,6.6,0,0,0,53.92,4.7,6.6,6.6,0,0,0,41.36,6.26l-.2.18L41,6.26A6.6,6.6,0,0,0,28.41,4.7a6.6,6.6,0,0,0-4.89-2.19h-.26a6.6,6.6,0,0,0-9.69,8.64,6.6,6.6,0,0,0,.06,2.27c0,.19.09.39.15.57a6.62,6.62,0,0,0-4.09,5.06,6.59,6.59,0,0,0-1.78,7.66,2.11,2.11,0,0,0-1,2.27L19.23,89.5a2.13,2.13,0,0,0,2.08,1.7H61a2.13,2.13,0,0,0,2.08-1.7L75.45,29A2.13,2.13,0,0,0,75,27.21ZM57.25,86.95,60.09,63a11.77,11.77,0,0,0,1.39-5.52,11.62,11.62,0,0,0-.39-3l2.83-23.89h6.83L59.28,86.95Zm-13.1,0h-6l-.62-14.63a27.58,27.58,0,0,0,7.2,0ZM13.85,20.09A2.34,2.34,0,0,1,17.17,18l.19.1a2.35,2.35,0,0,1,1.19,2s0,.05,0,.08a2.13,2.13,0,0,0,1.06,1.89,2.34,2.34,0,0,1-1.17,4.38,2.32,2.32,0,0,1-1.17-.32,2.12,2.12,0,0,0-2.13,0,2.31,2.31,0,0,1-1.17.32,2.34,2.34,0,0,1-1.17-4.38,2.13,2.13,0,0,0,1.06-1.89v-.07ZM23,6.82l.07,0a2.4,2.4,0,0,1,.43,0A2.35,2.35,0,0,1,24,11.4H24a2.13,2.13,0,0,0-1.66,1.42,2.36,2.36,0,0,1-1.75,1.56,2.31,2.31,0,0,1-.47,0,2.34,2.34,0,0,1-.9-.19l-.25-.12a2.36,2.36,0,0,1-1.14-1.57,2.32,2.32,0,0,1,.07-1.21,2.13,2.13,0,0,0-.43-2.09,2.34,2.34,0,0,1,1.28-3.86,2.4,2.4,0,0,1,.47,0A2.35,2.35,0,0,1,21,6.17,2.13,2.13,0,0,0,23,6.82Zm9.09.54s0,0,0-.07a2.35,2.35,0,0,1,4.69,0s0,0,0,0a2.13,2.13,0,0,0,1.06,1.91,2.34,2.34,0,0,1-1.17,4.38,2.3,2.3,0,0,1-1.17-.32,2.13,2.13,0,0,0-2.13,0,2.3,2.3,0,0,1-1.17.32,2.34,2.34,0,0,1-1.17-4.38,2.12,2.12,0,0,0,1.06-1.89ZM44.47,9.25a2.13,2.13,0,0,0,1.06-1.89s0,0,0-.07a2.35,2.35,0,0,1,4.69,0s0,0,0,.07a2.12,2.12,0,0,0,1.06,1.89,2.34,2.34,0,0,1-1.17,4.38,2.31,2.31,0,0,1-1.17-.32,2.13,2.13,0,0,0-2.13,0,2.31,2.31,0,0,1-1.17.32,2.34,2.34,0,0,1-1.17-4.38ZM58.81,6.77a2.37,2.37,0,0,1,.43,0l.06,0a2.13,2.13,0,0,0,2.07-.66,2.35,2.35,0,0,1,4.05,2,2.32,2.32,0,0,1-.55,1.08,2.13,2.13,0,0,0-.43,2.09,2.31,2.31,0,0,1,.07,1.21,2.35,2.35,0,0,1-1.14,1.57l-.26.13a2.29,2.29,0,0,1-1.38.14A2.36,2.36,0,0,1,60,12.84a2.13,2.13,0,0,0-1.65-1.42H58.3a2.35,2.35,0,0,1,.52-4.64Zm9.66,13.32s0,0,0,.07a2.13,2.13,0,0,0,1.06,1.89,2.34,2.34,0,0,1-1.17,4.38,2.31,2.31,0,0,1-1.17-.32,2.12,2.12,0,0,0-2.13,0,2.31,2.31,0,0,1-1.17.32,2.34,2.34,0,0,1-1.17-4.38,2.13,2.13,0,0,0,1.06-1.89s0,0,0-.07a2.35,2.35,0,0,1,1.19-2l.19-.1a2.31,2.31,0,0,1,1-.21,2.35,2.35,0,0,1,2.35,2.3ZM33.93,86.95H29.36l-2.19-18.5a21.92,21.92,0,0,0,6.1,2.94Zm2.4-44-.52-12.24H46.52L46,42.93a27.85,27.85,0,0,0-9.68,0ZM24.81,48.58l-2.12-17.9h8.86l.57,13.38a21.39,21.39,0,0,0-5,2.61,17.55,17.55,0,0,0-2.26,1.9Zm32.71,0a17.42,17.42,0,0,0-2.26-1.9,21.39,21.39,0,0,0-5-2.61l.56-13.38h8.86Zm-28,1.56a20.21,20.21,0,0,1,11.63-3.39A20.21,20.21,0,0,1,52.8,50.14c2.86,2,4.43,4.65,4.43,7.39s-1.57,5.36-4.43,7.39a20.21,20.21,0,0,1-11.63,3.39,20.21,20.21,0,0,1-11.63-3.39c-2.86-2-4.43-4.65-4.43-7.39s1.57-5.36,4.43-7.39ZM55.87,17.79A2.34,2.34,0,0,1,57,22.17,2.13,2.13,0,0,0,56,24.06s0,0,0,.07a2.35,2.35,0,0,1-4.69,0s0,0,0-.07a2.13,2.13,0,0,0-1.06-1.89,2.35,2.35,0,0,1-.77-.73c-.08-.19-.17-.37-.27-.55a2.31,2.31,0,0,1-.13-.75,2.35,2.35,0,0,1,2.35-2.35,2.32,2.32,0,0,1,1.17.32,2.13,2.13,0,0,0,2.13,0,2.31,2.31,0,0,1,1.17-.32Zm-12.35,2.3s0,0,0,.07a2.13,2.13,0,0,0,1.06,1.89,2.35,2.35,0,0,1,.78.73q.12.28.27.55a2.31,2.31,0,0,1,.13.75,2.35,2.35,0,0,1-2.35,2.35,2.31,2.31,0,0,1-1.17-.32,2.12,2.12,0,0,0-2.13,0,2.31,2.31,0,0,1-1.17.32,2.35,2.35,0,0,1-2.35-2.35,2.31,2.31,0,0,1,.18-.88l.15-.3a2.35,2.35,0,0,1,.85-.85,2.13,2.13,0,0,0,1.06-1.89s0,0,0-.07a2.35,2.35,0,0,1,4.69,0Zm-13.77-2a2.32,2.32,0,0,1,1.17-.32,2.35,2.35,0,0,1,2.35,2.35,2.32,2.32,0,0,1-.18.88l-.15.3a2.37,2.37,0,0,1-.85.85A2.13,2.13,0,0,0,31,24.08v0a2.35,2.35,0,0,1-4.69,0s0,0,0-.07a2.12,2.12,0,0,0-1.06-1.89,2.34,2.34,0,0,1,1.17-4.38,2.3,2.3,0,0,1,1.17.32,2.13,2.13,0,0,0,2.13,0ZM18.41,30.68l2.83,23.89a11.55,11.55,0,0,0-.39,3A11.77,11.77,0,0,0,22.25,63l2.83,23.9h-2L11.58,30.68ZM53,86.95H48.41l.66-15.56a21.93,21.93,0,0,0,6.1-2.94L53,86.8l0,.15Zm0,0" fill="#402e21"/></g></g></svg>