<svg id="Layer_1" data-name="Layer 1" xmlns="http://www.w3.org/2000/svg" viewBox="0 0 80 86"><title>snack</title><circle cx="40.25" cy="46.14" r="39.47" fill="#fee4d2"/><path d="M30.14,81.31h4.27l-.61-14.54A20.45,20.45,0,0,1,28.09,64Zm0,0" fill="#ee8826"/><path d="M37.81,67.64l.58,13.67H44l.58-13.67a25.77,25.77,0,0,1-6.73,0Zm0,0" fill="#cf5a3f"/><path d="M54.26,64a20.47,20.47,0,0,1-5.7,2.75l-.61,14.54H52.2l0-.14Zm0,0" fill="#ee8826"/><path d="M16.43,31.56l9,44.21L23.49,59a11.08,11.08,0,0,1-1.3-5.18,10.89,10.89,0,0,1,.36-2.78L19.91,28.82l.31,2.74H16.43Zm0,0" fill="#cf5a3f"/><path d="M53.88,48.5l-.23-.23.23.23Zm0,0" fill="#85bd94"/><path d="M52.88,47.56l.25.22-.25-.22Zm0,0" fill="#85bd94"/><path d="M54.44,49.15A19.25,19.25,0,0,0,44.19,46.4a18.9,18.9,0,0,0-10.87,3.16c-2.67,1.9-4.14,4.35-4.14,6.91a7.48,7.48,0,0,0,1.72,4.63,19.19,19.19,0,0,0,10.28,2.79A18.89,18.89,0,0,0,52,60.72c2.67-1.89,4.14-4.35,4.14-6.91a7.5,7.5,0,0,0-1.75-4.67Zm0,0" fill="#85bd94"/><path d="M32.19,28.82l.11,2.74H24.22l1.67,14A16.79,16.79,0,0,1,28,43.72a19.93,19.93,0,0,1,4.71-2.42Zm0,0" fill="#ee8826"/><path d="M36.28,31.56l.37,8.7a25.83,25.83,0,0,1,4.52-.44,25.84,25.84,0,0,1,4.52.47l.37-8.72Zm0,0" fill="#cf5a3f"/><path d="M62.13,31.56,59.8,51.14a10.45,10.45,0,0,1,.36,2.72,11.34,11.34,0,0,1-1.3,5.24L56.21,81.53h1.89l10.19-50Zm0,0" fill="#cf5a3f"/><path d="M50.05,31.56l.11-2.74-.53,12.46a20,20,0,0,1,4.71,2.42,17,17,0,0,1,2.11,1.86l1.67-14H50.05Zm0,0" fill="#ee8826"/><path d="M21.14,13.52a2.21,2.21,0,0,1-.5-.14,2.25,2.25,0,0,0,.5.14Zm0,0" fill="#fdd44b"/><path d="M26.84,8.25l-.3,0a2.21,2.21,0,0,0-.4,0l-.06,0a2,2,0,0,1-1.93-.62,2.2,2.2,0,0,0-1.64-.74,2.24,2.24,0,0,0-.44,0,2.19,2.19,0,0,0-1.2,3.6,2,2,0,0,1,.4,2,2.17,2.17,0,0,0-.09,1,2,2,0,0,0,.31,0,2.15,2.15,0,0,0,.44,0A2.2,2.2,0,0,0,23.57,12a2,2,0,0,1,1.55-1.33h0a2.19,2.19,0,0,0,1.68-2.46Zm0,0" fill="#fdd44b"/><path d="M32.43,16.84l.16.08-.16-.08Zm0,0" fill="#fdd44b"/><path d="M32.78,17l.16.11L32.78,17Zm0,0" fill="#fdd44b"/><path d="M27.42,23.16s0-.09,0-.14,0,.09,0,.14Zm0,0" fill="#fdd44b"/><path d="M32,16.72l.14,0-.14,0Zm0,0" fill="#fdd44b"/><path d="M33.71,18.28a2,2,0,0,1,.06.23,2.08,2.08,0,0,0-.06-.23Zm0,0" fill="#fdd44b"/><path d="M33.57,17.9a2.09,2.09,0,0,1,.09.21,2,2,0,0,0-.09-.21Zm0,0" fill="#fdd44b"/><path d="M33.36,17.56l.12.18-.12-.18Zm0,0" fill="#fdd44b"/><path d="M33.24,17.42l-.14-.15.14.15Zm0,0" fill="#fdd44b"/><path d="M27.58,23.56c0-.05-.06-.1-.08-.16s.05.1.08.16Zm0,0" fill="#fdd44b"/><path d="M33.77,18.56l-.31,0a2.17,2.17,0,0,0-1.1.3,2,2,0,0,1-2,0,2.15,2.15,0,0,0-1.09-.3,2.19,2.19,0,0,0-1.09,4.09,2,2,0,0,1,1,1.77s0,0,0,.07a2.4,2.4,0,0,0,0,.26,2.13,2.13,0,0,0,.31,0,2.2,2.2,0,0,0,2.19-2.15s0,0,0,0a2,2,0,0,1,1-1.79,2.22,2.22,0,0,0,.8-.79l.14-.28a2.17,2.17,0,0,0,.16-.82,2.51,2.51,0,0,0,0-.31Zm0,0" fill="#fdd44b"/><path d="M28.77,24.61l-.21-.09.21.09Zm0,0" fill="#fdd44b"/><path d="M29.16,24.71l-.23-.05.23.05Zm0,0" fill="#fdd44b"/><path d="M27.8,23.91l-.11-.15.11.15Zm0,0" fill="#fdd44b"/><path d="M28.4,24.44l-.18-.12.18.12Zm0,0" fill="#fdd44b"/><path d="M27.93,24.06l.15.14-.15-.14Zm0,0" fill="#fdd44b"/><path d="M63.54,6.06a2.11,2.11,0,0,1,.21.42,2.11,2.11,0,0,0-.21-.42Zm0,0" fill="#fdd44b"/><path d="M63.78,6.57a2.41,2.41,0,0,1,.09.35,2.25,2.25,0,0,0-.09-.35Zm0,0" fill="#fdd44b"/><path d="M63.87,7a2.19,2.19,0,0,0-1.95.71A2,2,0,0,1,60,8.28l-.06,0a2.19,2.19,0,0,0-2.56,2.48l-.12,0A2,2,0,0,1,58.79,12a2.2,2.2,0,0,0,1.64,1.46,2.17,2.17,0,0,0,.45,0,2.14,2.14,0,0,0,.84-.17l.24-.12A2.21,2.21,0,0,0,63,11.8a2.15,2.15,0,0,0-.07-1.13,2,2,0,0,1,.4-2A2.14,2.14,0,0,0,63.87,7Zm0,0" fill="#fdd44b"/><path d="M13.8,23.53l-.08-.16.08.16Zm0,0" fill="#fdd44b"/><path d="M14,23.89l-.11-.15.11.15Zm0,0" fill="#fdd44b"/><path d="M13.64,23.12s0-.09,0-.14,0,.09,0,.14Zm0,0" fill="#fdd44b"/><path d="M14.78,24.52l.21.09-.21-.09Zm0,0" fill="#fdd44b"/><path d="M18.92,17a2.27,2.27,0,0,1,.37.27,2.27,2.27,0,0,0-.37-.27Zm0,0" fill="#fdd44b"/><path d="M19.33,17.27a2.16,2.16,0,0,1,.29.33,2.16,2.16,0,0,0-.29-.33Zm0,0" fill="#fdd44b"/><path d="M21,20.66a2,2,0,0,1-1-1.77s0,0,0-.07a2.2,2.2,0,0,0-.15-.73,2.15,2.15,0,0,1,.12.46l-.31,0a2.2,2.2,0,0,0-2.19,2.15s0,0,0,.07a2,2,0,0,1-1,1.77,2.15,2.15,0,0,0-1.08,2.21,2.28,2.28,0,0,0,.31,0,2.17,2.17,0,0,0,1.09-.3,2,2,0,0,1,2,0,2.16,2.16,0,0,0,1.09.3A2.19,2.19,0,0,0,21,20.66Zm0,0" fill="#fdd44b"/><path d="M14.15,24l.15.14L14.15,24Zm0,0" fill="#fdd44b"/><path d="M19.66,17.65a2.12,2.12,0,0,1,.21.4,2.21,2.21,0,0,0-.21-.4Zm0,0" fill="#fdd44b"/><path d="M15.39,24.71l-.23-.05.23.05Zm0,0" fill="#fdd44b"/><path d="M14.44,24.31l.18.12-.18-.12Zm0,0" fill="#fdd44b"/><path d="M40.75,16.72l.24,0-.24,0Zm0,0" fill="#fdd44b"/><path d="M40.34,16.85h0Zm0,0" fill="#fdd44b"/><path d="M40,17,40,17,40,17Zm0,0" fill="#fdd44b"/><path d="M39,18.71s0,.08,0,.11,0-.08,0-.11Zm0,0" fill="#fdd44b"/><path d="M39.75,17.23l-.09.07.09-.07Zm0,0" fill="#fdd44b"/><path d="M43.21,18a2.18,2.18,0,0,0-.53-.77,2.19,2.19,0,0,1,.53.77Zm0,0" fill="#fdd44b"/><path d="M39.18,18s.05-.09.08-.13-.05.09-.08.13Zm0,0" fill="#fdd44b"/><path d="M43.25,18.14a2.32,2.32,0,0,1,.09.35,2.32,2.32,0,0,0-.09-.35Zm0,0" fill="#fdd44b"/><path d="M41.65,16.73a2.24,2.24,0,0,0-.46-.05,2.17,2.17,0,0,1,.46.05Zm0,0" fill="#fdd44b"/><path d="M41.73,16.75a2.08,2.08,0,0,1,.34.12,2,2,0,0,0-.34-.12Zm0,0" fill="#fdd44b"/><path d="M42.31,17a2.12,2.12,0,0,1,.29.22,2.12,2.12,0,0,0-.29-.22Zm0,0" fill="#fdd44b"/><path d="M39.38,17.62l.1-.11-.1.11Zm0,0" fill="#fdd44b"/><path d="M37.5,24l.15.14L37.5,24Zm0,0" fill="#fdd44b"/><path d="M37.36,23.89l-.11-.15.11.15Zm0,0" fill="#fdd44b"/><path d="M39,18.39s0-.08,0-.13,0,.08,0,.13Zm0,0" fill="#fdd44b"/><path d="M45.35,21.86c-.09-.17-.18-.34-.26-.52a2.21,2.21,0,0,0-.72-.68,2,2,0,0,1-1-1.77s0,0,0-.07a2.24,2.24,0,0,0,0-.27l-.31,0a2.2,2.2,0,0,0-2.19,2.15s0,0,0,.07a2,2,0,0,1-1,1.77,2.16,2.16,0,0,0-1.08,2.21,2.31,2.31,0,0,0,.31,0,2.17,2.17,0,0,0,1.09-.3,2,2,0,0,1,2,0,2.16,2.16,0,0,0,1.09.3,2.2,2.2,0,0,0,2.19-2.19,2.13,2.13,0,0,0-.12-.7Zm0,0" fill="#fdd44b"/><path d="M38.73,24.71l-.22-.05.22.05Zm0,0" fill="#fdd44b"/><path d="M37.79,24.31l.18.12-.18-.12Zm0,0" fill="#fdd44b"/><path d="M38.13,24.52l.21.09-.21-.09Zm0,0" fill="#fdd44b"/><path d="M36.95,23s0,.09,0,.14,0-.09,0-.14Zm0,0" fill="#fdd44b"/><path d="M37.07,21.73h0Zm0,0" fill="#fdd44b"/><path d="M36.94,22.18l0-.08,0,.08Zm0,0" fill="#fdd44b"/><path d="M37.07,23.38l.08.16-.08-.16Zm0,0" fill="#fdd44b"/><path d="M64,16.75l.08,0-.08,0Zm0,0" fill="#fdd44b"/><path d="M63.63,16.87h0l-.18.09-.07,0,.27-.14Zm0,0" fill="#fdd44b"/><path d="M62.74,17.58a2.2,2.2,0,0,1,.19-.23,2.2,2.2,0,0,0-.19.23Zm0,0" fill="#fdd44b"/><path d="M63,17.29a2.22,2.22,0,0,1,.26-.21,2.22,2.22,0,0,0-.26.21Zm0,0" fill="#fdd44b"/><path d="M62.36,18.44a2.11,2.11,0,0,0,0,.38h0a2.14,2.14,0,0,1,0-.39Zm0,0" fill="#fdd44b"/><path d="M66.57,18.15a2.12,2.12,0,0,1,.09.35,2.12,2.12,0,0,0-.09-.35Zm0,0" fill="#fdd44b"/><path d="M64.51,16.68a2.19,2.19,0,0,1,.46,0,2.19,2.19,0,0,0-.46,0Zm0,0" fill="#fdd44b"/><path d="M66.54,18a2.21,2.21,0,0,0-.53-.77,2.2,2.2,0,0,1,.53.77Zm0,0" fill="#fdd44b"/><path d="M65.06,16.76a2.12,2.12,0,0,1,.34.11,2.12,2.12,0,0,0-.34-.11Zm0,0" fill="#fdd44b"/><path d="M65.63,17a2.22,2.22,0,0,1,.29.21,2.22,2.22,0,0,0-.29-.21Zm0,0" fill="#fdd44b"/><path d="M64.51,16.68h0Zm0,0" fill="#fdd44b"/><path d="M61.11,24.31l.18.12-.18-.12Zm0,0" fill="#fdd44b"/><path d="M62.5,18a2.17,2.17,0,0,1,.18-.31,2.24,2.24,0,0,0-.18.31Zm0,0" fill="#fdd44b"/><path d="M60.68,23.88l-.11-.15.11.15Zm0,0" fill="#fdd44b"/><path d="M67.69,20.66a2,2,0,0,1-1-1.77s0,0,0-.07a2.06,2.06,0,0,0,0-.27l-.3,0a2.2,2.2,0,0,0-2.19,2.15s0,0,0,.07a2,2,0,0,1-1,1.77,2.15,2.15,0,0,0-1.08,2.21,2.28,2.28,0,0,0,.31,0,2.16,2.16,0,0,0,1.09-.3,2,2,0,0,1,2,0,2.16,2.16,0,0,0,1.09.3,2.19,2.19,0,0,0,1.09-4.09Zm0,0" fill="#fdd44b"/><path d="M62.06,24.71l-.22-.05.22.05Zm0,0" fill="#fdd44b"/><path d="M60.82,24l.14.14L60.82,24Zm0,0" fill="#fdd44b"/><path d="M61.45,24.52l.2.09-.2-.09Zm0,0" fill="#fdd44b"/><path d="M62.38,18.34a2.31,2.31,0,0,1,.11-.33,2.31,2.31,0,0,0-.11.33Zm0,0" fill="#fdd44b"/><path d="M60.46,23.53c0-.05-.05-.1-.08-.15s0,.1.08.15Zm0,0" fill="#fdd44b"/><path d="M60.31,23.12s0-.09,0-.14,0,.09,0,.14Zm0,0" fill="#fdd44b"/><path d="M35.45,4.79a2.2,2.2,0,0,1,.34.11,2.2,2.2,0,0,0-.34-.11Zm0,0" fill="#fdd44b"/><path d="M34,4.9a2.2,2.2,0,0,0-1.27,1.53A2.2,2.2,0,0,1,34,4.9Zm0,0" fill="#fdd44b"/><path d="M34.9,4.71a2.2,2.2,0,0,0-.43,0,2.2,2.2,0,0,1,.43,0Zm0,0" fill="#fdd44b"/><path d="M34.06,4.88a2.21,2.21,0,0,1,.32-.1,2.21,2.21,0,0,0-.32.1Zm0,0" fill="#fdd44b"/><path d="M36,5a2.3,2.3,0,0,1,.29.21A2.3,2.3,0,0,0,36,5Zm0,0" fill="#fdd44b"/><path d="M37,6.19a2.26,2.26,0,0,1,.09.35A2.26,2.26,0,0,0,37,6.19Zm0,0" fill="#fdd44b"/><path d="M36.93,6.08a2.19,2.19,0,0,0-.53-.77,2.2,2.2,0,0,1,.53.77Zm0,0" fill="#fdd44b"/><path d="M34.9,4.71a2.16,2.16,0,0,1,.46.05,2.24,2.24,0,0,0-.46-.05Zm0,0" fill="#fdd44b"/><path d="M32.75,6.51a2.14,2.14,0,0,0,0,.35h0a2.17,2.17,0,0,1,0-.36Zm0,0" fill="#fdd44b"/><path d="M32.45,12.75l-.23-.05.23.05Zm0,0" fill="#fdd44b"/><path d="M31.51,12.35l.18.12-.18-.12Zm0,0" fill="#fdd44b"/><path d="M31.21,12.08l.14.14-.14-.14Zm0,0" fill="#fdd44b"/><path d="M31.08,11.92,31,11.77l.11.15Zm0,0" fill="#fdd44b"/><path d="M38.09,8.7a2,2,0,0,1-1-1.79s0,0,0,0a2.07,2.07,0,0,0,0-.27l-.3,0a2.2,2.2,0,0,0-2.19,2.15s0,0,0,.07a2,2,0,0,1-1,1.76,2.2,2.2,0,0,0-1.1,1.9,2.18,2.18,0,0,0,0,.31,2,2,0,0,0,1.41-.26,2,2,0,0,1,2,0,2.16,2.16,0,0,0,1.09.3A2.19,2.19,0,0,0,38.09,8.7Zm0,0" fill="#fdd44b"/><path d="M30.7,11.15s0-.09,0-.13,0,.09,0,.13Zm0,0" fill="#fdd44b"/><path d="M31.26,9a2.19,2.19,0,0,0-.64,1.55A2.19,2.19,0,0,1,31.26,9Zm0,0" fill="#fdd44b"/><path d="M31.85,12.55l.2.09-.2-.09Zm0,0" fill="#fdd44b"/><path d="M30.86,11.57c0-.05-.05-.1-.08-.15s0,.1.08.15Zm0,0" fill="#fdd44b"/><path d="M48,4.79a2.15,2.15,0,0,1,.34.11A2.15,2.15,0,0,0,48,4.79Zm0,0" fill="#fdd44b"/><path d="M46.22,5.09a2.39,2.39,0,0,0-.31.25,2.39,2.39,0,0,1,.31-.25Zm0,0" fill="#fdd44b"/><path d="M46.6,4.88a2.08,2.08,0,0,1,.33-.1,2.12,2.12,0,0,0-.33.1Zm0,0" fill="#fdd44b"/><path d="M45.29,6.56a2.11,2.11,0,0,0,0,.3h0a2.13,2.13,0,0,1,0-.3Zm0,0" fill="#fdd44b"/><path d="M45.64,5.66a2.18,2.18,0,0,1,.24-.29,2.18,2.18,0,0,0-.24.29Zm0,0" fill="#fdd44b"/><path d="M46.23,5.08a2.15,2.15,0,0,1,.28-.15,2.15,2.15,0,0,0-.28.15Zm0,0" fill="#fdd44b"/><path d="M49.47,6.08a2.17,2.17,0,0,0-.53-.77,2.2,2.2,0,0,1,.53.77Zm0,0" fill="#fdd44b"/><path d="M47.45,4.71a2.2,2.2,0,0,0-.44,0,2.21,2.21,0,0,1,.44,0Zm0,0" fill="#fdd44b"/><path d="M49.51,6.19a2.22,2.22,0,0,1,.09.35,2.18,2.18,0,0,0-.09-.35Zm0,0" fill="#fdd44b"/><path d="M47.45,4.71a2.13,2.13,0,0,1,.46.05,2.22,2.22,0,0,0-.46-.05Zm0,0" fill="#fdd44b"/><path d="M48.57,5a2.33,2.33,0,0,1,.29.21A2.33,2.33,0,0,0,48.57,5Zm0,0" fill="#fdd44b"/><path d="M45.44,6a2.21,2.21,0,0,1,.2-.36,2.21,2.21,0,0,0-.2.36Zm0,0" fill="#fdd44b"/><path d="M43.76,12.08l.15.14-.15-.14Zm0,0" fill="#fdd44b"/><path d="M43.62,11.92l-.11-.15.11.15Zm0,0" fill="#fdd44b"/><path d="M44.05,12.35l.18.12-.18-.12Zm0,0" fill="#fdd44b"/><path d="M50.63,8.7a2,2,0,0,1-1-1.76s0,0,0-.07a2.05,2.05,0,0,0,0-.27l-.31,0a2.2,2.2,0,0,0-2.19,2.15s0,0,0,.07a2,2,0,0,1-1,1.76,2.2,2.2,0,0,0-1.1,1.9,2.18,2.18,0,0,0,0,.31,2.12,2.12,0,0,0,.31,0,2.16,2.16,0,0,0,1.09-.3,2,2,0,0,1,2,0,2.16,2.16,0,0,0,1.09.3A2.19,2.19,0,0,0,50.63,8.7Zm0,0" fill="#fdd44b"/><path d="M45,12.75l-.23-.05.23.05Zm0,0" fill="#fdd44b"/><path d="M45.31,6.43a2.14,2.14,0,0,1,.11-.34,2.14,2.14,0,0,0-.11.34Zm0,0" fill="#fdd44b"/><path d="M44.26,8.7a2,2,0,0,0,1-1.63,2,2,0,0,1-1,1.63,2.2,2.2,0,0,0-1.1,1.9,2.2,2.2,0,0,1,1.1-1.9Zm0,0" fill="#fdd44b"/><path d="M44.39,12.55l.21.09-.21-.09Zm0,0" fill="#fdd44b"/><path d="M43.4,11.57l-.08-.16.08.16Zm0,0" fill="#fdd44b"/><path d="M43.24,11.15s0-.09,0-.14,0,.09,0,.14Zm0,0" fill="#fdd44b"/><path d="M53.83,17a2.17,2.17,0,0,1,1.09-.3,2.15,2.15,0,0,0-1.09.3,1.93,1.93,0,0,1-.39.16,1.93,1.93,0,0,0,.39-.16Zm0,0" fill="#fdd44b"/><path d="M55.74,16.84l.16.08-.16-.08Zm0,0" fill="#fdd44b"/><path d="M55.35,16.72l.14,0-.14,0Zm0,0" fill="#fdd44b"/><path d="M53.31,17.18h0Zm0,0" fill="#fdd44b"/><path d="M50.74,16.75a2.2,2.2,0,0,0-2,1.34,2.2,2.2,0,0,1,2-1.34Zm0,0" fill="#fdd44b"/><path d="M56.1,17l.15.11L56.1,17Zm0,0" fill="#fdd44b"/><path d="M56.55,17.42l-.14-.15.14.15Zm0,0" fill="#fdd44b"/><path d="M57,18.28a2.32,2.32,0,0,1,.06.23,2.32,2.32,0,0,0-.06-.23Zm0,0" fill="#fdd44b"/><path d="M56.67,17.56l.12.18-.12-.18Zm0,0" fill="#fdd44b"/><path d="M48.58,19.22v0Zm0,0" fill="#fdd44b"/><path d="M56.88,17.9l.09.21a2.25,2.25,0,0,0-.09-.21Zm0,0" fill="#fdd44b"/><path d="M52.08,24.61l-.21-.09.21.09Zm0,0" fill="#fdd44b"/><path d="M51.12,23.91,51,23.75l.12.16Zm0,0" fill="#fdd44b"/><path d="M51.72,24.44l-.18-.12.18.12Zm0,0" fill="#fdd44b"/><path d="M57.08,18.56l-.31,0a2.17,2.17,0,0,0-1.09.3,2,2,0,0,1-2,0,2.15,2.15,0,0,0-1.09-.3,2.19,2.19,0,0,0-1.09,4.09,2,2,0,0,1,1,1.77s0,0,0,.07a1.93,1.93,0,0,0,0,.26,2.1,2.1,0,0,0,.31,0A2.2,2.2,0,0,0,55,22.6s0,0,0-.07a2,2,0,0,1,1-1.77,2.2,2.2,0,0,0,1.1-1.9,2.1,2.1,0,0,0,0-.31Zm0,0" fill="#fdd44b"/><path d="M52.47,24.71l-.23-.05.23.05Zm0,0" fill="#fdd44b"/><path d="M51.24,24.06l.15.14-.15-.14Zm0,0" fill="#fdd44b"/><path d="M50.89,23.57l-.08-.16.08.16Zm0,0" fill="#fdd44b"/><path d="M50.64,22.64s0,0,0,0,0,0,0-.07a2,2,0,0,0-1-1.76h0a2,2,0,0,1,1,1.76v.07s0,0,0,0Zm0,0" fill="#fdd44b"/><path d="M49.24,20.46l0,0,0,0Zm0,0" fill="#fdd44b"/><path d="M50.73,23.17c0-.05,0-.1,0-.15s0,.1,0,.15Zm0,0" fill="#fdd44b"/><path d="M72.81,25.48a2,2,0,0,0-.55-.46,6.16,6.16,0,0,0-1.66-7.15,6.19,6.19,0,0,0-3.83-4.73c.05-.18.1-.35.14-.54A6.14,6.14,0,0,0,67,10.48,6.17,6.17,0,0,0,57.91,2.4h-.24a6.17,6.17,0,0,0-4.57,2A6.17,6.17,0,0,0,41.36,5.9l-.18.17L41,5.9A6.17,6.17,0,0,0,29.25,4.44a6.17,6.17,0,0,0-4.57-2h-.24a6.16,6.16,0,0,0-9.06,8.07,6.17,6.17,0,0,0,.06,2.12c0,.18.08.36.14.54a6.19,6.19,0,0,0-3.83,4.73A6.16,6.16,0,0,0,10.1,25a2,2,0,0,0-1,2.12L20.68,83.7a2,2,0,0,0,1.95,1.59h37.1a2,2,0,0,0,1.95-1.59L73.21,27.13a2,2,0,0,0-.41-1.65ZM56.21,81.31,58.86,59a11,11,0,0,0,1.3-5.15,10.86,10.86,0,0,0-.36-2.77l2.65-22.33h6.39L58.1,81.31ZM44,81.31H38.39l-.58-13.67a25.77,25.77,0,0,0,6.73,0ZM15.65,18.83a2.19,2.19,0,0,1,3.1-2l.18.09A2.19,2.19,0,0,1,20,18.82s0,0,0,.07a2,2,0,0,0,1,1.77,2.19,2.19,0,0,1-1.09,4.09,2.17,2.17,0,0,1-1.09-.3,2,2,0,0,0-2,0,2.16,2.16,0,0,1-1.09.3,2.19,2.19,0,0,1-1.09-4.09,2,2,0,0,0,1-1.77v-.07Zm8.57-12.4.06,0a2.24,2.24,0,0,1,.4,0,2.19,2.19,0,0,1,.48,4.33h0A2,2,0,0,0,23.57,12a2.2,2.2,0,0,1-1.64,1.46,2.15,2.15,0,0,1-.44,0,2.18,2.18,0,0,1-.84-.17l-.24-.12a2.21,2.21,0,0,1-1.06-1.46,2.17,2.17,0,0,1,.07-1.13,2,2,0,0,0-.4-2,2.19,2.19,0,0,1,1.2-3.6,2.24,2.24,0,0,1,.44,0,2.19,2.19,0,0,1,1.64.74,2,2,0,0,0,1.93.62Zm8.5.5s0,0,0-.07a2.19,2.19,0,0,1,4.39,0s0,0,0,0a2,2,0,0,0,1,1.79A2.19,2.19,0,0,1,37,12.79a2.15,2.15,0,0,1-1.09-.3,2,2,0,0,0-2,0,2.15,2.15,0,0,1-1.09.3A2.19,2.19,0,0,1,31.72,8.7a2,2,0,0,0,1-1.76ZM44.26,8.7a2,2,0,0,0,1-1.77s0,0,0-.07a2.19,2.19,0,0,1,4.39,0s0,0,0,.07a2,2,0,0,0,1,1.76,2.19,2.19,0,0,1-1.09,4.09,2.16,2.16,0,0,1-1.09-.3,2,2,0,0,0-2,0,2.16,2.16,0,0,1-1.09.3A2.19,2.19,0,0,1,44.26,8.7ZM57.67,6.37a2.21,2.21,0,0,1,.4,0l.06,0a2,2,0,0,0,1.94-.62A2.19,2.19,0,0,1,63.85,7.7a2.17,2.17,0,0,1-.51,1,2,2,0,0,0-.4,2A2.15,2.15,0,0,1,63,11.8a2.2,2.2,0,0,1-1.06,1.46l-.24.12a2.14,2.14,0,0,1-1.29.13A2.2,2.2,0,0,1,58.78,12a2,2,0,0,0-1.54-1.33h-.05a2.19,2.19,0,0,1,.48-4.33Zm9,12.45s0,0,0,.07a2,2,0,0,0,1,1.77,2.19,2.19,0,0,1-1.09,4.09,2.16,2.16,0,0,1-1.09-.3,2,2,0,0,0-2,0,2.16,2.16,0,0,1-1.09.3,2.19,2.19,0,0,1-1.09-4.09,2,2,0,0,0,1-1.77s0,0,0-.07A2.19,2.19,0,0,1,63.43,17l.18-.09a2.16,2.16,0,0,1,.9-.2,2.2,2.2,0,0,1,2.19,2.15ZM34.41,81.31H30.14L28.09,64a20.49,20.49,0,0,0,5.7,2.75Zm2.24-41.14-.48-11.44h10L45.7,40.17a26,26,0,0,0-9,0ZM25.89,45.45l-2-16.73h8.28l.53,12.5A20,20,0,0,0,28,43.67a16.41,16.41,0,0,0-2.12,1.78Zm30.57,0a16.28,16.28,0,0,0-2.11-1.78,20,20,0,0,0-4.71-2.44l.53-12.5h8.28ZM30.31,46.91a18.89,18.89,0,0,1,10.87-3.17A18.89,18.89,0,0,1,52,46.91c2.67,1.89,4.14,4.35,4.14,6.9s-1.47,5-4.14,6.91a18.89,18.89,0,0,1-10.87,3.17,18.89,18.89,0,0,1-10.87-3.17c-2.67-1.89-4.14-4.35-4.14-6.91s1.47-5,4.14-6.9ZM54.92,16.68A2.19,2.19,0,0,1,56,20.77a2,2,0,0,0-1,1.77s0,0,0,.06a2.19,2.19,0,0,1-4.39,0s0,0,0-.07a2,2,0,0,0-1-1.76,2.2,2.2,0,0,1-.72-.68c-.08-.18-.16-.35-.26-.52a2.16,2.16,0,0,1-.12-.7,2.2,2.2,0,0,1,2.19-2.19,2.17,2.17,0,0,1,1.09.3,2,2,0,0,0,2,0,2.16,2.16,0,0,1,1.09-.3ZM43.38,18.82s0,0,0,.07a2,2,0,0,0,1,1.77,2.2,2.2,0,0,1,.72.68q.12.26.26.52a2.16,2.16,0,0,1,.12.7,2.2,2.2,0,0,1-2.19,2.19,2.16,2.16,0,0,1-1.09-.3,2,2,0,0,0-2,0,2.16,2.16,0,0,1-1.09.3,2.2,2.2,0,0,1-2.19-2.19,2.16,2.16,0,0,1,.16-.82l.14-.28a2.2,2.2,0,0,1,.8-.79,2,2,0,0,0,1-1.77s0,0,0-.07a2.19,2.19,0,0,1,4.39,0ZM30.52,17a2.17,2.17,0,0,1,1.09-.3,2.2,2.2,0,0,1,2.19,2.19,2.17,2.17,0,0,1-.16.82L33.5,20a2.21,2.21,0,0,1-.8.79,2,2,0,0,0-1,1.79v0a2.19,2.19,0,0,1-4.39,0s0,0,0-.07a2,2,0,0,0-1-1.76,2.19,2.19,0,0,1,1.09-4.09,2.15,2.15,0,0,1,1.09.3,2,2,0,0,0,2,0ZM19.91,28.73l2.65,22.33a10.79,10.79,0,0,0-.36,2.77A11,11,0,0,0,23.49,59l2.65,22.34H24.25L13.52,28.73ZM52.2,81.31H47.94l.61-14.54A20.49,20.49,0,0,0,54.26,64l-2,17.15,0,.14Zm0,0" fill="#402e21"/><rect x="9.1" y="0.73" width="64.41" height="84.87" fill="none"/></svg>