<svg id="Layer_1" data-name="Layer 1" xmlns="http://www.w3.org/2000/svg" viewBox="0 0 72.49 104.32"><defs><style>.cls-1{fill:#fff;}</style></defs><title>sox</title><path class="cls-1" d="M64.4,94l-5.77-9.19L69,71.68l3.46,2.79V67l-4.66-4.19L54.92,78.88,53.1,76c1.57-1.18,3.6-2.69,3.82-2.8a6,6,0,0,1,1.77-.75c.42,0-.66-1.87-3.73-1.86V54.07l1.77-2a10,10,0,0,1-3.17,0,7.26,7.26,0,0,1-1-.47A13.85,13.85,0,0,0,54,48.48c2.09-6.62.61-13-4.31-16.66-3.54-2.63-18-10-18-10s-8.75-4.28-9.7-5.22c-.67-.68-2.05-1.72-2.05-5,0-2,2.19-4.15,3.14-4.6,1.51-.72,2-1.05,5.08-1.11a17.44,17.44,0,0,1,3.57.42c1.91.2,6.44,1.69,8.77,4.84.89.89,1.08,3.51,1.08,3.51L45.21,17,53.12,6.63,48.84,3.74a4.43,4.43,0,0,1-4.48.93C43.43,4.21,35.42,1.3,34.29.94A27.07,27.07,0,0,0,25,.13c-2.52.38-6.65,1.14-9.88,4.58-3.77,4-3.82,7.23-3.81,9A12.83,12.83,0,0,0,15,23c4.37,4.36,11,7.09,12.5,7.91,2.65,1.46,11,5.83,12.22,6.53,5.13,3,7.1,6.15,6.54,10.15,0,.2-.07.39-.11.59a43,43,0,0,1-6.7-4.59s-.77.82-1.26,1.31l-3.72,2.79a21.77,21.77,0,0,0,.41-5.21,7.82,7.82,0,0,0-3-5.22,79.63,79.63,0,0,0-9.15-5.31,62.3,62.3,0,0,1-8.49-5.48s-3.91-3.64-4.52-5.88C8.58,18,8.53,11.94,9.13,11.33a14.49,14.49,0,0,0-2.51,5,20.22,20.22,0,0,0-.84,5.22A17.49,17.49,0,0,0,8.87,31.84a20.75,20.75,0,0,0,5,4.66,36.47,36.47,0,0,0,4.93,2.6c.65.46,6.81,3.06,7.37,3.33s4.51,2.32,4.67,2.37A7,7,0,0,1,34,48L27.63,52.8a3,3,0,0,1,.28,1.3v.6A18.09,18.09,0,0,0,25.3,54a22.07,22.07,0,0,0-10.07.16,22.54,22.54,0,0,0-11.18,6C-.05,64.34,0,67.09,0,67.09l4.1-2.43a25.09,25.09,0,0,1,11.14-3.09c7.62,0,11.58,2.19,12.68,3.42,0,3.82,0,7.23,0,7.39,0,1.47-.44,1.65-.76,1.93-.13.11-.23.12-.68.42a3.14,3.14,0,0,1,.71.35c.37.28,14.89,9,14.89,9L47.7,80l2.78,4.42L42.77,94l-5.32-4.84v9l6.06,5.59L54.21,90.33l8.8,14,7.08-5.69v-9ZM36.25,54.37l3.31-2.43a21.46,21.46,0,0,0,3,2l-.12.11s-3.82,3.27-6.2,3.61Zm11.45,13-3.56-5.67-5.41,3.86v6.9l3-2L44,74.07l-1.91,1.55-5.8-3.54V63.31A28.52,28.52,0,0,0,47.68,57C47.71,57.55,47.71,63.43,47.7,67.4Z"/></svg>