<svg id="Layer_1" data-name="Layer 1" xmlns="http://www.w3.org/2000/svg" xmlns:xlink="http://www.w3.org/1999/xlink" viewBox="0 0 80 86"><defs><clipPath id="clip-path"><path d="M79.69-14.76H.67S.75,44.79.75,46.14a39.47,39.47,0,1,0,78.93,0Z" fill="none"/></clipPath><clipPath id="clip-path-2"><rect x="-10.17" y="20.76" width="85.04" height="46.19" transform="translate(-12.7 13.19) rotate(-19.34)" fill="none"/></clipPath></defs><title>taco</title><g clip-path="url(#clip-path)"><circle cx="40.14" cy="46.14" r="39.47" fill="#fee4d2"/><path d="M55.75,28.09a18.92,18.92,0,0,1,4.76-.17,4.86,4.86,0,0,0-.74-.6c-1.38-.9-3.74-.64-6.24-.35a22.93,22.93,0,0,1-6.41.13,11.63,11.63,0,0,1-2.76-.89,16.62,16.62,0,0,0,5,2" fill="#fff"/><path d="M37.37,22.81l.33.11-.33-.11Zm0,0" fill="#85bd94"/><path d="M36.61,22.63l.31.07-.31-.07Zm0,0" fill="#85bd94"/><path d="M35.86,22.54l.26,0-.26,0Zm0,0" fill="#85bd94"/><path d="M17.28,30.13a19.49,19.49,0,0,0,6.86-.67,19.49,19.49,0,0,1-6.86.67c-2.07,0-4-.08-5.45.51,1.41-.59,3.38-.55,5.45-.51Zm0,0" fill="#85bd94"/><path d="M40.52,24.2l.4.22-.4-.22Zm0,0" fill="#85bd94"/><path d="M39.71,23.78l.38.19-.38-.19Zm0,0" fill="#85bd94"/><path d="M38.13,23.07l.35.14-.35-.14Zm0,0" fill="#85bd94"/><path d="M39.28,23.57l-.36-.17.36.17Zm0,0" fill="#85bd94"/><path d="M1.32,68.48l.35.06-.35-.06Zm0,0" fill="#85bd94"/><path d="M0,62.67c.05.25.11.51.18.76-.06-.25-.13-.5-.18-.76Zm0,0" fill="#85bd94"/><path d="M.37,68.1l.21.11L.37,68.1Zm0,0" fill="#85bd94"/><path d="M7.18,42.69l-.53.56.53-.56Zm0,0" fill="#85bd94"/><path d="M64.77,38.84a1.77,1.77,0,0,1-.29-.52c-.39-1.11-.7-2.32-1-3.49-.76-3-1.55-6.09-3.71-7.5-1.38-.9-3.74-.64-6.24-.35a22.91,22.91,0,0,1-6.41.13,18.56,18.56,0,0,1-5.57-2.33L41,24.46a7.24,7.24,0,0,0-3.66-.77c-1.66.18-3.38,1.61-5.21,3.13a19.49,19.49,0,0,1-5.78,3.76,19.49,19.49,0,0,1-6.86.67c-2.37,0-4.61-.09-6,.81-1.73,1.1-2.66,3.35-3.65,5.74a23.62,23.62,0,0,1-2.2,4.42l0,0A45.06,45.06,0,0,1,24.91,31.52,42.63,42.63,0,0,1,49.45,30.2c7.67,2,12.4,6.4,14.51,12.41l2,4.34A6.86,6.86,0,0,0,67.1,45c.61-2.13-1.57-5.26-2.33-6.2Zm0,0" fill="#85bd94"/><path d="M.82,68.32l.3.1-.3-.1Zm0,0" fill="#85bd94"/><path d="M5.86,44.16a30,30,0,0,1-4,2.84c-2.13,1.34-4.14,2.61-4.65,4.17-.8,2.45.52,5.36,1.79,8.18.26.57.52,1.14.77,1.72v.1c-.58-5,1.1-10.45,4.92-15.55.47-.62,1-1.23,1.48-1.83l-.32.36Zm0,0" fill="#85bd94"/><path d="M67.9,37.12l-.18-.24.18.24Zm0,0" fill="#fdd44b"/><path d="M68.06,37.23l0,.18L68,37.27c1.08,1.52,3.35,5.29,2.35,8.79a6.55,6.55,0,0,1-3.61,4.1,6.86,6.86,0,0,1-.39,2.26L70.54,51c2.74-1,4.57-4.18,3.61-6.92l-.43-1.23a14.46,14.46,0,0,0-5.78-6.94c.12.43,0,.93.13,1.36Zm0,0" fill="#fdd44b"/><path d="M8.11,71.06l.12.06-.12-.06Zm0,0" fill="#fdd44b"/><path d="M5.78,68.71l-.07-.14.07.14Zm0,0" fill="#fdd44b"/><path d="M49.71,33.64l.35.11-.35-.11Zm0,0" fill="#fdd44b"/><path d="M6,69.16,5.94,69l.09.15Zm0,0" fill="#fdd44b"/><path d="M54.92,35.93l.36.23-.36-.23Zm0,0" fill="#fdd44b"/><path d="M54.05,35.43l.29.16-.29-.16Zm0,0" fill="#fdd44b"/><path d="M6.3,69.55l-.09-.13.09.13Zm0,0" fill="#fdd44b"/><path d="M50.78,34l.39.14L50.78,34Zm0,0" fill="#fdd44b"/><path d="M51.81,34.38l.38.16-.38-.16Zm0,0" fill="#fdd44b"/><path d="M53.16,35l-.32-.15.32.15Zm0,0" fill="#fdd44b"/><path d="M10.19,71.63l-.18,0,.18,0Zm0,0" fill="#fdd44b"/><path d="M9.73,71.58l-.21,0,.21,0Zm0,0" fill="#fdd44b"/><path d="M14.47,46.72a1.69,1.69,0,0,1-.13-.28,1.69,1.69,0,0,0,.13.28Zm0,0" fill="#fdd44b"/><path d="M6.6,69.92l0,0,0,0Zm0,0" fill="#fdd44b"/><path d="M55.61,36.31c-.81-.3-1.68-.55-2.56-.78-6.75-1.74-14.77-1.2-22.55,1.54A43.12,43.12,0,0,0,17.16,44.5l0,0a1.77,1.77,0,1,1-2.61,2.32l0,.08A30.22,30.22,0,0,0,12,49.94c-4,5.37-5.25,11-3.55,15.85L10,70.3a5.48,5.48,0,0,0,.65,1.36,5,5,0,0,0,1.6-.24L59.71,54.76A5.45,5.45,0,0,0,63,47.94l-1.58-4.5a14.39,14.39,0,0,0-5.85-7.13ZM11.91,57.82a1.77,1.77,0,0,1-3.27-.18A1.77,1.77,0,1,1,12,56.47a1.78,1.78,0,0,1-.08,1.35ZM23.36,63a1.78,1.78,0,1,1,.07-1.35A1.78,1.78,0,0,1,23.36,63Zm2.53-10.09A1.77,1.77,0,1,1,26,51.56a1.77,1.77,0,0,1-.08,1.35Zm9.87,5.74a1.77,1.77,0,1,1,.07-1.35,1.79,1.79,0,0,1-.07,1.35ZM30,42.27a1.76,1.76,0,1,1,.08-1.35A1.77,1.77,0,0,1,30,42.27ZM39.87,48a1.78,1.78,0,1,1,.07-1.35A1.78,1.78,0,0,1,39.87,48Zm8.28,6.3A1.77,1.77,0,1,1,48.23,53a1.77,1.77,0,0,1-.08,1.35ZM42.4,37.92a1.77,1.77,0,1,1,.07-1.35,1.78,1.78,0,0,1-.07,1.35ZM53.85,43.1a1.77,1.77,0,1,1,.08-1.35,1.78,1.78,0,0,1-.08,1.35Zm0,0" fill="#fdd44b"/><path d="M9.27,71.49l-.2-.05.2.05Zm0,0" fill="#fdd44b"/><path d="M7.43,70.65l-.15-.11.15.11Zm0,0" fill="#fdd44b"/><path d="M7,70.35l-.12-.1.12.1Zm0,0" fill="#fdd44b"/><path d="M8.81,71.36l-.18-.06.18.06Zm0,0" fill="#fdd44b"/><g clip-path="url(#clip-path-2)"><path d="M7.82,70.91l-.15-.1.15.1Zm0,0" fill="#fdd44b"/><path d="M64.67,27.6a9.23,9.23,0,0,0-3-3.24c-2.45-1.6-5.56-1.25-8.57-.91a20.47,20.47,0,0,1-5.41.15,16,16,0,0,1-4.45-1.95c-2.52-1.39-5.38-3-8.53-2.62-2.73.3-4.94,2.14-7.09,3.93A17,17,0,0,1,23,26.11a17,17,0,0,1-5.62.48c-2.79-.06-5.68-.11-8,1.36-2.67,1.7-3.92,4.71-5,7.37a16,16,0,0,1-2.26,4.3,20.4,20.4,0,0,1-4.32,3.26C-4.81,44.5-7.46,46.18-8.38,49c-1.23,3.76.45,7.47,1.93,10.74.44,1,.85,1.87,1.17,2.74,0,1.34.11,5.58,2.89,8a7.56,7.56,0,0,0,6.17,1.62,8.81,8.81,0,0,0,9.61,2.6L71.68,54.23A8.81,8.81,0,0,0,77.07,43l-1.58-4.5C73.82,33.72,70.08,30,64.67,27.6Zm9.06,16.58a5.27,5.27,0,0,1-3.22,6.71l-4.18,1.47a8.84,8.84,0,0,0,.4-2.22,6.53,6.53,0,0,0,3.63-4.07c1.09-3.85-1.77-8-2.64-9.18-.3-.9-.55-1.88-.81-2.92-.11-.42-.22-.85-.33-1.29a14.18,14.18,0,0,1,5.58,7ZM5.52,68.12l-1.58-4.5c-1.71-4.86-.43-10.5,3.59-15.87,4.18-5.58,10.76-10.16,18.55-12.89s15.78-3.27,22.53-1.53c6.49,1.68,11,5.28,12.72,10.15L62.91,48a5.27,5.27,0,0,1-3.22,6.71L12.23,71.34a5.27,5.27,0,0,1-6.71-3.22Zm-8.74-9.89c-1.28-2.81-2.6-5.73-1.79-8.18.51-1.57,2.52-2.83,4.65-4.17A22.9,22.9,0,0,0,4.72,42a18.61,18.61,0,0,0,2.89-5.3c1-2.39,1.92-4.64,3.65-5.74,1.41-.9,3.65-.85,6-.81a19.49,19.49,0,0,0,6.86-.67,19.48,19.48,0,0,0,5.78-3.76c1.82-1.52,3.54-3,5.21-3.13,2-.22,4.17,1,6.44,2.2a18.61,18.61,0,0,0,5.57,2.33A23,23,0,0,0,53.53,27c2.5-.28,4.86-.55,6.24.35,2.16,1.41,2.95,4.51,3.71,7.5.3,1.17.61,2.38,1,3.49a1.76,1.76,0,0,0,.29.52c.76.94,2.8,4.12,2.19,6.25a2.42,2.42,0,0,1-.86,1.28L64.67,42.3c-2.11-6-7.5-10.42-15.17-12.4C42.08,28,33.35,28.56,24.91,31.52S9.29,39.49,4.7,45.63C-.05,52-1.51,58.78.6,64.79l1.34,3.8a3.47,3.47,0,0,1-2-.79c-1.6-1.4-1.76-4.45-1.68-5.5a1.77,1.77,0,0,0-.09-.72c-.39-1.11-.91-2.25-1.4-3.35Zm0,0" fill="#402e21"/></g><path d="M10.9,58.73a1.77,1.77,0,1,0-1.17-3.34,1.77,1.77,0,1,0,1.17,3.34Zm0,0" fill="#402e21"/><path d="M52.84,44a1.77,1.77,0,1,0-1.35-.08,1.78,1.78,0,0,0,1.35.08Zm0,0" fill="#402e21"/><path d="M38.86,48.91a1.77,1.77,0,1,0-1.35-.08,1.78,1.78,0,0,0,1.35.08Zm0,0" fill="#402e21"/><path d="M24.88,53.82a1.77,1.77,0,1,0-1.35-.08,1.77,1.77,0,0,0,1.35.08Zm0,0" fill="#402e21"/><path d="M29,43.17a1.77,1.77,0,1,0-1.35-.07,1.77,1.77,0,0,0,1.35.07Zm0,0" fill="#402e21"/><path d="M34.75,59.56a1.77,1.77,0,1,0-1.35-.08,1.79,1.79,0,0,0,1.35.08Zm0,0" fill="#402e21"/><path d="M16.6,47.52a1.77,1.77,0,1,0-2.18-2.44,1.77,1.77,0,0,0,2.18,2.44Zm0,0" fill="#402e21"/><path d="M22.35,63.91A1.77,1.77,0,1,0,21,63.84a1.79,1.79,0,0,0,1.35.08Zm0,0" fill="#402e21"/><path d="M41.39,38.82A1.77,1.77,0,1,0,40,38.75a1.78,1.78,0,0,0,1.35.07Zm0,0" fill="#402e21"/><path d="M47.14,55.21a1.77,1.77,0,1,0-1.35-.08,1.78,1.78,0,0,0,1.35.08Zm0,0" fill="#402e21"/></g></svg>