<svg id="Layer_1" data-name="Layer 1" xmlns="http://www.w3.org/2000/svg" viewBox="0 0 80 86"><title>taco</title><circle cx="40.14" cy="46.14" r="39.47" fill="#fee4d2"/><path d="M60,27.19A17.42,17.42,0,0,1,64.41,27a4.47,4.47,0,0,0-.68-.55c-1.27-.83-3.44-.59-5.74-.32a21.11,21.11,0,0,1-5.9.12,10.71,10.71,0,0,1-2.54-.82,15.3,15.3,0,0,0,4.58,1.85" fill="#fff"/><path d="M43.1,22.33l.31.1-.31-.1Zm0,0" fill="#85bd94"/><path d="M42.41,22.16l.29.06-.29-.06Zm0,0" fill="#85bd94"/><path d="M41.72,22.08l.24,0-.24,0Zm0,0" fill="#85bd94"/><path d="M24.61,29.07a17.94,17.94,0,0,0,6.31-.62,17.94,17.94,0,0,1-6.31.62,13.3,13.3,0,0,0-5,.47,13.3,13.3,0,0,1,5-.47Zm0,0" fill="#85bd94"/><path d="M46,23.61l.37.2-.37-.2Zm0,0" fill="#85bd94"/><path d="M45.26,23.22l.35.18-.35-.18Zm0,0" fill="#85bd94"/><path d="M43.81,22.57l.32.13-.32-.13Zm0,0" fill="#85bd94"/><path d="M44.86,23l-.33-.16.33.16Zm0,0" fill="#85bd94"/><path d="M9.92,64.37l.32.06-.32-.06Zm0,0" fill="#85bd94"/><path d="M8.72,59c0,.23.1.46.16.7-.06-.23-.12-.46-.16-.7Zm0,0" fill="#85bd94"/><path d="M9,64l.2.1L9,64Zm0,0" fill="#85bd94"/><path d="M8.56,58c0,.19.06.38.09.57,0-.19-.06-.38-.09-.57Zm0,0" fill="#85bd94"/><path d="M15.32,40.63l-.48.52.48-.52Zm0,0" fill="#85bd94"/><path d="M68.33,37.09a1.63,1.63,0,0,1-.27-.48c-.36-1-.64-2.14-.92-3.21-.7-2.76-1.43-5.61-3.41-6.91-1.27-.83-3.44-.58-5.74-.32a21.09,21.09,0,0,1-5.9.12A17.08,17.08,0,0,1,47,24.13l-.52-.28a6.66,6.66,0,0,0-3.37-.71C41.54,23.3,40,24.62,38.28,26A17.94,17.94,0,0,1,33,29.48a17.94,17.94,0,0,1-6.31.62c-2.18,0-4.24-.08-5.54.74-1.59,1-2.45,3.09-3.36,5.29a21.74,21.74,0,0,1-2,4.07l0,0a41.48,41.48,0,0,1,15.93-9.87,39.24,39.24,0,0,1,22.59-1.22C61.29,31,65.64,35,67.58,40.55l1.88,4a6.32,6.32,0,0,0,1-1.75c.56-2-1.45-4.84-2.15-5.71Zm0,0" fill="#85bd94"/><path d="M9.46,64.22l.28.09-.28-.09Zm0,0" fill="#85bd94"/><path d="M14.1,42a27.62,27.62,0,0,1-3.69,2.62c-2,1.23-3.81,2.4-4.28,3.84-.74,2.26.48,4.94,1.65,7.53.24.52.48,1.05.7,1.59v.09C8,53,9.51,48,13,43.33c.43-.57.89-1.13,1.36-1.68L14.1,42Zm0,0" fill="#85bd94"/><path d="M71.21,35.5l-.16-.22.16.22Zm0,0" fill="#fdd44b"/><path d="M71.36,35.6l0,.16-.09-.12c1,1.4,3.08,4.87,2.17,8.09a6,6,0,0,1-3.33,3.78,6.31,6.31,0,0,1-.36,2.08l3.85-1.35A5.27,5.27,0,0,0,77,41.87l-.4-1.13a13.31,13.31,0,0,0-5.32-6.39c.11.4,0,.86.12,1.25Zm0,0" fill="#fdd44b"/><path d="M16.17,66.75l.11.06-.11-.06Zm0,0" fill="#fdd44b"/><path d="M14,64.58,14,64.46l.06.13Zm0,0" fill="#fdd44b"/><path d="M54.47,32.3l.32.1-.32-.1Zm0,0" fill="#fdd44b"/><path d="M14.25,65l-.08-.13.08.13Zm0,0" fill="#fdd44b"/><path d="M59.26,34.4l.33.21-.33-.21Zm0,0" fill="#fdd44b"/><path d="M58.47,33.94l.27.15-.27-.15Zm0,0" fill="#fdd44b"/><path d="M14.5,65.36l-.08-.12.08.12Zm0,0" fill="#fdd44b"/><path d="M55.45,32.62l.36.13-.36-.13Zm0,0" fill="#fdd44b"/><path d="M56.4,33l.35.14L56.4,33Zm0,0" fill="#fdd44b"/><path d="M57.65,33.53l-.3-.14.3.14Zm0,0" fill="#fdd44b"/><path d="M18.09,67.27l-.16,0,.16,0Zm0,0" fill="#fdd44b"/><path d="M17.66,67.22l-.19,0,.19,0Zm0,0" fill="#fdd44b"/><path d="M22,44.34a1.56,1.56,0,0,1-.12-.26,1.56,1.56,0,0,0,.12.26Zm0,0" fill="#fdd44b"/><path d="M14.78,65.69l0,0,0,0Zm0,0" fill="#fdd44b"/><path d="M59.9,34.75c-.74-.27-1.55-.51-2.36-.72-6.21-1.61-13.59-1.1-20.76,1.41A39.69,39.69,0,0,0,24.51,42.3h0a1.63,1.63,0,1,1-2.4,2.13l0,.07a27.82,27.82,0,0,0-2.4,2.81c-3.7,4.94-4.84,10.12-3.27,14.6L17.92,66a5,5,0,0,0,.6,1.25A4.58,4.58,0,0,0,20,67.07L63.68,51.74a5,5,0,0,0,3.06-6.28l-1.46-4.15a13.25,13.25,0,0,0-5.39-6.56ZM19.67,54.56a1.63,1.63,0,0,1-3-.17,1.63,1.63,0,1,1,3.07-1.08,1.63,1.63,0,0,1-.07,1.24Zm10.54,4.77a1.64,1.64,0,1,1,.07-1.24,1.64,1.64,0,0,1-.07,1.24ZM32.54,50a1.63,1.63,0,1,1,.07-1.24A1.63,1.63,0,0,1,32.54,50Zm9.08,5.28a1.63,1.63,0,1,1,.07-1.24,1.65,1.65,0,0,1-.07,1.24Zm-5.3-15.09A1.62,1.62,0,1,1,36.4,39a1.63,1.63,0,0,1-.07,1.24Zm9.08,5.28a1.63,1.63,0,1,1,.07-1.24,1.64,1.64,0,0,1-.07,1.24ZM53,51.32a1.63,1.63,0,1,1,.07-1.24A1.63,1.63,0,0,1,53,51.32ZM47.74,36.23A1.63,1.63,0,1,1,47.81,35a1.64,1.64,0,0,1-.07,1.24ZM58.28,41a1.63,1.63,0,1,1,.07-1.24A1.64,1.64,0,0,1,58.28,41Zm0,0" fill="#fdd44b"/><path d="M17.24,67.14l-.19,0,.19,0Zm0,0" fill="#fdd44b"/><path d="M15.54,66.37l-.14-.1.14.1Zm0,0" fill="#fdd44b"/><path d="M15.19,66.09l-.11-.1.11.1Zm0,0" fill="#fdd44b"/><path d="M16.82,67,16.65,67l.17.06Zm0,0" fill="#fdd44b"/><path d="M15.91,66.6l-.14-.09.14.09Zm0,0" fill="#fdd44b"/><path d="M68.24,26.73a8.49,8.49,0,0,0-2.73-3c-2.25-1.47-5.12-1.15-7.89-.83a18.84,18.84,0,0,1-5,.14,14.77,14.77,0,0,1-4.1-1.79c-2.32-1.28-5-2.73-7.85-2.41-2.51.27-4.55,2-6.53,3.62a15.65,15.65,0,0,1-4.31,2.89,15.66,15.66,0,0,1-5.17.44c-2.57-.05-5.23-.1-7.36,1.25-2.46,1.56-3.61,4.34-4.62,6.79a14.69,14.69,0,0,1-2.08,4,18.78,18.78,0,0,1-4,3c-2.36,1.49-4.8,3-5.64,5.58-1.13,3.46.42,6.88,1.78,9.89.4.88.78,1.73,1.08,2.53,0,1.23.1,5.14,2.66,7.38a7,7,0,0,0,5.68,1.49A8.11,8.11,0,0,0,21,70.08L74.7,51.25a8.11,8.11,0,0,0,5-10.33L78.2,36.78c-1.54-4.4-5-7.86-10-10ZM76.59,42a4.85,4.85,0,0,1-3,6.17l-3.85,1.35a8.14,8.14,0,0,0,.37-2,6,6,0,0,0,3.34-3.75c1-3.54-1.63-7.39-2.43-8.45-.27-.82-.51-1.73-.75-2.69-.1-.39-.2-.79-.31-1.18a13.06,13.06,0,0,1,5.13,6.45ZM13.79,64l-1.45-4.15c-1.57-4.48-.4-9.66,3.3-14.61,3.85-5.14,9.91-9.35,17.07-11.86s14.53-3,20.74-1.41c6,1.55,10.14,4.86,11.71,9.34l1.45,4.15a4.85,4.85,0,0,1-3,6.17L20,67a4.85,4.85,0,0,1-6.17-3Zm-8-9.1c-1.17-2.59-2.39-5.27-1.65-7.53C4.57,46,6.42,44.8,8.38,43.57A21.08,21.08,0,0,0,13.05,40a17.13,17.13,0,0,0,2.66-4.88c.91-2.2,1.77-4.27,3.36-5.29,1.3-.83,3.36-.79,5.54-.74a17.94,17.94,0,0,0,6.31-.62A17.93,17.93,0,0,0,36.24,25c1.68-1.4,3.26-2.72,4.79-2.88,1.87-.2,3.84.88,5.93,2a17.13,17.13,0,0,0,5.12,2.15,21.19,21.19,0,0,0,5.9-.12c2.3-.26,4.47-.51,5.74.32,2,1.3,2.71,4.15,3.41,6.91.27,1.08.56,2.19.92,3.21a1.62,1.62,0,0,0,.27.48c.7.87,2.58,3.79,2,5.75A2.23,2.23,0,0,1,69.55,44l-1.31-3.74c-1.94-5.53-6.9-9.59-14-11.42-6.83-1.77-14.87-1.24-22.64,1.49s-14.37,7.34-18.6,13C8.66,49.17,7.32,55.44,9.26,61l1.23,3.5a3.19,3.19,0,0,1-1.82-.73c-1.47-1.28-1.62-4.1-1.55-5.07A1.63,1.63,0,0,0,7,58c-.36-1-.83-2.07-1.29-3.08Zm0,0" fill="#402e21"/><path d="M18.74,55.39a1.63,1.63,0,1,0-1.08-3.07,1.63,1.63,0,1,0,1.08,3.07Zm0,0" fill="#402e21"/><path d="M57.35,41.84a1.63,1.63,0,1,0-1.25-.07,1.64,1.64,0,0,0,1.25.07Zm0,0" fill="#402e21"/><path d="M44.48,46.36a1.63,1.63,0,1,0-1.24-.07,1.64,1.64,0,0,0,1.24.07Zm0,0" fill="#402e21"/><path d="M31.61,50.87a1.63,1.63,0,1,0-1.24-.07,1.63,1.63,0,0,0,1.24.07Zm0,0" fill="#402e21"/><path d="M35.4,41.07A1.63,1.63,0,1,0,34.15,41a1.63,1.63,0,0,0,1.24.07Zm0,0" fill="#402e21"/><path d="M40.69,56.16a1.63,1.63,0,1,0-1.24-.07,1.65,1.65,0,0,0,1.24.07Zm0,0" fill="#402e21"/><path d="M24,45.08a1.63,1.63,0,1,0-2-2.24,1.63,1.63,0,0,0,2,2.24Zm0,0" fill="#402e21"/><path d="M29.28,60.17A1.63,1.63,0,1,0,28,60.1a1.65,1.65,0,0,0,1.24.07Zm0,0" fill="#402e21"/><path d="M46.81,37.07A1.63,1.63,0,1,0,45.57,37a1.64,1.64,0,0,0,1.24.07Zm0,0" fill="#402e21"/><path d="M52.11,52.15a1.63,1.63,0,1,0-1.24-.07,1.64,1.64,0,0,0,1.24.07Zm0,0" fill="#402e21"/></svg>