<svg id="Layer_1" data-name="Layer 1" xmlns="http://www.w3.org/2000/svg" viewBox="0 0 98.9 98.9"><title>thumbs-up</title><circle cx="49.45" cy="49.45" r="48.45" fill="#fff"/><path d="M49.45,98.9A49.45,49.45,0,1,1,98.9,49.45,49.51,49.51,0,0,1,49.45,98.9Zm0-96.9A47.45,47.45,0,1,0,96.9,49.45,47.5,47.5,0,0,0,49.45,2Z" fill="#231f20"/><path d="M75.82,67.93h-15a31.68,31.68,0,0,1-13.71-3.14l-2.3-1.11a1.59,1.59,0,0,0-.69-.16H41.77V43.1H46a1.59,1.59,0,0,0,1-.37l6.75-5.65a22,22,0,0,0,6.69-9.72l1.27-3.7a2.15,2.15,0,0,1,4.08.92s0,3.79,0,3.79A18.72,18.72,0,0,1,64.16,36l-1.85,4.14a1.58,1.58,0,0,0-.07,1.11,1.63,1.63,0,0,0,1.52,1.15h16a2,2,0,0,1,0,4H77.54a1.59,1.59,0,0,0,0,3.17h.93a2,2,0,1,1,0,4H76.21a1.59,1.59,0,0,0,0,3.17h.93a2,2,0,1,1,0,4H74.89a1.59,1.59,0,0,0,0,3.17h.93a2,2,0,1,1,0,4Z" fill="#ffd54b"/><path d="M81.69,50.84a5.14,5.14,0,0,0-.91-2.92,5.17,5.17,0,0,0-2.94-9.43H64.24l.86-1.93A21.88,21.88,0,0,0,67,27.64s0-3.77,0-3.8a5.32,5.32,0,0,0-10.25-2c0,.09-1.27,3.73-1.27,3.73a18.84,18.84,0,0,1-5.72,8.32l-6.31,5.28H39.82V37.52a3.18,3.18,0,0,0-3.17-3.17H20.92a3.18,3.18,0,0,0-3.17,3.17V68.44a3.18,3.18,0,0,0,3.17,3.17H36.64a3.18,3.18,0,0,0,3.17-3.17V66h2l2,1a34.88,34.88,0,0,0,15.09,3.46h15a5.17,5.17,0,0,0,4.27-8.1,5.16,5.16,0,0,0,1.32-7.17A5.17,5.17,0,0,0,81.69,50.84ZM36.64,68.44H20.92V37.52H36.64V68.44Zm37.23-1.24h-15a31.68,31.68,0,0,1-13.71-3.14l-2.3-1.11a1.59,1.59,0,0,0-.69-.16H39.82V42.36H44a1.59,1.59,0,0,0,1-.37l6.75-5.65a22,22,0,0,0,6.69-9.72l1.27-3.7a2.15,2.15,0,0,1,4.08.92s0,3.79,0,3.79a18.72,18.72,0,0,1-1.63,7.63l-1.85,4.14a1.58,1.58,0,0,0-.07,1.11,1.63,1.63,0,0,0,1.52,1.15h16a2,2,0,0,1,0,4H75.59a1.59,1.59,0,1,0,0,3.17h.93a2,2,0,1,1,0,4H74.26a1.59,1.59,0,1,0,0,3.17h.93a2,2,0,1,1,0,4H72.94a1.59,1.59,0,1,0,0,3.17h.93a2,2,0,1,1,0,4Z" fill="#010101"/></svg>