<svg id="Layer_1" data-name="Layer 1" xmlns="http://www.w3.org/2000/svg" xmlns:xlink="http://www.w3.org/1999/xlink" viewBox="0 0 98.9 98.9"><defs><clipPath id="clip-path"><path d="M49.45,2A47.45,47.45,0,1,0,96.9,49.45,47.5,47.5,0,0,0,49.45,2Z" fill="none"/></clipPath></defs><title>thumbs-up-down</title><circle cx="49.45" cy="49.45" r="48.45" fill="#fff"/><path d="M49.45,98.9A49.45,49.45,0,1,1,98.9,49.45,49.51,49.51,0,0,1,49.45,98.9Zm0-96.9A47.45,47.45,0,1,0,96.9,49.45,47.5,47.5,0,0,0,49.45,2Z" fill="#231f20"/><g clip-path="url(#clip-path)"><path d="M87,85H73.25a29,29,0,0,1-12.55-2.87l-2.11-1A1.45,1.45,0,0,0,58,81H55.81V62.29h3.87a1.45,1.45,0,0,0,.93-.34l6.18-5.17a20.14,20.14,0,0,0,6.12-8.89l1.16-3.39a2,2,0,0,1,3.74.85s0,3.47,0,3.47a17.13,17.13,0,0,1-1.49,7l-1.69,3.79a1.44,1.44,0,0,0-.06,1,1.49,1.49,0,0,0,1.39,1H90.62a1.83,1.83,0,0,1,0,3.66H88.55a1.45,1.45,0,1,0,0,2.9h.85a1.83,1.83,0,1,1,0,3.66H87.34a1.45,1.45,0,1,0,0,2.9h.85a1.83,1.83,0,1,1,0,3.66H86.13a1.45,1.45,0,1,0,0,2.9H87A1.83,1.83,0,1,1,87,85Z" fill="#ffd54b"/><path d="M92.35,69.38a4.71,4.71,0,0,0-.83-2.68,4.73,4.73,0,0,0-2.69-8.63H76.38l.79-1.77a20,20,0,0,0,1.75-8.16s0-3.45,0-3.47a4.87,4.87,0,0,0-9.38-1.82c0,.08-1.17,3.42-1.17,3.42a17.24,17.24,0,0,1-5.24,7.61l-5.77,4.83H54V57.19a2.91,2.91,0,0,0-2.9-2.9H36.73a2.91,2.91,0,0,0-2.9,2.9V85.48a2.91,2.91,0,0,0,2.9,2.9H51.12a2.91,2.91,0,0,0,2.9-2.9V83.21h1.82l1.81.87a31.92,31.92,0,0,0,13.81,3.16H85.2a4.73,4.73,0,0,0,3.9-7.41,4.73,4.73,0,0,0,1.21-6.57A4.73,4.73,0,0,0,92.35,69.38ZM51.12,85.48H36.73V57.19H51.12V85.48ZM85.2,84.34H71.47a29,29,0,0,1-12.55-2.87l-2.11-1a1.45,1.45,0,0,0-.63-.14H54V61.62h3.87a1.45,1.45,0,0,0,.93-.34L65,56.11a20.14,20.14,0,0,0,6.12-8.89l1.16-3.39a2,2,0,0,1,3.74.85s0,3.47,0,3.47a17.13,17.13,0,0,1-1.49,7l-1.69,3.79a1.44,1.44,0,0,0-.06,1,1.49,1.49,0,0,0,1.39,1H88.83a1.83,1.83,0,0,1,0,3.66H86.76a1.45,1.45,0,1,0,0,2.9h.85a1.83,1.83,0,1,1,0,3.66H85.55a1.45,1.45,0,1,0,0,2.9h.85a1.83,1.83,0,1,1,0,3.66H84.34a1.45,1.45,0,1,0,0,2.9h.85a1.83,1.83,0,1,1,0,3.66Z" fill="#010101"/><path d="M34.62,51.2a5.19,5.19,0,0,1,1.94-.4c1.34-.1,2.9-.12,3.77.9A3.46,3.46,0,0,1,41,53.42a6.21,6.21,0,0,1-1.2,5A4.09,4.09,0,0,1,35,59.58a2.3,2.3,0,0,1-1.17-1.29C33.25,56.35,32.28,52.37,34.62,51.2Z" fill="#fff"/><path d="M56,24.29a1.83,1.83,0,0,1-1.83,1.83h-.85a1.45,1.45,0,1,0,0,2.9h2.07a1.83,1.83,0,1,1,0,3.66h-.85a1.45,1.45,0,0,0,0,2.9h2.07a1.83,1.83,0,1,1,0,3.66H55.7a1.45,1.45,0,1,0,0,2.9h2.07a1.83,1.83,0,0,1,0,3.66H43.09a1.49,1.49,0,0,0-1.39,1,1.44,1.44,0,0,0,.06,1l1.69,3.79a17.13,17.13,0,0,1,1.49,7s0,3.45,0,3.47a2,2,0,0,1-3.74.85l-1.16-3.39a20.14,20.14,0,0,0-6.12-8.89l-6.18-5.17a1.45,1.45,0,0,0-.93-.34H23V26.5h2.16a1.45,1.45,0,0,0,.63-.14l2.11-1A29,29,0,0,1,40.4,22.46H54.13A1.83,1.83,0,0,1,56,24.29Z" fill="#ffd54b"/><path d="M57.46,34.21a4.73,4.73,0,0,0-1.21-6.57,4.73,4.73,0,0,0-3.9-7.41H38.62A31.92,31.92,0,0,0,24.81,23.4L23,24.27H21.18V22a2.91,2.91,0,0,0-2.9-2.9H3.88A2.91,2.91,0,0,0,1,22V50.29a2.91,2.91,0,0,0,2.9,2.9H18.27a2.91,2.91,0,0,0,2.9-2.9V48.77h3.34l5.77,4.83a17.24,17.24,0,0,1,5.24,7.61s1.13,3.34,1.17,3.42a4.87,4.87,0,0,0,9.38-1.82s0-3.47,0-3.47a20,20,0,0,0-1.75-8.16l-.79-1.77H56a4.73,4.73,0,0,0,2.69-8.63,4.73,4.73,0,0,0-1.21-6.57ZM18.27,22V50.29H3.88V22H18.27Zm35.9,3a1.83,1.83,0,0,1-1.83,1.83h-.85a1.45,1.45,0,1,0,0,2.9h2.07a1.83,1.83,0,1,1,0,3.66H52.7a1.45,1.45,0,1,0,0,2.9h2.07a1.83,1.83,0,1,1,0,3.66h-.85a1.45,1.45,0,1,0,0,2.9H56a1.83,1.83,0,0,1,0,3.66H41.31a1.49,1.49,0,0,0-1.39,1,1.44,1.44,0,0,0,.06,1l1.69,3.79a17.13,17.13,0,0,1,1.49,7s0,3.45,0,3.47a2,2,0,0,1-3.74.85l-1.16-3.39a20.14,20.14,0,0,0-6.12-8.89L26,46.2a1.45,1.45,0,0,0-.93-.34H21.18V27.18h2.16A1.45,1.45,0,0,0,24,27l2.11-1a29,29,0,0,1,12.55-2.87H52.35A1.83,1.83,0,0,1,54.18,25Z" fill="#010101"/></g></svg>