<svg id="Layer_1" data-name="Layer 1" xmlns="http://www.w3.org/2000/svg" viewBox="0 0 123.57 79.86"><defs><style>.cls-1{fill:#ffd54b;}.cls-2{fill:#fff;}.cls-3{fill:#010101;}</style></defs><title>thumbs-up-down</title><path class="cls-1" d="M114.64,73.5h-15a31.68,31.68,0,0,1-13.71-3.14l-2.3-1.11a1.59,1.59,0,0,0-.69-.16H80.59V48.67h4.22a1.59,1.59,0,0,0,1-.37l6.75-5.65a22,22,0,0,0,6.69-9.72l1.27-3.7a2.15,2.15,0,0,1,4.08.92s0,3.79,0,3.79A18.72,18.72,0,0,1,103,41.58l-1.85,4.14a1.58,1.58,0,0,0-.07,1.11A1.63,1.63,0,0,0,102.58,48h16a2,2,0,0,1,0,4h-2.26a1.59,1.59,0,1,0,0,3.17h.93a2,2,0,1,1,0,4H115a1.59,1.59,0,1,0,0,3.17H116a2,2,0,1,1,0,4h-2.26a1.59,1.59,0,1,0,0,3.17h.93a2,2,0,1,1,0,4Z"/><rect class="cls-2" x="61.97" y="45.17" width="15.11" height="30.97"/><path class="cls-3" d="M120.51,56.41a5.14,5.14,0,0,0-.91-2.92,5.17,5.17,0,0,0-2.94-9.43h-13.6l.86-1.93a21.88,21.88,0,0,0,1.91-8.92s0-3.77,0-3.8a5.32,5.32,0,0,0-10.25-2c0,.09-1.27,3.73-1.27,3.73a18.84,18.84,0,0,1-5.72,8.32l-6.31,5.28H78.64V43.09a3.18,3.18,0,0,0-3.17-3.17H59.74a3.18,3.18,0,0,0-3.17,3.17V74a3.18,3.18,0,0,0,3.17,3.17H75.46A3.18,3.18,0,0,0,78.64,74V71.53h2l2,1a34.88,34.88,0,0,0,15.09,3.46h15a5.17,5.17,0,0,0,4.27-8.1,5.16,5.16,0,0,0,1.32-7.17A5.17,5.17,0,0,0,120.51,56.41ZM75.46,74H59.74V43.09H75.46V74Zm37.23-1.24h-15A31.68,31.68,0,0,1,84,69.63l-2.3-1.11a1.59,1.59,0,0,0-.69-.16H78.64V47.93h4.22a1.59,1.59,0,0,0,1-.37l6.75-5.65a22,22,0,0,0,6.69-9.72l1.27-3.7a2.15,2.15,0,0,1,4.08.92s0,3.79,0,3.79A18.72,18.72,0,0,1,101,40.84L99.18,45a1.58,1.58,0,0,0-.07,1.11,1.63,1.63,0,0,0,1.52,1.15h16a2,2,0,0,1,0,4h-2.26a1.59,1.59,0,1,0,0,3.17h.93a2,2,0,1,1,0,4h-2.26a1.59,1.59,0,1,0,0,3.17H114a2,2,0,1,1,0,4h-2.26a1.59,1.59,0,1,0,0,3.17h.93a2,2,0,1,1,0,4Z"/><path class="cls-1" d="M61.63,7.15a2,2,0,0,1-2,2H58.7a1.59,1.59,0,0,0,0,3.17H61a2,2,0,1,1,0,4H60a1.59,1.59,0,0,0,0,3.17h2.26a2,2,0,1,1,0,4h-.93a1.59,1.59,0,1,0,0,3.17H63.6a2,2,0,0,1,0,4h-16A1.63,1.63,0,0,0,46,31.83a1.58,1.58,0,0,0,.07,1.11L48,37.08a18.72,18.72,0,0,1,1.63,7.63s0,3.77,0,3.79a2.15,2.15,0,0,1-4.08.92l-1.27-3.7A22,22,0,0,0,37.56,36l-6.75-5.65a1.59,1.59,0,0,0-1-.37H25.57V9.56h2.35a1.59,1.59,0,0,0,.69-.16l2.3-1.11A31.68,31.68,0,0,1,44.63,5.15h15A2,2,0,0,1,61.63,7.15Z"/><rect class="cls-2" x="6.96" y="2.51" width="15.11" height="30.97"/><path class="cls-3" d="M63.27,18a5.16,5.16,0,0,0-1.32-7.17,5.17,5.17,0,0,0-4.27-8.1h-15A34.88,34.88,0,0,0,27.59,6.17l-2,1h-2V4.65a3.18,3.18,0,0,0-3.17-3.17H4.73A3.18,3.18,0,0,0,1.55,4.65V35.56a3.18,3.18,0,0,0,3.17,3.17H20.45a3.18,3.18,0,0,0,3.17-3.17V33.9h3.65l6.31,5.28a18.84,18.84,0,0,1,5.72,8.32s1.24,3.65,1.27,3.73a5.32,5.32,0,0,0,10.25-2s0-3.8,0-3.8a21.88,21.88,0,0,0-1.91-8.92L48,34.59h13.6a5.17,5.17,0,0,0,2.94-9.43A5.16,5.16,0,0,0,63.27,18ZM20.45,4.65V35.56H4.73V4.65H20.45ZM59.68,7.89a2,2,0,0,1-2,2h-.93a1.59,1.59,0,1,0,0,3.17H59a2,2,0,1,1,0,4h-.93a1.59,1.59,0,1,0,0,3.17h2.26a2,2,0,1,1,0,4h-.93a1.59,1.59,0,1,0,0,3.17h2.26a2,2,0,0,1,0,4h-16a1.63,1.63,0,0,0-1.52,1.15,1.58,1.58,0,0,0,.07,1.11L46,37.81a18.72,18.72,0,0,1,1.63,7.63s0,3.77,0,3.79a2.15,2.15,0,0,1-4.08.92l-1.27-3.7a22,22,0,0,0-6.69-9.72l-6.75-5.65a1.59,1.59,0,0,0-1-.37H23.62V10.3H26a1.59,1.59,0,0,0,.69-.16L29,9A31.68,31.68,0,0,1,42.68,5.89h15A2,2,0,0,1,59.68,7.89Z"/></svg>