<svg id="Layer_1" data-name="Layer 1" xmlns="http://www.w3.org/2000/svg" viewBox="0 0 98.9 98.9"><title>thumbs-down</title><circle cx="49.45" cy="49.45" r="48.45" fill="#fff"/><path d="M98.9,49.45A49.45,49.45,0,1,1,49.45,0,49.51,49.51,0,0,1,98.9,49.45Zm-2,0A47.45,47.45,0,1,0,49.45,96.9,47.5,47.5,0,0,0,96.9,49.45Z" fill="#231f20"/><path d="M75.82,31h-15a31.68,31.68,0,0,0-13.71,3.14l-2.3,1.11a1.59,1.59,0,0,1-.69.16H41.77V55.8H46a1.59,1.59,0,0,1,1,.37l6.75,5.65a22,22,0,0,1,6.69,9.72l1.27,3.7a2.15,2.15,0,0,0,4.08-.92s0-3.79,0-3.79a18.72,18.72,0,0,0-1.63-7.63l-1.85-4.14a1.58,1.58,0,0,1-.07-1.11,1.63,1.63,0,0,1,1.52-1.15h16a2,2,0,0,0,0-4H77.54a1.59,1.59,0,0,1,0-3.17h.93a2,2,0,1,0,0-4H76.21a1.59,1.59,0,0,1,0-3.17h.93a2,2,0,1,0,0-4H74.89a1.59,1.59,0,0,1,0-3.17h.93a2,2,0,1,0,0-4Z" fill="#ffd54b"/><path d="M79.46,43.81a5.16,5.16,0,0,0-1.32-7.17,5.17,5.17,0,0,0-4.27-8.1h-15A34.88,34.88,0,0,0,43.78,32l-2,1h-2V30.46a3.18,3.18,0,0,0-3.17-3.17H20.92a3.18,3.18,0,0,0-3.17,3.17V61.38a3.18,3.18,0,0,0,3.17,3.17H36.64a3.18,3.18,0,0,0,3.17-3.17V59.71h3.65L49.77,65a18.84,18.84,0,0,1,5.72,8.32S56.73,77,56.77,77a5.32,5.32,0,0,0,10.25-2s0-3.8,0-3.8a21.88,21.88,0,0,0-1.91-8.92l-.86-1.93h13.6A5.17,5.17,0,0,0,80.79,51a5.16,5.16,0,0,0-1.32-7.18ZM36.65,30.46V61.38H20.92V30.46H36.65Zm39.23,3.24a2,2,0,0,1-2,2h-.93a1.59,1.59,0,1,0,0,3.17H75.2a2,2,0,1,1,0,4h-.93a1.59,1.59,0,1,0,0,3.17h2.26a2,2,0,1,1,0,4h-.93a1.59,1.59,0,1,0,0,3.17h2.26a2,2,0,0,1,0,4h-16a1.63,1.63,0,0,0-1.52,1.15,1.58,1.58,0,0,0,.07,1.11l1.85,4.14a18.72,18.72,0,0,1,1.63,7.63s0,3.77,0,3.79a2.15,2.15,0,0,1-4.08.92l-1.27-3.7a22,22,0,0,0-6.69-9.72l-6.75-5.65a1.59,1.59,0,0,0-1-.37H39.82V36.12h2.35a1.59,1.59,0,0,0,.69-.16l2.3-1.11a31.68,31.68,0,0,1,13.71-3.14h15A2,2,0,0,1,75.88,33.71Z" fill="#010101"/></svg>