<?xml version="1.0" encoding="utf-8"?>
<!-- Generator: Adobe Illustrator 21.1.0, SVG Export Plug-In . SVG Version: 6.00 Build 0)  -->
<svg version="1.1" id="Layer_1" xmlns="http://www.w3.org/2000/svg" xmlns:xlink="http://www.w3.org/1999/xlink" x="0px" y="0px"
	 viewBox="0 0 634.4 629.4" style="enable-background:new 0 0 634.4 629.4;" xml:space="preserve">
<style type="text/css">
	.st0{fill:#EFEB6A;}
	.st1{fill:url(#path6096_1_);}
</style>
<g>
	<title>Layer 1</title>
	<g id="svg_8_1_">
		<path id="path2182_1_" d="M494.2,523.4l-6.4,52.3l-50.3-15.9l-19.2,49.1l-44.7-27.9l-30.8,42.7l-36.4-38.1l-40.5,33.7l-25.8-46
			L192.4,596l-13.5-50.9l-51.7,10l-0.4-52.7l-52.6-3.1l12.7-51.2L36.6,432l25-46.4L17,357.5l35.8-38.7l-36.2-38.3l44.3-28.6
			l-25.5-46.1l50-16.7l-13.3-51l52.6-3.7l-0.2-52.7l51.9,9.5L189.2,40l47.9,22l25.2-46.3L303.2,49l36-38.5l31.3,42.4l44.4-28.4
			l19.8,48.8l50.1-16.5l7,52.2l52.6-3.5l-6.2,52.3l51.8,9.7l-19,49.2l47.8,22.3L588.2,282l40.7,33.5l-40.3,33.9l31.1,42.5
			l-47.5,22.8l19.6,48.9L540,474l6.8,52.3L494.2,523.4z"/>
	</g>
</g>
<title>Award Seal</title>
<g>
	<title>Layer 1</title>
	<g id="svg_8">
		<path id="path2182" class="st0" d="M487.6,518.9l-6.4,52.3l-50.3-15.9l-19.2,49.1l-44.7-27.9l-30.8,42.7l-36.4-38.1l-40.5,33.7
			l-25.8-46l-47.6,22.6l-13.5-50.9l-51.7,10l-0.4-52.7l-52.6-3.1l12.7-51.2L30,427.5l25-46.4L10.4,353l35.8-38.7L10,276l44.3-28.6
			l-25.5-46.1l50-16.7l-13.3-51l52.6-3.7l-0.2-52.7l51.9,9.5l12.9-51.1l47.9,22l25.2-46.3l40.9,33.3l36-38.5l31.3,42.4L408.3,20
			l19.8,48.8l50.1-16.5l7,52.2l52.6-3.5l-6.2,52.3l51.8,9.7l-19,49.2l47.8,22.3l-30.6,42.9l40.7,33.5L582,344.9l31.1,42.5
			l-47.5,22.8l19.6,48.9l-51.7,10.3l6.8,52.3L487.6,518.9z"/>
		<radialGradient id="path6096_1_" cx="316.1551" cy="313.6496" r="287.1908" gradientUnits="userSpaceOnUse">
			<stop  offset="0" style="stop-color:#FFFFFF"/>
			<stop  offset="0.666" style="stop-color:#FFFF6C"/>
		</radialGradient>
		<path id="path6096" class="st1" d="M476.9,507l-6,49l-47.1-14.9l-18,46L363.8,561l-28.9,40.1l-34.1-35.7l-38,31.6l-24.2-43.1
			L194,575l-12.7-47.7l-48.5,9.4l-0.4-49.4l-49.3-2.9L95,436.4l-47-15.1l23.4-43.5l-41.8-26.3l33.5-36.3l-33.9-35.9l41.5-26.8
			l-23.9-43.2l46.9-15.6l-12.4-47.8l49.3-3.5l-0.2-49.4l48.6,8.9L191,53.9l44.9,20.7l23.7-43.4l38.3,31.2l33.7-36.1L360.9,66
			l41.6-26.6l18.6,45.8L468,69.7l6.6,49l49.3-3.3l-5.8,49.1l48.6,9.1l-17.8,46.1l44.8,20.9l-28.7,40.2l38.2,31.4l-37.8,31.8
			l29.2,39.9L550,405.2l18.3,45.9l-48.4,9.7l6.4,49L476.9,507z"/>
	</g>
</g>
</svg>
